<svg width="32" height="33" viewBox="0 0 32 33" fill="none" xmlns="http://www.w3.org/2000/svg">
<g clip-path="url(#clip0_81_63)">
<path d="M27.2211 0.210205H3.97107C1.83401 0.210205 0.0960693 2.0042 0.0960693 4.21021V28.2102C0.0960693 30.4162 1.83401 32.2102 3.97107 32.2102H15.5961V21.2102H11.7211V16.2102H15.5961V12.2102C15.5961 8.89621 18.1981 6.21021 21.4086 6.21021H25.2836V11.2102H23.3461C22.2766 11.2102 21.4086 11.1062 21.4086 12.2102V16.2102H26.2523L24.3148 21.2102H21.4086V32.2102H27.2211C29.3581 32.2102 31.0961 30.4162 31.0961 28.2102V4.21021C31.0961 2.0042 29.3581 0.210205 27.2211 0.210205Z" fill="white"/>
</g>
<defs>
<clipPath id="clip0_81_63">
<rect width="31" height="32" fill="white" transform="translate(0.0960693 0.210205)"/>
</clipPath>
</defs>
</svg>
