<svg width="598" height="398" viewBox="0 0 598 398" fill="none" xmlns="http://www.w3.org/2000/svg">
<g clip-path="url(#clip0_77_2468)">
<g opacity="0.4">
<path d="M295.389 357.404C293.675 357.388 291.938 357.345 290.22 357.275L290.264 356.244C291.97 356.315 293.695 356.353 295.397 356.369L295.389 357.4V357.404ZM300.562 357.369L300.538 356.338C302.252 356.299 303.978 356.233 305.671 356.139L305.731 357.17C304.03 357.264 302.292 357.33 300.566 357.373L300.562 357.369ZM285.059 356.987C283.349 356.863 281.615 356.711 279.91 356.532L280.021 355.505C281.719 355.684 283.437 355.836 285.135 355.957L285.055 356.984L285.059 356.987ZM310.884 356.801L310.793 355.774C312.487 355.626 314.208 355.451 315.902 355.249L316.03 356.272C314.324 356.474 312.594 356.653 310.888 356.801H310.884ZM274.777 355.914C273.079 355.68 271.361 355.42 269.667 355.132L269.851 354.117C271.532 354.401 273.238 354.665 274.924 354.895L274.777 355.914ZM321.147 355.579L320.983 354.56C322.665 354.303 324.367 354.019 326.045 353.708L326.24 354.724C324.55 355.035 322.837 355.326 321.143 355.583L321.147 355.579ZM264.59 354.183C262.904 353.841 261.206 353.467 259.544 353.07L259.795 352.067C261.445 352.46 263.131 352.829 264.805 353.172L264.59 354.183ZM331.306 353.701L331.075 352.693C332.736 352.331 334.414 351.935 336.068 351.514L336.335 352.514C334.673 352.934 332.98 353.335 331.31 353.701H331.306ZM254.543 351.798C252.897 351.351 251.227 350.869 249.585 350.363L249.904 349.379C251.534 349.881 253.191 350.359 254.825 350.803L254.543 351.794V351.798ZM341.317 351.168L341.018 350.18C342.652 349.71 344.302 349.208 345.92 348.683L346.251 349.663C344.621 350.188 342.963 350.698 341.317 351.172V351.168ZM244.663 348.76C243.033 348.2 241.395 347.609 239.8 347.002L240.183 346.041C241.769 346.644 243.391 347.232 245.013 347.788L244.663 348.76ZM351.133 347.994L350.767 347.026C352.369 346.45 353.983 345.839 355.557 345.213L355.956 346.17C354.369 346.8 352.747 347.411 351.133 347.994ZM235.002 345.088C233.412 344.423 231.822 343.727 230.271 343.019L230.718 342.085C232.256 342.789 233.838 343.482 235.416 344.139L235.002 345.088ZM360.698 344.198L360.268 343.256C361.826 342.579 363.388 341.868 364.911 341.148L365.373 342.074C363.839 342.801 362.264 343.517 360.698 344.198ZM225.616 340.798C224.09 340.039 222.552 339.242 221.041 338.429L221.551 337.526C223.054 338.336 224.58 339.125 226.099 339.88L225.62 340.798H225.616ZM369.976 339.798L369.482 338.884C370.981 338.114 372.495 337.305 373.978 336.48L374.5 337.375C373.009 338.203 371.487 339.02 369.976 339.798ZM216.546 335.916C215.071 335.056 213.588 334.166 212.142 333.259L212.712 332.392C214.146 333.29 215.621 334.177 217.088 335.033L216.546 335.92V335.916ZM378.939 334.807L378.385 333.928C379.836 333.057 381.291 332.155 382.71 331.237L383.292 332.096C381.861 333.018 380.398 333.928 378.939 334.804V334.807ZM207.829 330.462C206.415 329.513 204.996 328.525 203.617 327.53L204.243 326.701C205.618 327.689 207.024 328.669 208.427 329.614L207.829 330.462ZM387.556 329.253L386.946 328.413C388.329 327.456 389.724 326.46 391.083 325.448L391.721 326.269C390.35 327.284 388.951 328.288 387.556 329.253ZM199.5 324.464C198.149 323.422 196.802 322.348 195.495 321.271L196.176 320.481C197.475 321.551 198.814 322.621 200.157 323.655L199.504 324.464H199.5ZM395.782 323.153L395.116 322.352C396.439 321.302 397.763 320.217 399.046 319.131L399.739 319.909C398.444 321.006 397.113 322.095 395.782 323.153ZM191.597 317.949C190.325 316.829 189.05 315.669 187.815 314.506L188.548 313.763C189.775 314.919 191.039 316.07 192.306 317.182L191.597 317.949ZM403.589 316.541L402.872 315.782C404.123 314.65 405.371 313.483 406.578 312.316L407.324 313.048C406.104 314.226 404.849 315.401 403.589 316.537V316.541ZM184.152 310.947C182.952 309.745 181.761 308.508 180.609 307.271L181.39 306.575C182.534 307.804 183.718 309.029 184.909 310.224L184.152 310.943V310.947ZM410.938 309.442L410.169 308.734C411.341 307.524 412.509 306.283 413.641 305.034L414.43 305.719C413.29 306.972 412.118 308.224 410.938 309.442ZM177.193 303.486C176.082 302.214 174.978 300.903 173.906 299.596L174.731 298.955C175.795 300.258 176.891 301.557 177.995 302.821L177.19 303.49L177.193 303.486ZM417.797 301.888L416.984 301.23C418.072 299.95 419.156 298.632 420.201 297.317L421.037 297.947C419.985 299.27 418.897 300.596 417.801 301.888H417.797ZM170.749 295.602C169.721 294.256 168.705 292.879 167.732 291.509L168.601 290.922C169.569 292.28 170.578 293.649 171.598 294.987L170.749 295.602ZM424.138 293.906L423.281 293.303C424.282 291.953 425.274 290.568 426.227 289.191L427.103 289.767C426.143 291.155 425.142 292.548 424.138 293.906ZM164.855 287.328C163.922 285.924 163.001 284.488 162.121 283.053L163.025 282.52C163.902 283.944 164.819 285.371 165.743 286.764L164.855 287.324V287.328ZM429.933 285.535L429.036 284.986C429.945 283.574 430.842 282.127 431.702 280.692L432.615 281.213C431.75 282.66 430.85 284.115 429.933 285.535ZM159.53 278.696C158.697 277.238 157.876 275.744 157.091 274.258L158.032 273.787C158.813 275.261 159.626 276.743 160.455 278.194L159.53 278.696ZM435.15 276.802L434.221 276.312C435.03 274.849 435.827 273.348 436.593 271.854L437.537 272.313C436.768 273.818 435.967 275.328 435.154 276.802H435.15ZM154.799 269.746C154.062 268.232 153.345 266.692 152.663 265.163L153.632 264.751C154.309 266.268 155.023 267.801 155.752 269.302L154.795 269.746H154.799ZM439.765 267.746L438.804 267.318C439.514 265.801 440.207 264.253 440.869 262.717L441.845 263.113C441.184 264.662 440.482 266.221 439.769 267.75L439.765 267.746ZM150.686 260.515C150.053 258.955 149.439 257.368 148.861 255.793L149.857 255.446C150.431 257.01 151.041 258.589 151.671 260.138L150.69 260.519L150.686 260.515ZM443.762 258.407L442.774 258.041C443.38 256.477 443.97 254.886 444.52 253.311L445.52 253.645C444.966 255.233 444.372 256.835 443.762 258.407ZM147.199 251.012C146.673 249.417 146.171 247.791 145.701 246.181L146.717 245.897C147.183 247.496 147.685 249.11 148.208 250.693L147.203 251.008L147.199 251.012ZM447.114 248.826L446.102 248.526C446.6 246.935 447.074 245.313 447.517 243.707L448.537 243.975C448.09 245.593 447.612 247.223 447.11 248.826H447.114ZM144.366 241.307C143.951 239.681 143.557 238.028 143.198 236.39L144.23 236.172C144.589 237.798 144.979 239.44 145.39 241.054L144.366 241.303V241.307ZM449.8 239.078L448.772 238.845C449.159 237.222 449.525 235.577 449.856 233.943L450.892 234.146C450.557 235.787 450.191 237.448 449.8 239.078ZM142.194 231.438C141.891 229.793 141.608 228.116 141.361 226.459L142.405 226.311C142.652 227.957 142.931 229.622 143.234 231.259L142.194 231.442V231.438ZM451.817 229.182L450.773 229.015C451.052 227.373 451.303 225.708 451.526 224.055L452.574 224.188C452.351 225.849 452.096 227.529 451.817 229.178V229.182ZM140.695 221.453C140.504 219.792 140.336 218.104 140.201 216.431L141.253 216.349C141.388 218.01 141.556 219.691 141.747 221.34L140.699 221.457L140.695 221.453ZM453.16 219.174L452.108 219.072C452.275 217.423 452.415 215.743 452.522 214.078L453.578 214.144C453.467 215.82 453.327 217.513 453.16 219.174ZM139.874 211.394C139.794 209.721 139.739 208.025 139.715 206.349L140.771 206.333C140.795 207.998 140.85 209.686 140.93 211.343L139.874 211.39V211.394ZM453.833 209.103L452.777 209.068C452.833 207.403 452.861 205.718 452.861 204.054C452.861 202.54 452.837 201 452.793 199.479L453.849 199.448C453.897 200.977 453.917 202.529 453.917 204.05C453.917 205.722 453.889 207.418 453.833 209.095V209.103ZM140.779 201.319L139.723 201.3C139.754 199.623 139.81 197.923 139.898 196.254L140.954 196.305C140.87 197.962 140.811 199.646 140.779 201.315V201.319ZM452.554 194.477C452.451 192.82 452.315 191.135 452.152 189.478L453.204 189.381C453.367 191.05 453.503 192.742 453.606 194.411L452.55 194.473L452.554 194.477ZM141.293 191.307L140.241 191.221C140.384 189.552 140.556 187.864 140.751 186.199L141.799 186.32C141.604 187.973 141.432 189.649 141.293 191.307ZM451.582 184.495C451.367 182.85 451.115 181.177 450.844 179.536L451.889 179.372C452.164 181.03 452.415 182.71 452.63 184.367L451.582 184.499V184.495ZM142.476 181.349L141.432 181.197C141.687 179.54 141.97 177.867 142.281 176.218L143.321 176.405C143.015 178.042 142.732 179.707 142.476 181.349ZM449.944 174.6C449.617 172.97 449.254 171.32 448.872 169.698L449.9 169.465C450.286 171.099 450.649 172.76 450.98 174.401L449.944 174.6ZM144.33 171.488L143.297 171.27C143.664 169.628 144.063 167.979 144.481 166.357L145.505 166.61C145.087 168.22 144.692 169.862 144.33 171.488ZM447.636 164.832C447.198 163.226 446.727 161.604 446.233 160.009L447.246 159.709C447.744 161.316 448.218 162.949 448.656 164.564L447.636 164.828V164.832ZM146.848 161.771L145.832 161.487C146.306 159.876 146.817 158.254 147.347 156.66L148.351 156.979C147.825 158.558 147.319 160.172 146.845 161.771H146.848ZM444.671 155.236C444.125 153.664 443.543 152.073 442.945 150.514L443.934 150.152C444.539 151.723 445.121 153.322 445.671 154.905L444.671 155.236ZM150.025 152.221L149.033 151.871C149.618 150.292 150.24 148.697 150.878 147.141L151.858 147.522C151.224 149.07 150.607 150.65 150.025 152.221ZM441.06 145.85C440.407 144.313 439.721 142.769 439.024 141.263L439.988 140.84C440.694 142.357 441.383 143.909 442.037 145.457L441.06 145.85ZM153.851 142.886L152.882 142.469C153.576 140.929 154.301 139.385 155.043 137.872L155.995 138.319C155.258 139.82 154.536 141.357 153.847 142.886H153.851ZM436.836 136.743C436.082 135.254 435.293 133.756 434.492 132.297L435.425 131.811C436.23 133.281 437.027 134.791 437.784 136.288L436.836 136.743ZM158.299 133.826L157.362 133.352C158.155 131.866 158.984 130.368 159.829 128.905L160.75 129.411C159.913 130.862 159.088 132.348 158.299 133.826ZM432.001 127.921C431.148 126.482 430.26 125.039 429.363 123.631L430.26 123.086C431.164 124.502 432.057 125.957 432.918 127.408L432.005 127.925L432.001 127.921ZM163.348 125.078L162.443 124.541C163.336 123.106 164.265 121.67 165.205 120.266L166.09 120.83C165.158 122.223 164.233 123.65 163.348 125.078ZM426.577 119.426C425.633 118.049 424.648 116.664 423.652 115.31L424.509 114.707C425.509 116.069 426.501 117.461 427.45 118.85L426.573 119.426H426.577ZM168.972 116.676L168.107 116.084C169.091 114.711 170.115 113.338 171.148 111.996L171.993 112.615C170.968 113.945 169.952 115.31 168.972 116.676ZM420.591 111.292C419.555 109.973 418.479 108.655 417.395 107.371L418.212 106.718C419.3 108.009 420.384 109.339 421.428 110.666L420.591 111.296V111.292ZM175.149 108.655L174.324 108.009C175.4 106.702 176.512 105.395 177.632 104.127L178.433 104.8C177.321 106.06 176.217 107.359 175.149 108.655ZM414.071 103.551C412.947 102.303 411.787 101.058 410.62 99.8403L411.389 99.1363C412.564 100.358 413.732 101.614 414.864 102.871L414.071 103.551ZM181.844 101.05L181.067 100.354C182.227 99.1207 183.427 97.8876 184.626 96.6935L185.38 97.417C184.188 98.6034 182.996 99.8287 181.844 101.054V101.05ZM407.041 96.2461C405.833 95.0714 404.59 93.8966 403.346 92.7647L404.068 92.0101C405.319 93.1537 406.57 94.3323 407.786 95.5148L407.041 96.2461ZM189.034 93.8927L188.305 93.1459C189.544 91.9867 190.824 90.8353 192.099 89.7228L192.804 90.493C191.537 91.6016 190.266 92.7452 189.034 93.8927ZM399.536 89.3961C398.249 88.2991 396.93 87.2061 395.614 86.1558L396.284 85.3584C397.611 86.4164 398.938 87.5173 400.234 88.622L399.536 89.4V89.3961ZM196.686 87.21L196.009 86.4203C197.324 85.3467 198.675 84.277 200.026 83.2462L200.676 84.0592C199.336 85.0822 197.993 86.1441 196.686 87.21ZM391.585 83.04C390.226 82.0248 388.835 81.0212 387.452 80.0565L388.066 79.2163C389.457 80.1888 390.856 81.2001 392.227 82.2193L391.585 83.04ZM204.765 81.0329L204.139 80.2004C205.522 79.2124 206.941 78.2361 208.355 77.2908L208.949 78.1427C207.542 79.0802 206.132 80.0526 204.761 81.0329H204.765ZM383.22 77.2052C381.801 76.2833 380.346 75.3692 378.896 74.4901L379.454 73.6149C380.912 74.4979 382.379 75.4159 383.81 76.3456L383.224 77.2052H383.22ZM213.238 75.3926L212.672 74.5212C214.122 73.6227 215.601 72.7358 217.076 71.8917L217.614 72.7786C216.151 73.6227 214.68 74.5018 213.242 75.3926H213.238ZM374.48 71.9189C372.993 71.0865 371.479 70.2657 369.976 69.4878L370.474 68.5775C371.985 69.3633 373.511 70.184 375.006 71.0243L374.48 71.9189ZM222.069 70.3085L221.563 69.4022C223.066 68.6009 224.6 67.8112 226.13 67.0605L226.605 67.9824C225.086 68.7292 223.56 69.5111 222.069 70.3085ZM365.397 67.2044C363.863 66.4731 362.296 65.7535 360.738 65.0689L361.172 64.1275C362.743 64.816 364.321 65.5395 365.863 66.2786L365.397 67.2044ZM231.216 65.8041L230.77 64.8666C232.32 64.1664 233.906 63.4779 235.48 62.8244L235.895 63.7736C234.328 64.4232 232.754 65.1039 231.212 65.8002L231.216 65.8041ZM356.007 63.085C354.425 62.451 352.811 61.8364 351.213 61.2529L351.58 60.2843C353.19 60.8678 354.816 61.4902 356.41 62.1281L356.007 63.0812V63.085ZM240.641 61.9025L240.263 60.9417C241.865 60.3388 243.499 59.7514 245.117 59.203L245.464 60.1754C243.858 60.72 242.236 61.3035 240.641 61.9025ZM346.351 59.5803C344.733 59.0513 343.087 58.5456 341.453 58.0671L341.755 57.0791C343.401 57.5575 345.059 58.071 346.685 58.6L346.351 59.5764V59.5803ZM250.338 58.6039L250.023 57.6198C251.665 57.1219 253.335 56.6434 254.985 56.2L255.264 57.1958C253.622 57.6353 251.964 58.1099 250.334 58.6078L250.338 58.6039ZM336.507 56.7134C334.857 56.2895 333.179 55.8888 331.517 55.5232L331.752 54.5157C333.426 54.8852 335.116 55.2898 336.774 55.7138L336.507 56.7096V56.7134ZM260.242 55.9394L259.995 54.9358C261.664 54.5429 263.362 54.1773 265.04 53.8388L265.251 54.8502C263.581 55.1847 261.896 55.5504 260.238 55.9394H260.242ZM326.491 54.4923C324.817 54.1773 323.116 53.8855 321.434 53.6249L321.601 52.6058C323.299 52.8664 325.013 53.162 326.695 53.4771L326.495 54.4884L326.491 54.4923ZM270.301 53.9244L270.122 52.9092C271.807 52.6291 273.529 52.3685 275.231 52.139L275.374 53.162C273.681 53.3876 271.975 53.6443 270.297 53.9244H270.301ZM316.348 52.9208C314.663 52.7147 312.945 52.5318 311.243 52.3801L311.339 51.3532C313.052 51.5049 314.782 51.6878 316.48 51.8978L316.348 52.9208ZM280.476 52.5591L280.368 51.5322C282.07 51.361 283.803 51.2132 285.517 51.0926L285.593 52.1195C283.891 52.2362 282.169 52.384 280.476 52.5552V52.5591ZM306.122 52.0028C304.42 51.9056 302.69 51.8317 300.989 51.7889L301.017 50.7581C302.73 50.8009 304.468 50.8748 306.182 50.972L306.118 52.0028H306.122ZM290.722 51.8472L290.682 50.8164C292.396 50.7542 294.138 50.7153 295.847 50.7036L295.855 51.7344C294.154 51.7461 292.428 51.7811 290.722 51.8433V51.8472Z" fill="#A4A6A9"/>
</g>
<path d="M298.665 388.954L298.653 387.709C300.714 387.69 302.794 387.635 304.838 387.554L304.89 388.799C302.834 388.884 300.737 388.935 298.665 388.954ZM292.432 388.915C290.491 388.872 288.534 388.799 286.609 388.701L286.677 387.46C288.59 387.558 290.535 387.632 292.46 387.674L292.432 388.919V388.915ZM310.709 388.472L310.617 387.231C312.534 387.095 314.475 386.928 316.384 386.737L316.516 387.974C314.595 388.168 312.642 388.336 310.713 388.472H310.709ZM280.794 388.312C278.726 388.145 276.638 387.939 274.589 387.705L274.737 386.469C276.769 386.702 278.846 386.904 280.898 387.071L280.79 388.312H280.794ZM322.705 387.25L322.534 386.017C324.574 385.745 326.635 385.434 328.655 385.099L328.871 386.325C326.838 386.663 324.766 386.974 322.709 387.25H322.705ZM268.412 386.9C266.491 386.62 264.558 386.305 262.665 385.967L262.892 384.741C264.773 385.076 266.694 385.387 268.603 385.667L268.412 386.896V386.9ZM334.594 385.286L334.343 384.068C336.224 383.699 338.125 383.29 339.998 382.863L340.289 384.072C338.404 384.504 336.487 384.913 334.598 385.286H334.594ZM256.946 384.866C254.921 384.442 252.877 383.979 250.872 383.493L251.179 382.287C253.172 382.773 255.2 383.228 257.213 383.652L256.946 384.87V384.866ZM346.331 382.583L346 381.381C347.989 380.855 349.993 380.295 351.95 379.708L352.325 380.898C350.352 381.489 348.335 382.054 346.335 382.583H346.331ZM244.846 381.925C242.985 381.408 241.108 380.855 239.266 380.284L239.653 379.097C241.482 379.665 243.347 380.214 245.193 380.727L244.842 381.925H244.846ZM357.868 379.152L357.458 377.973C359.275 377.37 361.109 376.728 362.906 376.071L363.352 377.234C361.539 377.899 359.694 378.541 357.865 379.148L357.868 379.152ZM233.727 378.471C231.778 377.798 229.805 377.082 227.864 376.343L228.326 375.184C230.251 375.919 232.212 376.627 234.149 377.296L233.727 378.471ZM369.155 375.005L368.669 373.854C370.566 373.087 372.471 372.282 374.336 371.458L374.862 372.589C372.985 373.418 371.064 374.231 369.159 375.001L369.155 375.005ZM222.081 374.029C220.304 373.282 218.51 372.5 216.753 371.699L217.291 370.571C219.036 371.368 220.818 372.146 222.583 372.889L222.081 374.033V374.029ZM380.119 370.174L379.557 369.057C381.279 368.233 383.009 367.373 384.702 366.498L385.3 367.599C383.594 368.478 381.853 369.345 380.119 370.174ZM211.5 369.205C209.647 368.291 207.79 367.338 205.972 366.366L206.586 365.277C208.391 366.241 210.237 367.19 212.078 368.097L211.504 369.205H211.5ZM390.748 364.67L390.115 363.588C391.9 362.593 393.685 361.554 395.427 360.508L396.097 361.566C394.343 362.62 392.542 363.666 390.748 364.67ZM200.544 363.355C198.878 362.394 197.204 361.394 195.566 360.383L196.248 359.333C197.874 360.336 199.536 361.332 201.19 362.285L200.54 363.355H200.544ZM401.003 358.516L400.301 357.477C401.899 356.45 403.506 355.381 405.076 354.299L405.809 355.315C404.227 356.404 402.609 357.481 401.003 358.516ZM190.688 357.263C188.974 356.128 187.257 354.953 185.579 353.766L186.328 352.759C187.994 353.938 189.7 355.108 191.401 356.233L190.688 357.263ZM410.843 351.732L410.074 350.74C411.708 349.538 413.35 348.286 414.952 347.021L415.753 347.99C414.139 349.262 412.489 350.522 410.843 351.732ZM180.593 350.102C179.063 348.943 177.536 347.741 176.046 346.539L176.859 345.582C178.337 346.776 179.856 347.967 181.374 349.122L180.593 350.102ZM420.228 344.349L419.399 343.404C420.854 342.186 422.309 340.926 423.728 339.658L424.588 340.576C423.158 341.852 421.691 343.12 420.228 344.349ZM171.614 342.844C170.068 341.513 168.513 340.132 167.003 338.748L167.876 337.841C169.378 339.218 170.916 340.591 172.455 341.91L171.614 342.844ZM429.116 336.402L428.227 335.511C429.694 334.111 431.164 332.668 432.587 331.221L433.508 332.08C432.073 333.539 430.598 334.994 429.12 336.402H429.116ZM162.531 334.504C161.172 333.17 159.809 331.793 158.486 330.412L159.414 329.56C160.73 330.933 162.081 332.298 163.432 333.625L162.527 334.504H162.531ZM437.473 327.918L436.529 327.086C437.812 325.697 439.095 324.266 440.343 322.834L441.315 323.639C440.06 325.083 438.769 326.526 437.477 327.922L437.473 327.918ZM154.568 326.203C153.205 324.69 151.842 323.134 150.527 321.574L151.511 320.784C152.819 322.332 154.17 323.881 155.525 325.382L154.568 326.203ZM445.269 318.929L444.268 318.155C445.544 316.583 446.815 314.969 448.043 313.355L449.067 314.094C447.831 315.72 446.556 317.346 445.269 318.925V318.929ZM146.645 316.817C145.466 315.319 144.294 313.786 143.162 312.262L144.194 311.534C145.314 313.051 146.478 314.572 147.654 316.058L146.645 316.817ZM452.466 309.473L451.422 308.761C452.518 307.224 453.602 305.645 454.654 304.066L455.723 304.743C454.662 306.33 453.566 307.921 452.466 309.469V309.473ZM139.826 307.609C138.666 305.937 137.519 304.225 136.423 302.521L137.503 301.856C138.595 303.548 139.734 305.248 140.886 306.909L139.83 307.605L139.826 307.609ZM459.038 299.585L457.946 298.943C459.01 297.227 460.059 295.465 461.067 293.711L462.179 294.318C461.167 296.084 460.106 297.857 459.038 299.585ZM133.186 297.328C132.21 295.702 131.25 294.042 130.325 292.384L131.445 291.789C132.361 293.431 133.318 295.084 134.286 296.698L133.186 297.328ZM464.953 289.304L463.821 288.728C464.706 287.067 465.582 285.363 466.419 283.667L467.567 284.208C466.722 285.916 465.845 287.631 464.953 289.304ZM127.623 287.363C126.69 285.565 125.778 283.726 124.909 281.901L126.064 281.376C126.929 283.189 127.834 285.013 128.759 286.802L127.623 287.363ZM470.186 278.673L469.018 278.171C469.851 276.327 470.664 274.448 471.429 272.589L472.613 273.052C471.84 274.923 471.023 276.813 470.186 278.673ZM122.382 276.358C121.629 274.623 120.891 272.857 120.194 271.107L121.382 270.656C122.075 272.394 122.804 274.149 123.558 275.872L122.386 276.358H122.382ZM474.709 267.73L473.513 267.303C474.179 265.533 474.821 263.736 475.426 261.95L476.638 262.343C476.028 264.136 475.379 265.949 474.713 267.73H474.709ZM118.161 265.778C117.472 263.872 116.802 261.931 116.181 260.009L117.396 259.632C118.018 261.542 118.68 263.471 119.365 265.362L118.165 265.778H118.161ZM478.499 256.535L477.276 256.181C477.858 254.256 478.416 252.295 478.93 250.358L480.165 250.67C479.647 252.622 479.085 254.594 478.499 256.535ZM114.395 254.174C113.873 252.354 113.371 250.506 112.909 248.674L114.144 248.375C114.606 250.191 115.105 252.031 115.623 253.836L114.395 254.174ZM481.544 245.142L480.301 244.866C480.723 243.045 481.126 241.182 481.492 239.338L482.744 239.576C482.373 241.435 481.97 243.306 481.544 245.142ZM111.593 243.135C111.159 241.163 110.753 239.156 110.382 237.164L111.637 236.942C112.004 238.918 112.406 240.914 112.837 242.87L111.589 243.131L111.593 243.135ZM483.832 233.585L482.572 233.387C482.899 231.403 483.194 229.388 483.453 227.404L484.716 227.56C484.457 229.559 484.158 231.586 483.832 233.581V233.585ZM109.374 231.158C109.095 229.291 108.84 227.393 108.616 225.518L109.884 225.374C110.103 227.237 110.358 229.12 110.637 230.975L109.378 231.154L109.374 231.158ZM485.358 221.908L484.091 221.791C484.274 219.932 484.43 218.037 484.553 216.159L485.824 216.24C485.697 218.131 485.541 220.037 485.358 221.908ZM108.034 219.858C107.859 217.847 107.72 215.805 107.612 213.786L108.883 213.72C108.991 215.723 109.13 217.754 109.306 219.749L108.034 219.854V219.858ZM486.127 210.161L484.852 210.122C484.92 208.122 484.952 206.092 484.952 204.077H486.227C486.227 206.103 486.195 208.149 486.127 210.161ZM107.393 207.706C107.369 206.508 107.357 205.287 107.357 204.077C107.357 203.388 107.357 202.704 107.369 202.019L108.644 202.035C108.636 202.715 108.632 203.396 108.632 204.081C108.632 205.283 108.644 206.496 108.668 207.687L107.393 207.71V207.706ZM484.944 202.136C484.92 200.121 484.868 198.09 484.78 196.099L486.056 196.044C486.143 198.047 486.199 200.094 486.219 202.12L484.944 202.132V202.136ZM108.792 196.387L107.516 196.336C107.6 194.317 107.724 192.275 107.875 190.26L109.146 190.353C108.995 192.353 108.875 194.383 108.792 196.387ZM484.445 190.462C484.306 188.595 484.135 186.701 483.935 184.834L485.203 184.705C485.402 186.584 485.577 188.49 485.717 190.369L484.445 190.458V190.462ZM109.704 184.336L108.437 184.203C108.644 182.329 108.879 180.426 109.146 178.559L110.41 178.73C110.147 180.586 109.912 182.472 109.704 184.34V184.336ZM483.19 178.835C482.911 176.844 482.592 174.837 482.245 172.861L483.501 172.651C483.852 174.638 484.17 176.661 484.453 178.664L483.19 178.835ZM111.287 173.145L110.031 172.935C110.378 170.943 110.764 168.928 111.175 166.952L112.422 167.201C112.012 169.161 111.629 171.161 111.287 173.141V173.145ZM481.177 167.31C480.795 165.474 480.376 163.614 479.938 161.79L481.177 161.506C481.62 163.342 482.042 165.213 482.425 167.061L481.177 167.31ZM113.758 161.3L112.518 161.012C112.968 159.172 113.451 157.321 113.957 155.5L115.188 155.827C114.686 157.632 114.204 159.476 113.758 161.3ZM478.415 155.932C477.877 153.995 477.3 152.038 476.698 150.124L477.917 149.759C478.523 151.688 479.105 153.652 479.647 155.605L478.415 155.932ZM116.79 150.397L115.571 150.035C116.177 148.098 116.822 146.145 117.496 144.227L118.703 144.628C118.038 146.534 117.392 148.475 116.79 150.397ZM474.912 144.749C474.291 142.971 473.633 141.182 472.959 139.431L474.151 138.992C474.829 140.754 475.494 142.555 476.12 144.344L474.912 144.745V144.749ZM120.808 138.922L119.616 138.482C120.306 136.712 121.031 134.931 121.776 133.184L122.952 133.662C122.215 135.397 121.493 137.171 120.808 138.925V138.922ZM470.68 133.806C469.895 131.959 469.07 130.099 468.221 128.279L469.381 127.765C470.233 129.598 471.066 131.473 471.856 133.332L470.68 133.806ZM125.259 128.462L124.1 127.948C124.957 126.104 125.853 124.249 126.77 122.432L127.914 122.981C127.005 124.782 126.112 126.626 125.263 128.458L125.259 128.462ZM465.758 123.187C464.909 121.507 464.028 119.818 463.131 118.169L464.259 117.586C465.16 119.247 466.049 120.947 466.902 122.639L465.758 123.187ZM130.747 117.601L129.623 117.014C130.536 115.345 131.493 113.669 132.457 112.031L133.561 112.649C132.605 114.275 131.656 115.94 130.747 117.597V117.601ZM460.146 112.887C459.13 111.156 458.066 109.409 456.986 107.702L458.07 107.048C459.158 108.767 460.23 110.526 461.254 112.268L460.146 112.887ZM136.526 107.791L135.442 107.138C136.53 105.414 137.662 103.691 138.806 102.007L139.866 102.695C138.73 104.368 137.606 106.083 136.522 107.795L136.526 107.791ZM453.873 102.948C452.817 101.388 451.721 99.8207 450.613 98.2881L451.653 97.5724C452.769 99.1127 453.873 100.692 454.937 102.264L453.873 102.948ZM143.381 97.7085L142.341 96.9889C143.461 95.4524 144.625 93.9081 145.796 92.4027L146.813 93.1535C145.649 94.6511 144.493 96.1837 143.381 97.7085ZM446.963 93.4141C445.727 91.8193 444.444 90.2166 443.149 88.6568L444.141 87.8749C445.444 89.4464 446.735 91.0568 447.979 92.6634L446.963 93.4141ZM150.384 88.6996L149.391 87.9177C150.69 86.3501 152.037 84.7786 153.393 83.246L154.357 84.059C153.01 85.5799 151.675 87.1398 150.384 88.6996ZM439.442 84.3196C438.187 82.8959 436.895 81.4761 435.6 80.0952L436.541 79.255C437.844 80.6437 439.143 82.0752 440.407 83.5066L439.442 84.3196ZM158.482 79.5506L157.545 78.7065C158.861 77.3179 160.212 75.9331 161.563 74.5872L162.471 75.4585C161.128 76.7927 159.785 78.1697 158.482 79.5506ZM431.344 75.7074C429.909 74.2721 428.426 72.8445 426.944 71.4558L427.825 70.5573C429.319 71.9537 430.81 73.3969 432.256 74.84L431.344 75.7113V75.7074ZM166.588 71.487L165.707 70.5884C167.198 69.1919 168.736 67.7994 170.279 66.4496L171.132 67.3754C169.601 68.7174 168.075 70.0983 166.592 71.487H166.588ZM422.703 67.6088C421.273 66.3523 419.806 65.0998 418.343 63.8901L419.168 62.9409C420.639 64.1585 422.117 65.4188 423.556 66.683L422.703 67.6088ZM175.799 63.4155L174.978 62.4625C176.456 61.2488 177.975 60.043 179.493 58.8721L180.282 59.8485C178.776 61.0077 177.265 62.2096 175.799 63.4155ZM413.549 60.0585C411.935 58.8099 410.281 57.5729 408.631 56.3787L409.388 55.379C411.05 56.581 412.716 57.8258 414.342 59.0822L413.549 60.0585ZM184.877 56.4215L184.12 55.4218C185.782 54.2199 187.488 53.0296 189.186 51.882L189.911 52.9051C188.225 54.0409 186.531 55.2234 184.881 56.4176L184.877 56.4215ZM403.924 53.0879C402.346 52.0182 400.728 50.9563 399.114 49.9371L399.807 48.8946C401.429 49.9254 403.059 50.9913 404.649 52.0688L403.924 53.0918V53.0879ZM195.052 49.5598L194.363 48.5134C195.985 47.4943 197.647 46.4829 199.301 45.5143L199.958 46.5802C198.316 47.5449 196.662 48.5484 195.052 49.5598ZM393.857 46.7241C392.095 45.6855 390.29 44.6625 388.496 43.6822L389.118 42.5969C390.928 43.585 392.745 44.6158 394.518 45.6583L393.861 46.7241H393.857ZM204.956 43.7483L204.334 42.6631C206.136 41.6789 207.977 40.7104 209.81 39.7846L210.396 40.8893C208.575 41.8112 206.745 42.772 204.956 43.7483ZM383.391 40.9982C381.685 40.1347 379.94 39.2828 378.202 38.4659L378.752 37.3456C380.502 38.1664 382.259 39.0222 383.977 39.8935L383.391 40.9982ZM215.928 38.2053L215.378 37.0811C217.119 36.272 218.897 35.4785 220.662 34.72L221.177 35.8597C219.423 36.6105 217.657 37.4001 215.928 38.2053ZM372.567 35.9336C370.682 35.1245 368.757 34.331 366.844 33.5841L367.318 32.4289C369.243 33.1835 371.18 33.977 373.081 34.7939L372.567 35.9336ZM226.493 33.6736L226.015 32.5183C227.932 31.7637 229.893 31.0285 231.838 30.3361L232.276 31.5031C230.343 32.1916 228.398 32.919 226.493 33.6697V33.6736ZM361.423 31.5536C359.614 30.9079 357.769 30.2816 355.94 29.6904L356.338 28.5079C358.179 29.103 360.037 29.7332 361.858 30.3828L361.419 31.5497L361.423 31.5536ZM238.127 29.5309L237.728 28.3484C239.565 27.761 241.438 27.1931 243.292 26.6602L243.65 27.8544C241.809 28.3834 239.948 28.9474 238.123 29.5309H238.127ZM350.029 27.8894C348.056 27.3215 346.052 26.7808 344.059 26.279L344.378 25.0731C346.382 25.5788 348.403 26.1234 350.388 26.6952L350.029 27.8894ZM249.23 26.349L248.907 25.147C250.908 24.6375 252.948 24.1551 254.965 23.7117L255.244 24.9253C253.239 25.3649 251.215 25.8472 249.226 26.3529L249.23 26.349ZM338.436 24.9486C336.562 24.5363 334.657 24.1473 332.772 23.7895L333.015 22.5681C334.916 22.9259 336.833 23.3188 338.719 23.735L338.436 24.9486ZM261.314 23.6922L261.075 22.4708C262.976 22.1168 264.905 21.7862 266.814 21.4906L267.013 22.7198C265.116 23.0154 263.199 23.3421 261.31 23.6922H261.314ZM326.675 22.7392C324.646 22.4241 322.586 22.1363 320.545 21.8834L320.704 20.6503C322.757 20.9032 324.833 21.191 326.878 21.51L326.679 22.7392H326.675ZM272.744 21.9184L272.584 20.6854C274.637 20.4286 276.721 20.203 278.782 20.0163L278.901 21.2533C276.857 21.44 274.784 21.6656 272.748 21.9184H272.744ZM314.79 21.2649C312.881 21.0899 310.94 20.9382 309.019 20.8176L309.103 19.5767C311.036 19.6973 312.993 19.849 314.91 20.028L314.79 21.2649ZM285.071 20.7865L284.991 19.5456C286.916 19.4289 288.873 19.3434 290.814 19.285L290.854 20.5298C288.929 20.5881 286.984 20.6776 285.071 20.7904V20.7865ZM302.834 20.5298C300.829 20.4675 298.793 20.4364 296.784 20.4364H296.64V19.1917H296.784C298.805 19.1917 300.857 19.2228 302.874 19.285L302.834 20.5298Z" fill="#A4A6A9"/>
<path d="M490.835 216.713C491.272 214.086 489.444 211.61 486.752 211.184C484.06 210.757 481.524 212.541 481.087 215.169C480.65 217.796 482.478 220.272 485.17 220.698C487.861 221.125 490.398 219.341 490.835 216.713Z" fill="#273F5E"/>
<g opacity="0.1">
<path d="M505.865 216.015C505.913 205.28 497.035 196.539 486.037 196.493C475.038 196.446 466.083 205.11 466.035 215.845C465.987 226.58 474.864 235.321 485.863 235.368C496.862 235.414 505.817 226.75 505.865 216.015Z" fill="#273F5E"/>
</g>
<path d="M436.565 124.074C436.565 126.735 434.353 128.894 431.627 128.894C428.901 128.894 426.689 126.735 426.689 124.074C426.689 121.414 428.901 119.255 431.627 119.255C434.353 119.255 436.565 121.414 436.565 124.074Z" fill="#273F5E"/>
<g opacity="0.1">
<path d="M446.337 125.846C447.337 117.922 441.566 110.708 433.448 109.733C425.33 108.757 417.939 114.389 416.94 122.313C415.94 130.236 421.71 137.45 429.828 138.426C437.946 139.401 445.337 133.769 446.337 125.846Z" fill="#273F5E"/>
</g>
<path d="M387.476 369.299C390.203 369.299 392.414 367.141 392.414 364.479C392.414 361.817 390.203 359.66 387.476 359.66C384.749 359.66 382.538 361.817 382.538 364.479C382.538 367.141 384.749 369.299 387.476 369.299Z" fill="#273F5E"/>
<g opacity="0.1">
<path d="M420.628 369.232C423.315 351.362 410.652 334.75 392.343 332.127C374.035 329.504 357.015 341.864 354.328 359.734C351.64 377.603 364.304 394.215 382.612 396.838C400.921 399.461 417.941 387.101 420.628 369.232Z" fill="#273F5E"/>
</g>
<path d="M232.024 343.723C232.461 341.096 230.633 338.62 227.941 338.194C225.249 337.767 222.713 339.551 222.276 342.179C221.839 344.806 223.667 347.282 226.359 347.708C229.051 348.135 231.587 346.351 232.024 343.723Z" fill="#273F5E"/>
<g opacity="0.1">
<path d="M241.953 342.933C241.953 350.919 235.321 357.388 227.143 357.388C218.965 357.388 212.333 350.915 212.333 342.933C212.333 334.951 218.965 328.479 227.143 328.479C235.321 328.479 241.953 334.951 241.953 342.933Z" fill="#273F5E"/>
</g>
<path d="M163.532 329.327C163.532 331.987 161.32 334.146 158.594 334.146C155.868 334.146 153.656 331.987 153.656 329.327C153.656 326.666 155.868 324.507 158.594 324.507C161.32 324.507 163.532 326.666 163.532 329.327Z" fill="#273F5E"/>
<g opacity="0.1">
<path d="M170.936 329.327C170.936 335.978 165.413 341.374 158.594 341.374C151.775 341.374 146.251 335.982 146.251 329.327C146.251 322.671 151.775 317.28 158.594 317.28C165.413 317.28 170.936 322.671 170.936 329.327Z" fill="#273F5E"/>
</g>
<path d="M127.11 135.81C127.335 133.157 125.314 130.829 122.596 130.609C119.878 130.39 117.492 132.362 117.268 135.015C117.043 137.667 119.064 139.996 121.781 140.215C124.499 140.435 126.885 138.462 127.11 135.81Z" fill="#273F5E"/>
<g opacity="0.1">
<path d="M151.822 135.417C151.822 151.393 138.555 164.338 122.191 164.338C105.827 164.338 92.5591 151.389 92.5591 135.417C92.5591 119.445 105.827 106.492 122.191 106.492C138.555 106.492 151.822 119.441 151.822 135.417Z" fill="#273F5E"/>
</g>
<path d="M246.753 61.6761C247.38 59.0855 245.736 56.4898 243.082 55.8784C240.427 55.2669 237.768 56.8713 237.141 59.4619C236.515 62.0525 238.159 64.6483 240.813 65.2597C243.467 65.8711 246.127 64.2667 246.753 61.6761Z" fill="#273F5E"/>
<g opacity="0.1">
<path d="M254.299 60.5721C254.299 67.2237 248.776 72.6189 241.957 72.6189C235.138 72.6189 229.614 67.2276 229.614 60.5721C229.614 53.9165 235.138 48.5251 241.957 48.5251C248.776 48.5251 254.299 53.9165 254.299 60.5721Z" fill="#273F5E"/>
</g>
<path d="M308.86 18.2348C308.86 20.8955 306.648 23.0544 303.922 23.0544C301.196 23.0544 298.984 20.8955 298.984 18.2348C298.984 15.5742 301.196 13.4153 303.922 13.4153C306.648 13.4153 308.86 15.5742 308.86 18.2348Z" fill="#273F5E"/>
<g opacity="0.1">
<path d="M304.582 36.3174C314.806 35.9619 322.799 27.5842 322.435 17.6051C322.071 7.62613 313.487 -0.17532 303.263 0.180131C293.039 0.535581 285.046 8.91333 285.41 18.8923C285.774 28.8714 294.358 36.6728 304.582 36.3174Z" fill="#273F5E"/>
</g>
<path d="M296.003 332.835C223.01 332.835 163.838 275.086 163.838 203.844C163.838 132.601 223.01 74.8519 296.003 74.8519C306.413 74.8519 316.544 76.0305 326.26 78.2555L328.293 69.4216C318.544 67.3444 306.389 65.8818 296.003 65.8818C217.933 65.8818 154.644 127.649 154.644 203.847C154.644 280.046 217.933 341.813 296.003 341.813C325.411 341.813 350.982 334.181 373.603 319.182L368.709 311.573C347.849 325.009 322.865 332.839 296.003 332.839V332.835Z" fill="#C8D9E9"/>
<path d="M264.347 118.928L255.077 94.0562C228.502 103.493 206.323 121.865 192.346 145.445L215.848 158.686C226.661 140.447 243.794 126.229 264.347 118.928Z" fill="#B0CEE8"/>
<path d="M388.556 203.844C388.556 209.2 388.054 214.443 387.138 219.543L413.864 224.145C415.047 217.551 415.669 210.768 415.669 203.844C415.669 182.57 409.839 162.623 399.656 145.445L376.15 158.686C384.025 171.974 388.556 187.389 388.556 203.844Z" fill="#3A5575"/>
<path d="M336.925 94.0523C324.156 89.5167 310.374 87.0427 295.999 87.0427C281.624 87.0427 267.842 89.5206 255.073 94.0561L264.343 118.928C274.219 115.419 284.88 113.505 295.995 113.505C307.11 113.505 317.771 115.423 327.647 118.928C348.2 126.229 365.337 140.447 376.146 158.686L399.652 145.445C385.675 121.865 363.496 103.493 336.917 94.0561L336.925 94.0523Z" fill="#2F465F"/>
<path d="M203.442 203.844C203.442 187.386 207.969 171.974 215.848 158.686L192.346 145.445C182.163 162.627 176.333 182.57 176.333 203.844C176.333 210.768 176.954 217.551 178.138 224.145L204.864 219.543C203.952 214.44 203.446 209.2 203.446 203.844H203.442Z" fill="#769ECD"/>
<path d="M387.138 219.543C383.3 240.899 371.794 259.675 355.473 273.048C339.388 286.231 318.648 294.182 295.999 294.182C273.35 294.182 252.614 286.231 236.529 273.048C220.204 259.675 208.698 240.899 204.86 219.543L178.134 224.145C183.096 251.763 197.994 276.032 219.096 293.326C239.892 310.371 266.714 320.641 295.995 320.641C325.276 320.641 352.098 310.371 372.894 293.326C394 276.032 408.898 251.759 413.856 224.145L387.13 219.543H387.138Z" fill="#2A476B"/>
<path d="M264.347 118.928C243.794 126.229 226.657 140.447 215.848 158.686L296.003 203.844L264.351 118.928H264.347Z" fill="#90B0CF"/>
<path d="M387.138 219.543C388.054 214.44 388.556 209.2 388.556 203.844C388.556 187.386 384.029 171.974 376.15 158.686L295.995 203.844L387.134 219.543H387.138Z" fill="#273F5E"/>
<path d="M327.651 118.928C317.775 115.419 307.118 113.505 295.999 113.505C284.88 113.505 274.223 115.423 264.347 118.928L295.999 203.844L376.154 158.686C365.341 140.447 348.208 126.229 327.655 118.928H327.651Z" fill="#1A2B3F"/>
<path d="M215.844 158.686C207.969 171.974 203.438 187.39 203.438 203.844C203.438 209.2 203.944 214.444 204.856 219.543L295.995 203.844L215.84 158.686H215.844Z" fill="#6387B3"/>
<path d="M295.999 203.844L204.86 219.543C208.698 240.898 220.204 259.675 236.529 273.048C252.614 286.231 273.354 294.182 295.999 294.182C318.644 294.182 339.388 286.231 355.473 273.048C371.798 259.675 383.3 240.898 387.138 219.543L295.999 203.844Z" fill="#315480"/>
<path d="M351.38 203.844C351.38 233.698 326.583 257.897 295.999 257.897C265.415 257.897 240.618 233.698 240.618 203.844C240.618 173.989 265.415 149.79 295.999 149.79C326.583 149.79 351.38 173.989 351.38 203.844Z" fill="white"/>
<path d="M339.803 85.8213L338.615 85.4012L344.199 70.2463L345.386 70.6626L339.803 85.8213Z" fill="#808082"/>
<path d="M343.37 87.1439L342.194 86.6927L348.24 71.7012L349.416 72.1524L343.37 87.1439Z" fill="#808082"/>
<path d="M346.885 88.5638L345.721 88.0775L352.221 73.2727L353.385 73.7589L346.885 88.5638Z" fill="#808082"/>
<path d="M350.368 90.0925L349.224 89.5752L356.171 74.9648L357.319 75.4822L350.372 90.0925H350.368Z" fill="#808082"/>
<path d="M353.8 91.7221L352.672 91.1698L360.061 76.7656L361.192 77.318L353.804 91.7221H353.8Z" fill="#808082"/>
<path d="M357.175 93.4454L356.063 92.8619L363.887 78.6794L364.999 79.2629L357.175 93.4454Z" fill="#808082"/>
<path d="M360.487 95.2582L359.395 94.6436L367.645 80.6907L368.737 81.3092L360.487 95.2621V95.2582Z" fill="#808082"/>
<path d="M363.763 97.1798L362.691 96.5341L371.359 82.8301L372.435 83.4758L363.763 97.1798Z" fill="#808082"/>
<path d="M366.975 99.1946L365.923 98.5178L375.006 85.0667L376.062 85.7435L366.979 99.1946H366.975Z" fill="#808082"/>
<path d="M370.124 101.295L369.092 100.587L378.577 87.4045L379.609 88.1125L370.124 101.291V101.295Z" fill="#808082"/>
<path d="M373.208 103.485L372.196 102.746L382.076 89.8435L383.088 90.5787L373.208 103.481V103.485Z" fill="#808082"/>
<path d="M376.217 105.769L375.229 105.002L385.495 92.3875L386.484 93.1538L376.221 105.769H376.217Z" fill="#808082"/>
<path d="M379.159 108.13L378.194 107.336L388.835 95.0208L389.8 95.8143L379.159 108.13Z" fill="#808082"/>
<path d="M382.024 110.576L381.084 109.756L392.091 97.7515L393.032 98.5722L382.024 110.576Z" fill="#808082"/>
<path d="M384.818 113.101L383.901 112.253L395.264 100.572L396.18 101.42L384.818 113.101Z" fill="#808082"/>
<path d="M387.536 115.707L386.647 114.832L398.36 103.481L399.249 104.356L387.536 115.703V115.707Z" fill="#808082"/>
<path d="M390.17 118.391L389.31 117.493L401.358 106.484L402.218 107.383L390.17 118.391Z" fill="#808082"/>
<path d="M392.721 121.153L391.884 120.227L404.263 109.573L405.096 110.495L392.721 121.153Z" fill="#808082"/>
<path d="M395.192 123.985L394.387 123.036L407.081 112.743L407.89 113.692L395.192 123.985Z" fill="#808082"/>
<path d="M397.583 126.89L396.806 125.922L409.807 115.999L410.584 116.971L397.583 126.894V126.89Z" fill="#808082"/>
<path d="M399.883 129.87L399.134 128.878L412.433 119.336L413.182 120.328L399.883 129.87Z" fill="#808082"/>
<path d="M402.079 132.896L401.361 131.881L414.94 122.724L415.657 123.74L402.079 132.896Z" fill="#808082"/>
<path d="M404.187 135.989L403.502 134.954L417.351 126.198L418.04 127.233L404.191 135.993L404.187 135.989Z" fill="#808082"/>
<path d="M406.208 139.147L405.55 138.093L419.659 129.742L420.316 130.792L406.208 139.147Z" fill="#808082"/>
<path d="M408.125 142.368L407.503 141.295L421.863 133.355L422.484 134.429L408.125 142.368Z" fill="#808082"/>
<path d="M409.942 145.628L409.352 144.539L423.947 137.016L424.537 138.105L409.942 145.624V145.628Z" fill="#808082"/>
<path d="M411.66 148.946L411.102 147.837L425.92 140.746L426.478 141.855L411.66 148.946Z" fill="#808082"/>
<path d="M413.282 152.322L412.76 151.202L427.789 144.543L428.311 145.667L413.282 152.322Z" fill="#808082"/>
<path d="M414.792 155.734L414.306 154.598L429.53 148.382L430.017 149.518L414.788 155.734H414.792Z" fill="#808082"/>
<path d="M416.203 159.196L415.753 158.044L431.16 152.276L431.615 153.423L416.203 159.192V159.196Z" fill="#808082"/>
<path d="M417.502 162.685L417.088 161.522L432.667 156.205L433.081 157.368L417.502 162.685Z" fill="#808082"/>
<path d="M418.694 166.225L418.315 165.05L434.05 160.192L434.432 161.366L418.694 166.229V166.225Z" fill="#808082"/>
<path d="M419.774 169.765L419.427 168.578L435.301 164.175L435.648 165.361L419.774 169.768V169.765Z" fill="#808082"/>
<path d="M420.754 173.37L420.448 172.176L436.449 168.236L436.756 169.43L420.75 173.367L420.754 173.37Z" fill="#808082"/>
<path d="M421.619 177L421.348 175.798L437.465 172.328L437.736 173.53L421.619 177Z" fill="#808082"/>
<path d="M422.377 180.645L422.141 179.435L438.354 176.432L438.589 177.642L422.377 180.645Z" fill="#808082"/>
<path d="M423.018 184.305L422.819 183.087L439.119 180.555L439.319 181.772L423.018 184.305Z" fill="#808082"/>
<path d="M423.552 188L423.393 186.779L439.761 184.717L439.92 185.939L423.552 188Z" fill="#808082"/>
<path d="M423.975 191.684L423.851 190.459L440.275 188.868L440.399 190.093L423.975 191.684Z" fill="#808082"/>
<path d="M424.286 195.399L424.198 194.166L440.662 193.042L440.749 194.271L424.286 195.395V195.399Z" fill="#808082"/>
<path d="M424.481 199.094L424.437 197.861L440.933 197.305L440.977 198.538L424.481 199.094Z" fill="#808082"/>
<path d="M424.577 202.829L424.561 201.595L441.064 201.409L441.076 202.642L424.573 202.829H424.577Z" fill="#808082"/>
<path d="M424.553 206.567L424.577 205.333L441.08 205.621L441.056 206.854L424.557 206.57L424.553 206.567Z" fill="#808082"/>
<path d="M424.417 210.278L424.477 209.044L440.965 209.807L440.905 211.036L424.417 210.278Z" fill="#808082"/>
<path d="M424.17 213.988L424.27 212.763L440.725 214L440.626 215.229L424.17 213.992V213.988Z" fill="#808082"/>
<path d="M423.811 217.696L423.947 216.47L440.359 218.186L440.223 219.411L423.811 217.699V217.696Z" fill="#808082"/>
<path d="M423.341 221.371L423.512 220.15L439.861 222.34L439.689 223.561L423.337 221.371H423.341Z" fill="#808082"/>
<path d="M422.755 225.067L422.962 223.849L439.239 226.514L439.032 227.731L422.755 225.067Z" fill="#808082"/>
<path d="M422.058 228.723L422.305 227.513L438.494 230.653L438.247 231.858L422.058 228.723Z" fill="#808082"/>
<path d="M421.253 232.348L421.536 231.146L437.621 234.752L437.338 235.954L421.253 232.352V232.348Z" fill="#808082"/>
<path d="M420.324 235.978L420.643 234.784L436.613 238.86L436.294 240.054L420.324 235.978Z" fill="#808082"/>
<path d="M419.3 239.545L419.654 238.362L435.493 242.902L435.138 244.08L419.304 239.545H419.3Z" fill="#808082"/>
<path d="M418.164 243.096L418.555 241.921L434.245 246.92L433.855 248.091L418.164 243.096Z" fill="#808082"/>
<path d="M416.921 246.597L417.351 245.438L432.882 250.888L432.456 252.047L416.925 246.597H416.921Z" fill="#808082"/>
<path d="M415.566 250.079L416.028 248.931L431.388 254.832L430.925 255.98L415.566 250.079Z" fill="#808082"/>
<path d="M414.111 253.509L414.609 252.374L429.778 258.718L429.279 259.85L414.111 253.509Z" fill="#808082"/>
<path d="M412.545 256.909L413.075 255.789L428.044 262.569L427.514 263.689L412.545 256.909Z" fill="#808082"/>
<path d="M410.879 260.258L411.445 259.154L426.203 266.365L425.637 267.466L410.883 260.254L410.879 260.258Z" fill="#808082"/>
<path d="M409.113 263.549L409.711 262.464L424.246 270.104L423.648 271.185L409.117 263.549H409.113Z" fill="#808082"/>
<path d="M407.252 266.786L407.882 265.72L422.177 273.772L421.544 274.838L407.252 266.786Z" fill="#808082"/>
<path d="M405.283 269.983L405.949 268.937L419.989 277.401L419.328 278.447L405.283 269.983Z" fill="#808082"/>
<path d="M403.223 273.118L403.916 272.091L417.698 280.956L417.004 281.983L403.223 273.118Z" fill="#808082"/>
<path d="M401.067 276.191L401.792 275.184L415.298 284.441L414.573 285.449L401.071 276.191H401.067Z" fill="#808082"/>
<path d="M398.823 279.202L399.58 278.214L412.8 287.853L412.042 288.845L398.823 279.202Z" fill="#808082"/>
<path d="M396.487 282.139L397.272 281.174L410.197 291.19L409.412 292.155L396.487 282.139Z" fill="#808082"/>
<path d="M394.064 285.006L394.877 284.06L407.491 294.446L406.678 295.388L394.06 285.002L394.064 285.006Z" fill="#808082"/>
<path d="M391.561 287.806L392.402 286.888L404.701 297.632L403.856 298.55L391.557 287.806H391.561Z" fill="#808082"/>
<path d="M388.971 290.529L389.84 289.635L401.808 300.725L400.939 301.619L388.971 290.529Z" fill="#808082"/>
<path d="M386.305 293.182L387.197 292.315L398.827 303.747L397.93 304.614L386.305 293.182Z" fill="#808082"/>
<path d="M383.551 295.753L384.471 294.913L395.75 306.672L394.829 307.512L383.551 295.753Z" fill="#808082"/>
<path d="M380.721 298.247L381.669 297.43L392.586 309.512L391.637 310.325L380.721 298.247Z" fill="#808082"/>
<path d="M377.82 300.658L378.792 299.873L402.039 326.491L401.067 327.281L377.82 300.662V300.658Z" fill="#808082"/>
<path d="M368.709 311.569C347.849 325.005 322.865 332.835 296.003 332.835C223.01 332.835 163.838 275.086 163.838 203.844C163.838 179.979 170.486 157.636 182.06 138.463C182.06 138.463 174.731 132.924 174.424 133.429C161.862 154.042 154.648 178.116 154.648 203.844C154.648 280.046 217.937 341.809 296.007 341.809C325.415 341.809 350.986 334.177 373.607 319.178L368.713 311.569H368.709Z" fill="#395A84"/>
<path d="M294.907 275.425H294.166V276.806H292.902V275.425H290.304V274.324L292.719 270.434H294.17V274.441H294.911V275.425H294.907ZM292.902 274.441V271.679L291.264 274.441H292.902Z" fill="white"/>
<path d="M295.712 274.052C295.879 273.76 296.122 273.542 296.441 273.394C296.122 273.188 295.915 272.966 295.82 272.725C295.724 272.484 295.676 272.258 295.676 272.052C295.676 271.585 295.855 271.189 296.218 270.862C296.577 270.535 297.087 270.368 297.744 270.368C298.402 270.368 298.908 270.531 299.271 270.862C299.634 271.193 299.813 271.589 299.813 272.052C299.813 272.262 299.765 272.484 299.669 272.725C299.574 272.966 299.367 273.173 299.052 273.351C299.379 273.527 299.622 273.764 299.785 274.056C299.948 274.347 300.032 274.674 300.032 275.032C300.032 275.573 299.829 276.032 299.418 276.409C299.008 276.786 298.438 276.977 297.701 276.977C296.963 276.977 296.409 276.786 296.031 276.409C295.652 276.032 295.465 275.573 295.465 275.032C295.465 274.674 295.549 274.347 295.716 274.056L295.712 274.052ZM297.055 275.678C297.222 275.853 297.454 275.938 297.752 275.938C298.051 275.938 298.279 275.853 298.446 275.678C298.613 275.503 298.697 275.261 298.697 274.942C298.697 274.623 298.613 274.367 298.442 274.199C298.271 274.028 298.039 273.947 297.752 273.947C297.466 273.947 297.234 274.032 297.063 274.199C296.892 274.367 296.808 274.616 296.808 274.942C296.808 275.269 296.892 275.503 297.059 275.678H297.055ZM297.139 272.76C297.286 272.908 297.489 272.982 297.748 272.982C298.008 272.982 298.215 272.908 298.358 272.76C298.502 272.612 298.573 272.422 298.573 272.188C298.573 271.936 298.502 271.737 298.358 271.593C298.215 271.449 298.012 271.379 297.748 271.379C297.485 271.379 297.286 271.449 297.139 271.593C296.991 271.737 296.92 271.936 296.92 272.188C296.92 272.422 296.991 272.612 297.139 272.76Z" fill="white"/>
<path d="M303.464 273.235C303.137 273.558 302.738 273.717 302.268 273.717C301.798 273.717 301.407 273.558 301.076 273.235C300.746 272.912 300.582 272.527 300.582 272.072C300.582 271.616 300.746 271.231 301.076 270.908C301.407 270.586 301.802 270.426 302.268 270.426C302.734 270.426 303.129 270.586 303.46 270.908C303.79 271.227 303.954 271.616 303.954 272.072C303.954 272.527 303.79 272.912 303.464 273.235ZM302.778 272.569C302.918 272.433 302.989 272.266 302.989 272.072C302.989 271.877 302.918 271.71 302.778 271.574C302.639 271.438 302.467 271.367 302.268 271.367C302.069 271.367 301.897 271.438 301.758 271.574C301.618 271.71 301.547 271.877 301.547 272.072C301.547 272.266 301.618 272.433 301.758 272.569C301.897 272.706 302.069 272.776 302.268 272.776C302.467 272.776 302.639 272.706 302.778 272.569ZM305.951 270.399H306.636L302.977 276.977H302.276L305.947 270.399H305.951ZM307.864 276.455C307.533 276.774 307.138 276.938 306.672 276.938C306.206 276.938 305.811 276.778 305.48 276.455C305.149 276.133 304.986 275.747 304.986 275.292C304.986 274.837 305.149 274.448 305.48 274.129C305.807 273.81 306.206 273.651 306.672 273.651C307.138 273.651 307.533 273.81 307.864 274.133C308.194 274.456 308.358 274.841 308.358 275.296C308.358 275.751 308.194 276.136 307.864 276.459V276.455ZM307.182 274.794C307.043 274.658 306.871 274.588 306.672 274.588C306.473 274.588 306.301 274.658 306.162 274.794C306.022 274.931 305.951 275.098 305.951 275.292C305.951 275.487 306.022 275.654 306.162 275.79C306.301 275.926 306.473 275.996 306.672 275.996C306.871 275.996 307.043 275.926 307.182 275.79C307.321 275.654 307.393 275.487 307.393 275.292C307.393 275.098 307.321 274.935 307.182 274.794Z" fill="white"/>
<path d="M220.646 189.607C220.646 189.502 220.607 189.389 220.523 189.264C220.383 189.062 220.172 188.965 219.893 188.965C219.475 188.965 219.176 189.194 218.997 189.653C218.901 189.906 218.833 190.28 218.797 190.778C218.957 190.591 219.144 190.459 219.355 190.369C219.566 190.284 219.81 190.241 220.081 190.241C220.662 190.241 221.141 190.435 221.515 190.82C221.89 191.205 222.073 191.699 222.073 192.302C222.073 192.905 221.89 193.427 221.527 193.886C221.161 194.341 220.595 194.57 219.825 194.57C218.997 194.57 218.387 194.232 217.996 193.559C217.689 193.03 217.538 192.353 217.538 191.517C217.538 191.027 217.558 190.63 217.602 190.322C217.677 189.778 217.825 189.323 218.04 188.961C218.227 188.65 218.474 188.405 218.777 188.214C219.08 188.027 219.443 187.93 219.865 187.93C220.475 187.93 220.961 188.082 221.324 188.389C221.687 188.693 221.89 189.101 221.934 189.607H220.646ZM219.116 193.216C219.307 193.434 219.547 193.543 219.841 193.543C220.136 193.543 220.352 193.438 220.519 193.228C220.682 193.018 220.766 192.746 220.766 192.407C220.766 192.034 220.674 191.746 220.487 191.548C220.3 191.349 220.069 191.248 219.798 191.248C219.578 191.248 219.383 191.314 219.212 191.443C218.957 191.633 218.833 191.945 218.833 192.372C218.833 192.719 218.929 192.999 219.12 193.216H219.116Z" fill="white"/>
<path d="M225.497 190.832C225.17 191.155 224.771 191.314 224.301 191.314C223.831 191.314 223.44 191.155 223.109 190.832C222.779 190.509 222.615 190.124 222.615 189.669C222.615 189.214 222.779 188.829 223.109 188.506C223.44 188.183 223.835 188.024 224.301 188.024C224.767 188.024 225.162 188.183 225.493 188.506C225.824 188.825 225.987 189.214 225.987 189.669C225.987 190.124 225.824 190.509 225.497 190.832ZM224.811 190.167C224.951 190.031 225.022 189.863 225.022 189.669C225.022 189.474 224.951 189.307 224.811 189.171C224.672 189.035 224.5 188.965 224.301 188.965C224.102 188.965 223.93 189.035 223.791 189.171C223.651 189.307 223.58 189.474 223.58 189.669C223.58 189.863 223.651 190.031 223.791 190.167C223.93 190.303 224.102 190.373 224.301 190.373C224.5 190.373 224.672 190.303 224.811 190.167ZM227.984 187.992H228.669L225.01 194.57H224.309L227.98 187.992H227.984ZM229.897 194.049C229.566 194.368 229.171 194.531 228.705 194.531C228.239 194.531 227.844 194.372 227.513 194.049C227.183 193.726 227.019 193.341 227.019 192.886C227.019 192.431 227.183 192.042 227.513 191.723C227.84 191.404 228.239 191.244 228.705 191.244C229.171 191.244 229.566 191.404 229.897 191.727C230.227 192.05 230.391 192.435 230.391 192.89C230.391 193.345 230.227 193.73 229.897 194.053V194.049ZM229.215 192.388C229.076 192.252 228.904 192.182 228.705 192.182C228.506 192.182 228.334 192.252 228.195 192.388C228.055 192.524 227.984 192.691 227.984 192.886C227.984 193.08 228.055 193.248 228.195 193.384C228.334 193.52 228.506 193.59 228.705 193.59C228.904 193.59 229.076 193.52 229.215 193.384C229.355 193.248 229.426 193.08 229.426 192.886C229.426 192.691 229.355 192.528 229.215 192.388Z" fill="white"/>
<path d="M242.144 144.729C242.55 144.305 243.076 144.091 243.726 144.091C244.726 144.091 245.412 144.523 245.783 145.387C245.994 145.877 246.101 146.519 246.101 147.32C246.101 148.121 246.002 148.744 245.799 149.261C245.412 150.249 244.702 150.743 243.67 150.743C243.176 150.743 242.738 150.599 242.343 150.315C241.949 150.031 241.725 149.615 241.67 149.07H242.957C242.989 149.257 243.068 149.413 243.2 149.529C243.332 149.646 243.511 149.708 243.73 149.708C244.157 149.708 244.455 149.479 244.627 149.02C244.718 148.767 244.778 148.397 244.802 147.911C244.687 148.055 244.559 148.164 244.428 148.242C244.184 148.382 243.889 148.452 243.535 148.452C243.013 148.452 242.55 148.277 242.144 147.923C241.741 147.573 241.538 147.063 241.538 146.402C241.538 145.741 241.741 145.161 242.148 144.733L242.144 144.729ZM244.316 147.273C244.607 147.09 244.754 146.775 244.754 146.324C244.754 145.962 244.667 145.674 244.495 145.461C244.32 145.25 244.085 145.142 243.782 145.142C243.563 145.142 243.371 145.204 243.216 145.321C242.969 145.511 242.845 145.83 242.845 146.281C242.845 146.663 242.925 146.946 243.084 147.137C243.244 147.328 243.487 147.421 243.814 147.421C243.993 147.421 244.16 147.37 244.316 147.269V147.273Z" fill="white"/>
<path d="M249.505 146.981C249.178 147.304 248.78 147.464 248.309 147.464C247.839 147.464 247.448 147.304 247.118 146.981C246.787 146.658 246.623 146.273 246.623 145.818C246.623 145.363 246.787 144.978 247.118 144.655C247.448 144.332 247.843 144.173 248.309 144.173C248.776 144.173 249.17 144.332 249.501 144.655C249.832 144.974 249.995 145.363 249.995 145.818C249.995 146.273 249.832 146.658 249.505 146.981ZM248.819 146.316C248.959 146.18 249.031 146.013 249.031 145.818C249.031 145.624 248.959 145.456 248.819 145.32C248.68 145.184 248.509 145.114 248.309 145.114C248.11 145.114 247.939 145.184 247.799 145.32C247.66 145.456 247.588 145.624 247.588 145.818C247.588 146.013 247.66 146.18 247.799 146.316C247.939 146.452 248.11 146.522 248.309 146.522C248.509 146.522 248.68 146.452 248.819 146.316ZM251.992 144.142H252.677L249.019 150.719H248.317L251.988 144.142H251.992ZM253.905 150.198C253.574 150.517 253.179 150.68 252.713 150.68C252.247 150.68 251.852 150.521 251.521 150.198C251.191 149.875 251.027 149.49 251.027 149.035C251.027 148.58 251.191 148.191 251.521 147.872C251.848 147.553 252.247 147.394 252.713 147.394C253.179 147.394 253.574 147.553 253.905 147.876C254.236 148.199 254.399 148.584 254.399 149.039C254.399 149.494 254.236 149.879 253.905 150.202V150.198ZM253.223 148.537C253.084 148.401 252.912 148.331 252.713 148.331C252.514 148.331 252.342 148.401 252.203 148.537C252.064 148.673 251.992 148.841 251.992 149.035C251.992 149.23 252.064 149.397 252.203 149.533C252.342 149.669 252.514 149.739 252.713 149.739C252.912 149.739 253.084 149.669 253.223 149.533C253.363 149.397 253.434 149.23 253.434 149.035C253.434 148.841 253.363 148.677 253.223 148.537Z" fill="white"/>
<path d="M316.986 136.448C317.169 136.02 317.604 135.569 318.289 135.09C318.883 134.674 319.27 134.378 319.445 134.196C319.712 133.916 319.848 133.608 319.848 133.278C319.848 133.005 319.772 132.78 319.616 132.601C319.461 132.422 319.242 132.332 318.955 132.332C318.56 132.332 318.293 132.476 318.154 132.76C318.074 132.928 318.022 133.188 318.01 133.546H316.755C316.775 133.001 316.878 132.562 317.058 132.223C317.401 131.586 318.014 131.263 318.895 131.263C319.589 131.263 320.143 131.449 320.553 131.827C320.964 132.2 321.171 132.698 321.171 133.317C321.171 133.791 321.023 134.211 320.736 134.581C320.545 134.826 320.234 135.098 319.796 135.398L319.278 135.755C318.955 135.981 318.732 136.141 318.612 136.242C318.493 136.343 318.393 136.46 318.309 136.592H321.175V137.7H316.679C316.691 137.241 316.791 136.821 316.982 136.44L316.986 136.448Z" fill="white"/>
<path d="M322.143 136.448C322.327 136.02 322.761 135.569 323.446 135.09C324.04 134.674 324.427 134.378 324.602 134.196C324.869 133.916 325.005 133.608 325.005 133.278C325.005 133.005 324.929 132.78 324.774 132.601C324.618 132.422 324.399 132.332 324.112 132.332C323.717 132.332 323.45 132.476 323.311 132.76C323.231 132.928 323.179 133.188 323.167 133.546H321.912C321.932 133.001 322.036 132.562 322.215 132.223C322.558 131.586 323.171 131.263 324.052 131.263C324.746 131.263 325.3 131.449 325.71 131.827C326.121 132.2 326.328 132.698 326.328 133.317C326.328 133.791 326.18 134.211 325.893 134.581C325.702 134.826 325.391 135.098 324.953 135.398L324.435 135.755C324.112 135.981 323.889 136.141 323.769 136.242C323.65 136.343 323.55 136.46 323.466 136.592H326.332V137.7H321.836C321.848 137.241 321.948 136.821 322.139 136.44L322.143 136.448Z" fill="white"/>
<path d="M329.799 134.133C329.472 134.456 329.074 134.616 328.604 134.616C328.133 134.616 327.743 134.456 327.412 134.133C327.081 133.81 326.918 133.425 326.918 132.97C326.918 132.515 327.081 132.13 327.412 131.807C327.743 131.484 328.137 131.325 328.604 131.325C329.07 131.325 329.464 131.484 329.795 131.807C330.126 132.126 330.289 132.515 330.289 132.97C330.289 133.425 330.126 133.81 329.799 134.133ZM329.114 133.468C329.253 133.332 329.325 133.165 329.325 132.97C329.325 132.776 329.253 132.608 329.114 132.472C328.974 132.336 328.803 132.266 328.604 132.266C328.404 132.266 328.233 132.336 328.093 132.472C327.954 132.608 327.882 132.776 327.882 132.97C327.882 133.165 327.954 133.332 328.093 133.468C328.233 133.604 328.404 133.674 328.604 133.674C328.803 133.674 328.974 133.604 329.114 133.468ZM332.286 131.294H332.972L329.313 137.871H328.612L332.282 131.294H332.286ZM334.199 137.35C333.868 137.669 333.474 137.833 333.007 137.833C332.541 137.833 332.147 137.673 331.816 137.35C331.485 137.027 331.322 136.642 331.322 136.187C331.322 135.732 331.485 135.343 331.816 135.024C332.143 134.705 332.541 134.546 333.007 134.546C333.474 134.546 333.868 134.705 334.199 135.028C334.53 135.351 334.693 135.736 334.693 136.191C334.693 136.646 334.53 137.031 334.199 137.354V137.35ZM333.518 135.689C333.378 135.553 333.207 135.483 333.007 135.483C332.808 135.483 332.637 135.553 332.497 135.689C332.358 135.825 332.286 135.993 332.286 136.187C332.286 136.382 332.358 136.549 332.497 136.685C332.637 136.821 332.808 136.891 333.007 136.891C333.207 136.891 333.378 136.821 333.518 136.685C333.657 136.549 333.729 136.382 333.729 136.187C333.729 135.993 333.657 135.829 333.518 135.689Z" fill="white"/>
<path d="M360.407 189.23V188.374C360.814 188.354 361.097 188.331 361.26 188.296C361.519 188.242 361.73 188.129 361.894 187.962C362.005 187.845 362.089 187.693 362.149 187.503C362.181 187.386 362.197 187.3 362.197 187.246H363.273V193.656H361.95V189.237H360.407V189.23Z" fill="white"/>
<path d="M369.773 192.271H369.032V193.652H367.768V192.271H365.17V191.17L367.585 187.281H369.036V191.287H369.777V192.271H369.773ZM367.768 191.287V188.525L366.13 191.287H367.768Z" fill="white"/>
<path d="M373.172 190.077C372.846 190.4 372.447 190.56 371.977 190.56C371.507 190.56 371.116 190.4 370.785 190.077C370.454 189.755 370.291 189.369 370.291 188.914C370.291 188.459 370.454 188.074 370.785 187.751C371.116 187.428 371.511 187.269 371.977 187.269C372.443 187.269 372.838 187.428 373.168 187.751C373.499 188.07 373.663 188.459 373.663 188.914C373.663 189.369 373.499 189.755 373.172 190.077ZM372.487 189.412C372.626 189.276 372.698 189.109 372.698 188.914C372.698 188.72 372.626 188.553 372.487 188.416C372.347 188.28 372.176 188.21 371.977 188.21C371.778 188.21 371.606 188.28 371.467 188.416C371.327 188.553 371.255 188.72 371.255 188.914C371.255 189.109 371.327 189.276 371.467 189.412C371.606 189.548 371.778 189.618 371.977 189.618C372.176 189.618 372.347 189.548 372.487 189.412ZM375.659 187.242H376.345L372.686 193.819H371.985L375.655 187.242H375.659ZM377.572 193.298C377.242 193.617 376.847 193.781 376.381 193.781C375.914 193.781 375.52 193.621 375.189 193.298C374.858 192.975 374.695 192.59 374.695 192.135C374.695 191.68 374.858 191.291 375.189 190.972C375.516 190.653 375.914 190.494 376.381 190.494C376.847 190.494 377.242 190.653 377.572 190.976C377.903 191.299 378.067 191.684 378.067 192.139C378.067 192.594 377.903 192.979 377.572 193.302V193.298ZM376.891 191.637C376.751 191.501 376.58 191.431 376.381 191.431C376.181 191.431 376.01 191.501 375.871 191.637C375.731 191.773 375.659 191.941 375.659 192.135C375.659 192.33 375.731 192.497 375.871 192.633C376.01 192.769 376.181 192.839 376.381 192.839C376.58 192.839 376.751 192.769 376.891 192.633C377.03 192.497 377.102 192.33 377.102 192.135C377.102 191.941 377.03 191.777 376.891 191.637Z" fill="white"/>
<path opacity="0.5" d="M498.384 28.446H392.932C379.783 28.446 369.123 38.8502 369.123 51.6835C369.123 64.5169 379.783 74.9244 392.932 74.9244H399.366L399.424 75.0245L406.542 87.0503L413.656 75.0245L413.718 74.9244H498.391C511.539 74.9244 522.199 64.5202 522.199 51.6835C522.199 38.8469 511.539 28.446 498.391 28.446H498.384Z" fill="#273A5D"/>
<path opacity="0.5" d="M35.2193 209.096H122.832C133.755 209.096 142.611 217.74 142.611 228.4C142.611 239.061 133.755 247.711 122.832 247.711H117.49L117.44 247.793L111.529 257.784L105.618 247.793L105.571 247.711H35.2193C24.2969 247.711 15.4407 239.067 15.4407 228.4C15.4407 217.733 24.3003 209.096 35.2193 209.096Z" fill="#273A5D"/>
<path opacity="0.5" d="M548.275 299.531H418.485C404.996 299.531 394.06 310.207 394.06 323.373C394.06 336.538 404.999 347.218 418.485 347.218H425.083L425.146 347.322L432.445 359.66L439.745 347.322L439.801 347.218H548.275C561.764 347.218 572.7 336.544 572.7 323.373C572.7 310.201 561.764 299.531 548.275 299.531Z" fill="#273A5D"/>
<path d="M421.27 50.102C421.27 56.7589 417.137 60.7931 411.058 60.7931C404.979 60.7931 401.277 56.245 401.277 50.4624C401.277 44.3794 405.256 39.8313 411.396 39.8313C417.537 39.8313 421.27 44.4995 421.27 50.102ZM406.244 50.3723C406.244 54.3464 408.159 57.1493 411.304 57.1493C414.449 57.1493 416.302 54.1962 416.302 50.2521C416.302 46.6083 414.514 43.4751 411.273 43.4751C408.032 43.4751 406.244 46.4282 406.244 50.3723Z" fill="#D8315B"/>
<path d="M440.371 58.6276H440.309C439.352 60.0124 437.841 60.7966 435.834 60.7966C432.562 60.7966 429.571 57.997 429.571 53.2988C429.571 48.03 433.027 45.4072 436.237 45.4072C438.183 45.4072 439.601 46.1013 440.432 47.456H440.494L440.617 45.7376H445.153C445.123 47.1524 445.061 48.6272 445.061 50.1655V66.4291H440.371V58.6276ZM440.371 51.9107C440.371 51.6704 440.34 51.4001 440.278 51.1565C440.032 49.982 439.013 48.9576 437.595 48.9576C435.434 48.9576 434.354 50.7328 434.354 53.1152C434.354 55.4977 435.557 57.1795 437.533 57.1795C438.86 57.1795 439.94 56.3052 440.248 55.1006C440.34 54.8003 440.371 54.4066 440.371 54.1063V51.9073V51.9107Z" fill="#D8315B"/>
<path d="M463.02 55.7344C463.02 57.663 463.082 59.228 463.143 60.4626H459.071L458.856 58.3838H458.764C458.179 59.2881 456.757 60.793 454.042 60.793C450.989 60.793 448.736 58.9243 448.736 54.3796V45.7373H453.458V53.6589C453.458 55.7978 454.169 57.0924 455.803 57.0924C457.099 57.0924 457.841 56.2182 458.148 55.4975C458.271 55.2272 458.302 54.8635 458.302 54.5031V45.7406H463.023V55.741L463.02 55.7344Z" fill="#D8315B"/>
<path d="M470.398 54.56C470.551 56.4586 472.466 57.3596 474.657 57.3596C476.261 57.3596 477.557 57.1494 478.822 56.7556L479.44 59.8588C477.898 60.4628 476.015 60.7631 473.977 60.7631C468.856 60.7631 465.922 57.8734 465.922 53.2653C465.922 49.5314 468.299 45.4038 473.543 45.4038C478.418 45.4038 480.271 49.1077 480.271 52.7514C480.271 53.5356 480.179 54.2263 480.117 54.56H470.398ZM475.922 51.4267C475.922 50.3122 475.43 48.4436 473.269 48.4436C471.293 48.4436 470.493 50.1888 470.37 51.4267H475.926H475.922Z" fill="#D8315B"/>
<path d="M485.457 53.8993L485.427 53.1151C485.334 51.5802 485.857 50.0119 487.249 48.3869C488.237 47.2423 489.037 46.278 489.037 45.2536C489.037 44.2292 488.326 43.5085 486.784 43.4451C485.765 43.4451 484.531 43.8054 483.731 44.3493L482.681 41.0659C483.792 40.4319 485.645 39.8313 487.833 39.8313C491.905 39.8313 493.758 42.0303 493.758 44.5295C493.758 46.8186 492.309 48.3235 491.136 49.5881C489.994 50.8227 489.533 51.9973 489.563 53.352V53.8926H485.461L485.457 53.8993ZM484.654 58.0569C484.654 56.4619 485.796 55.3174 487.399 55.3174C489.003 55.3174 490.145 56.4619 490.175 58.0569C490.175 59.6219 489.064 60.7964 487.399 60.7964C485.734 60.7964 484.654 59.6219 484.654 58.0569Z" fill="#D8315B"/>
<path d="M51.8887 236.447C51.0429 236.858 49.1439 237.302 46.6699 237.302C39.639 237.302 36.0183 233.031 36.0183 227.376C36.0183 220.602 40.9663 216.833 47.1212 216.833C49.505 216.833 51.317 217.303 52.1294 217.717L51.1933 221.28C50.2572 220.899 48.96 220.543 47.3319 220.543C43.681 220.543 40.8426 222.693 40.8426 227.111C40.8426 231.086 43.2564 233.592 47.362 233.592C48.7494 233.592 50.2873 233.298 51.1933 232.943L51.8887 236.447Z" fill="#D8315B"/>
<path d="M68.7588 229.643C68.7588 234.916 64.9274 237.331 60.9724 237.331C56.6562 237.331 53.3397 234.564 53.3397 229.911C53.3397 225.258 56.479 222.282 61.2164 222.282C65.9538 222.282 68.7588 225.316 68.7588 229.643ZM58.0771 229.79C58.0771 232.264 59.1336 234.12 61.0961 234.12C62.878 234.12 64.0214 232.384 64.0214 229.79C64.0214 227.64 63.1756 225.46 61.0961 225.46C58.8929 225.46 58.0771 227.669 58.0771 229.79Z" fill="#D8315B"/>
<path d="M71.597 227.199C71.597 225.405 71.5369 223.871 71.4767 222.605H75.3381L75.5488 224.55H75.639C76.2742 223.636 77.5714 222.282 80.1056 222.282C82.0079 222.282 83.5157 223.225 84.1476 224.726H84.2078C84.7494 223.988 85.4147 223.401 86.1101 222.987C86.9258 222.517 87.8285 222.279 88.9151 222.279C91.7501 222.279 93.8932 224.223 93.8932 228.521V237.002H89.4266V229.167C89.4266 227.075 88.7312 225.868 87.2535 225.868C86.197 225.868 85.4414 226.576 85.1405 227.428C85.0202 227.751 84.96 228.224 84.96 228.576V236.998H80.4934V228.929C80.4934 227.101 79.8281 225.865 78.3805 225.865C77.2037 225.865 76.5083 226.749 76.2375 227.483C76.087 227.836 76.0569 228.25 76.0569 228.602V236.995H71.5904V227.186L71.597 227.199Z" fill="#D8315B"/>
<path d="M112.124 229.643C112.124 234.916 108.293 237.331 104.337 237.331C100.021 237.331 96.7048 234.564 96.7048 229.911C96.7048 225.258 99.8441 222.282 104.582 222.282C109.319 222.282 112.124 225.316 112.124 229.643ZM101.442 229.79C101.442 232.264 102.499 234.12 104.461 234.12C106.243 234.12 107.387 232.384 107.387 229.79C107.387 227.64 106.541 225.46 104.461 225.46C102.258 225.46 101.442 227.669 101.442 229.79Z" fill="#D8315B"/>
<path d="M117.286 230.586L117.256 229.819C117.166 228.318 117.677 226.785 119.038 225.196C120.004 224.076 120.786 223.133 120.786 222.132C120.786 221.13 120.091 220.422 118.583 220.363C117.587 220.363 116.38 220.715 115.598 221.247L114.571 218.036C115.658 217.416 117.47 216.829 119.609 216.829C123.591 216.829 125.403 218.979 125.403 221.424C125.403 223.662 123.986 225.134 122.839 226.37C121.722 227.578 121.271 228.726 121.301 230.051V230.58H117.289L117.286 230.586ZM116.5 234.652C116.5 233.092 117.617 231.973 119.185 231.973C120.753 231.973 121.869 233.092 121.9 234.652C121.9 236.182 120.813 237.331 119.185 237.331C117.557 237.331 116.5 236.182 116.5 234.652Z" fill="#D8315B"/>
<path d="M431.292 323.918H423.853V328.602H432.163V332.262H419.262V312.527H431.744V316.187H423.853V320.287H431.292V323.918Z" fill="#D8315B"/>
<path d="M441.194 322.746C441.194 320.871 441.134 319.262 441.074 317.945H445.033L445.243 319.937H445.302C446.383 318.415 448.061 317.624 450.192 317.624C453.403 317.624 456.281 320.346 456.281 324.914C456.281 330.127 452.891 332.586 449.62 332.586C447.849 332.586 446.469 331.882 445.811 330.948H445.751V338.063H441.191V322.75L441.194 322.746ZM445.755 326.114C445.755 326.464 445.784 326.789 445.844 327.052C446.143 328.252 447.194 329.16 448.513 329.16C450.494 329.16 451.664 327.551 451.664 325.118C451.664 322.834 450.614 321.108 448.573 321.108C447.284 321.108 446.143 322.046 445.844 323.363C445.784 323.596 445.755 323.888 445.755 324.154V326.117V326.114Z" fill="#D8315B"/>
<path d="M473.716 324.943C473.716 330.186 469.906 332.586 465.974 332.586C461.683 332.586 458.385 329.835 458.385 325.209C458.385 320.583 461.507 317.624 466.217 317.624C470.927 317.624 473.716 320.641 473.716 324.943ZM463.096 325.089C463.096 327.548 464.146 329.394 466.097 329.394C467.869 329.394 469.006 327.665 469.006 325.089C469.006 322.951 468.165 320.784 466.097 320.784C463.907 320.784 463.096 322.98 463.096 325.089Z" fill="#D8315B"/>
<path d="M476.534 322.659C476.534 320.55 476.475 319.175 476.415 317.945H480.344L480.493 320.579H480.613C481.364 318.5 483.162 317.621 484.572 317.621C484.99 317.621 485.203 317.621 485.532 317.679V321.867C485.203 321.809 484.811 321.751 484.302 321.751C482.624 321.751 481.484 322.63 481.181 324.005C481.121 324.297 481.091 324.651 481.091 325.001V332.262H476.531V322.659H476.534Z" fill="#D8315B"/>
<path d="M497.356 330.478H497.296C496.365 331.824 494.896 332.586 492.945 332.586C489.764 332.586 486.855 329.864 486.855 325.296C486.855 320.174 490.216 317.624 493.337 317.624C495.228 317.624 496.608 318.299 497.415 319.616H497.475L497.595 317.948H502.006C501.976 319.324 501.916 320.758 501.916 322.253V338.066H497.356V330.481V330.478ZM497.356 323.947C497.356 323.713 497.326 323.45 497.266 323.214C497.027 322.072 496.036 321.076 494.657 321.076C492.556 321.076 491.505 322.805 491.505 325.118C491.505 327.431 492.675 329.07 494.597 329.07C495.886 329.07 496.937 328.22 497.236 327.048C497.326 326.756 497.356 326.374 497.356 326.082V323.944V323.947Z" fill="#D8315B"/>
<path d="M519.377 327.665C519.377 329.54 519.437 331.062 519.497 332.262H515.538L515.328 330.241H515.239C514.67 331.12 513.287 332.583 510.648 332.583C507.68 332.583 505.489 330.766 505.489 326.348V317.945H510.08V325.647C510.08 327.727 510.771 328.985 512.36 328.985C513.62 328.985 514.341 328.135 514.64 327.435C514.76 327.172 514.79 326.818 514.79 326.468V317.948H519.38V327.668L519.377 327.665Z" fill="#D8315B"/>
<path d="M526.55 326.523C526.699 328.369 528.561 329.245 530.692 329.245C532.25 329.245 533.51 329.04 534.74 328.658L535.342 331.675C533.843 332.259 532.011 332.554 530.03 332.554C525.051 332.554 522.199 329.744 522.199 325.264C522.199 321.634 524.509 317.621 529.608 317.621C534.348 317.621 536.15 321.222 536.15 324.764C536.15 325.527 536.06 326.198 536 326.523H526.55ZM531.921 323.477C531.921 322.393 531.443 320.576 529.342 320.576C527.421 320.576 526.643 322.273 526.523 323.477H531.925H531.921Z" fill="#D8315B"/>
<path d="M541.192 325.88L541.162 325.118C541.072 323.626 541.581 322.101 542.934 320.521C543.894 319.408 544.672 318.471 544.672 317.475C544.672 316.479 543.981 315.778 542.482 315.716C541.491 315.716 540.291 316.067 539.513 316.595L538.493 313.403C539.573 312.787 541.375 312.203 543.502 312.203C547.461 312.203 549.263 314.341 549.263 316.771C549.263 318.996 547.853 320.459 546.713 321.689C545.603 322.889 545.154 324.031 545.184 325.348V325.874H541.195L541.192 325.88ZM540.411 329.923C540.411 328.372 541.521 327.259 543.08 327.259C544.639 327.259 545.749 328.372 545.779 329.923C545.779 331.444 544.699 332.586 543.08 332.586C541.461 332.586 540.411 331.444 540.411 329.923Z" fill="#D8315B"/>
</g>
<defs>
<clipPath id="clip0_77_2468">
<rect width="597" height="397.027" fill="white" transform="translate(0.0136719 0.154785)"/>
</clipPath>
</defs>
</svg>
