<svg width="648" height="144" viewBox="0 0 648 144" fill="none" xmlns="http://www.w3.org/2000/svg">
<g clip-path="url(#clip0_70_2366)">
<path d="M647.19 92.9737C645.39 70.3937 627.02 52.1537 604.43 50.5037C591.46 49.5537 579.51 53.9737 570.56 61.7637C564.56 66.9837 556.02 68.1337 548.76 64.8837C541.37 61.5737 536.73 54.2537 536.55 46.1537C536.53 45.2937 536.49 44.4237 536.42 43.5537C534.67 20.7537 516.02 2.36373 493.19 0.903726C466.25 -0.806274 443.79 20.6137 443.79 47.1937V47.3137C443.79 54.6737 439.48 61.3437 432.76 64.3537L430.3 65.4537C423.74 68.3837 415.96 67.3737 410.66 62.5237C407.2 59.3537 403.25 56.7137 398.94 54.7037C398.89 54.6837 398.85 54.6637 398.8 54.6437C398.32 54.4237 397.84 54.2137 397.35 54.0037C397.17 53.9237 396.98 53.8437 396.8 53.7737C396.42 53.6237 396.04 53.4737 395.65 53.3337C395.35 53.2237 395.05 53.1037 394.75 53.0037C394.45 52.9037 394.15 52.8037 393.85 52.7037C393.46 52.5737 393.06 52.4437 392.66 52.3237C392.43 52.2537 392.19 52.1837 391.96 52.1237C391.49 51.9937 391.02 51.8637 390.54 51.7437C390.35 51.6937 390.17 51.6537 389.98 51.6137C389.46 51.4937 388.94 51.3737 388.41 51.2737C388.24 51.2437 388.08 51.2137 387.91 51.1737C387.37 51.0737 386.83 50.9837 386.29 50.9037C386.11 50.8737 385.93 50.8537 385.76 50.8237C385.24 50.7537 384.72 50.6937 384.2 50.6337C383.97 50.6137 383.75 50.5837 383.52 50.5637C383.31 50.5437 383.09 50.5137 382.88 50.5037C382.66 50.4837 382.44 50.4837 382.22 50.4737C381.83 50.4537 381.44 50.4337 381.05 50.4137C380.68 50.4037 380.32 50.3937 379.95 50.3837C379.76 50.3837 379.58 50.3737 379.39 50.3737C379.14 50.3737 378.9 50.3837 378.65 50.3937C378.33 50.3937 378.01 50.4037 377.69 50.4137C377.22 50.4337 376.75 50.4537 376.28 50.4937C376 50.5137 375.72 50.5237 375.45 50.5537C374.92 50.5937 374.4 50.6537 373.88 50.7137C373.66 50.7437 373.45 50.7637 373.23 50.7937C372.59 50.8837 371.95 50.9837 371.32 51.0937C371.23 51.1137 371.13 51.1237 371.04 51.1437C368.78 51.5537 366.58 52.1337 364.44 52.8637H364.42C363.73 53.1137 363.04 53.3637 362.36 53.6337C362.31 53.6537 362.25 53.6737 362.2 53.7037C361.57 53.9537 360.94 54.2237 360.32 54.5037C360.25 54.5337 360.18 54.5637 360.11 54.6037C359.5 54.8837 358.9 55.1737 358.31 55.4837C358.25 55.5137 358.18 55.5537 358.12 55.5837C357.52 55.8937 356.92 56.2237 356.33 56.5637C356.29 56.5937 356.24 56.6137 356.2 56.6437C355.58 57.0037 354.97 57.3737 354.37 57.7637L354.34 57.7837C352.41 59.0237 350.57 60.4037 348.85 61.9137C348.61 62.1237 348.37 62.3137 348.13 62.5037C342.19 67.1037 334.13 68.0037 327.22 64.9137C319.83 61.6037 315.19 54.2837 315.01 46.1837C314.99 45.3237 314.95 44.4537 314.88 43.5837C314.02 32.3637 309.06 22.2137 301.53 14.6237L301.51 14.6037C301.08 14.1637 300.63 13.7437 300.18 13.3237C300.12 13.2737 300.07 13.2137 300.01 13.1637C299.6 12.7937 299.19 12.4237 298.77 12.0637C298.66 11.9737 298.56 11.8737 298.45 11.7837C298.08 11.4637 297.69 11.1637 297.31 10.8537C297.15 10.7237 297 10.6037 296.84 10.4737C296.49 10.2037 296.14 9.95373 295.79 9.69373C295.58 9.54373 295.38 9.39373 295.17 9.24373C294.85 9.02373 294.53 8.80373 294.21 8.59373C293.96 8.42373 293.71 8.25373 293.45 8.09373C293.16 7.90373 292.86 7.72373 292.56 7.54373C292.27 7.36373 291.98 7.18373 291.68 7.01373C291.41 6.85373 291.13 6.70373 290.85 6.55373C290.52 6.37373 290.2 6.19373 289.87 6.02373C289.61 5.88373 289.34 5.75373 289.08 5.62373C288.73 5.45373 288.38 5.27373 288.02 5.10373C287.77 4.98373 287.51 4.87373 287.26 4.76373C286.89 4.59373 286.51 4.43373 286.13 4.27373C285.88 4.17373 285.63 4.07373 285.37 3.97373C284.98 3.82373 284.6 3.67373 284.2 3.53373C283.94 3.44373 283.68 3.35373 283.42 3.26373C283.03 3.13373 282.64 3.00373 282.24 2.87373C281.97 2.79373 281.7 2.71373 281.43 2.63373C281.04 2.52373 280.65 2.40373 280.25 2.30373C279.96 2.23373 279.67 2.16373 279.38 2.09373C279 2.00373 278.62 1.91373 278.23 1.83373C277.92 1.76373 277.61 1.71373 277.29 1.65373C276.92 1.58373 276.55 1.51373 276.18 1.45373C275.84 1.39373 275.5 1.35373 275.16 1.30373C274.81 1.25373 274.46 1.20373 274.11 1.16373C273.74 1.12373 273.37 1.08373 273 1.05373C272.78 1.03373 272.56 1.00373 272.34 0.983726C272.25 0.983726 272.15 0.983726 272.06 0.973726C271.91 0.963726 271.77 0.943726 271.62 0.933726C271.24 0.913726 270.87 0.903726 270.49 0.893726C270.13 0.883726 269.77 0.863726 269.41 0.853726C268.92 0.853726 268.44 0.853726 267.96 0.853726C267.58 0.853726 267.21 0.853726 266.83 0.873726C266.38 0.893726 265.94 0.923726 265.49 0.953726C265.09 0.983726 264.68 1.00373 264.28 1.03373C263.9 1.07373 263.52 1.12373 263.14 1.16373C262.69 1.21373 262.23 1.26373 261.78 1.33373C261.6 1.36373 261.42 1.40373 261.23 1.42373C259.09 1.76373 257.01 2.25373 254.98 2.87373C254.9 2.89373 254.83 2.91373 254.75 2.94373C254.13 3.13373 253.51 3.35373 252.9 3.57373C252.76 3.62373 252.62 3.67373 252.47 3.72373C251.88 3.94373 251.3 4.18373 250.73 4.42373C250.57 4.49373 250.42 4.55373 250.26 4.61373C249.69 4.86373 249.13 5.12373 248.57 5.39373C248.42 5.46373 248.26 5.53373 248.11 5.61373C247.55 5.88373 247.01 6.17373 246.46 6.47373C246.31 6.55373 246.16 6.63373 246.02 6.71373C245.48 7.01373 244.94 7.33373 244.41 7.66373C244.27 7.74373 244.13 7.83373 244 7.91373C243.47 8.24373 242.94 8.59373 242.42 8.95373C242.3 9.03373 242.17 9.12373 242.05 9.20373C241.53 9.57373 241.01 9.95373 240.5 10.3337C240.39 10.4137 240.29 10.4937 240.18 10.5837C239.66 10.9837 239.15 11.3937 238.66 11.8237C238.57 11.8937 238.49 11.9737 238.4 12.0437C237.89 12.4837 237.39 12.9337 236.89 13.3937C236.83 13.4537 236.76 13.5137 236.7 13.5737C236.19 14.0537 235.69 14.5437 235.21 15.0537C235.17 15.0937 235.14 15.1337 235.1 15.1737C234.59 15.7037 234.09 16.2437 233.61 16.8037V16.8237C226.48 25.0037 222.18 35.6937 222.21 47.3737C222.21 54.7237 217.89 61.3837 211.18 64.3937L208.72 65.4937C202.16 68.4237 194.38 67.4137 189.08 62.5637C180.83 55.0237 169.85 50.4137 157.81 50.4137C145.77 50.4137 135.43 54.7637 127.27 61.9237C121.42 67.0537 113.12 68.2737 106.02 65.1037L105.68 64.9537C98.2198 61.6137 93.5798 54.2937 93.3998 46.1937C93.3798 45.4237 93.3498 44.6537 93.2898 43.8737C91.6998 21.1937 73.4298 2.75373 50.7998 0.963726C22.2698 -1.29627 -1.46018 22.4437 0.809817 50.9837C2.60982 73.5637 20.9798 91.8037 43.5698 93.4637C56.5398 94.4137 68.4998 89.9937 77.4498 82.2037C83.4498 76.9837 91.9898 75.8337 99.2498 79.0837C106.64 82.3937 111.28 89.7137 111.46 97.8137C111.5 99.4237 111.61 101.044 111.82 102.684C114.44 123.704 131.46 140.484 152.51 142.844C180.46 145.974 204.22 124.094 204.22 96.7537V96.6337C204.22 89.2737 208.53 82.6037 215.25 79.5937L217.71 78.4937C224.27 75.5637 232.05 76.5737 237.35 81.4237C240.81 84.5937 244.76 87.2337 249.06 89.2337C249.11 89.2537 249.15 89.2737 249.2 89.3037C249.68 89.5237 250.17 89.7337 250.65 89.9437C250.83 90.0237 251.01 90.1037 251.19 90.1737C251.57 90.3337 251.96 90.4737 252.35 90.6237C252.65 90.7337 252.94 90.8437 253.24 90.9537C253.54 91.0637 253.84 91.1537 254.14 91.2537C254.53 91.3837 254.93 91.5137 255.32 91.6337C255.56 91.7037 255.79 91.7737 256.03 91.8337C256.5 91.9637 256.97 92.0937 257.44 92.2137C257.63 92.2637 257.82 92.3037 258.01 92.3537C258.53 92.4737 259.05 92.5937 259.57 92.6937C259.74 92.7237 259.91 92.7637 260.08 92.7937C260.62 92.8937 261.16 92.9837 261.7 93.0637C261.88 93.0937 262.05 93.1137 262.23 93.1437C262.75 93.2137 263.27 93.2737 263.79 93.3337C264.02 93.3537 264.24 93.3837 264.47 93.4037C264.68 93.4237 264.89 93.4537 265.1 93.4637C265.32 93.4837 265.54 93.4837 265.76 93.4937C266.15 93.5137 266.55 93.5337 266.94 93.5537C267.31 93.5637 267.67 93.5737 268.03 93.5837C268.22 93.5837 268.4 93.5937 268.59 93.5937C268.84 93.5937 269.09 93.5837 269.35 93.5737C269.66 93.5737 269.97 93.5737 270.27 93.5537C270.75 93.5337 271.23 93.5037 271.71 93.4737C271.98 93.4537 272.24 93.4437 272.5 93.4237C273.05 93.3737 273.6 93.3137 274.14 93.2537C274.33 93.2337 274.52 93.2137 274.71 93.1837C276.98 92.8837 279.19 92.4137 281.35 91.8037C281.39 91.7937 281.42 91.7837 281.45 91.7737C282.13 91.5737 282.8 91.3637 283.46 91.1437C283.55 91.1137 283.63 91.0837 283.72 91.0537C284.34 90.8437 284.95 90.6137 285.55 90.3737C285.65 90.3337 285.74 90.2937 285.84 90.2537C286.44 90.0137 287.03 89.7637 287.61 89.4937C287.7 89.4537 287.78 89.4137 287.87 89.3737C288.47 89.0937 289.07 88.8037 289.66 88.5037C289.72 88.4737 289.78 88.4437 289.83 88.4137C290.47 88.0837 291.1 87.7437 291.72 87.3837H291.73C294.24 85.9237 296.61 84.2537 298.8 82.3737C304.02 77.8837 311.03 76.2737 317.54 77.9537C318.64 78.2437 319.72 78.6037 320.77 79.0837C328.16 82.3937 332.8 89.7137 332.98 97.8137C333.02 99.4237 333.13 101.044 333.34 102.684C333.39 103.084 333.48 103.464 333.54 103.864C333.61 104.314 333.68 104.764 333.77 105.214C333.97 106.304 334.21 107.374 334.48 108.434C334.51 108.544 334.54 108.654 334.56 108.764C338.27 122.654 348.35 134.014 361.42 139.524C361.48 139.554 361.55 139.584 361.61 139.604C362.31 139.894 363.02 140.174 363.73 140.424C364.34 140.644 364.95 140.854 365.56 141.044C366.06 141.204 366.57 141.354 367.08 141.484C367.92 141.714 368.77 141.924 369.63 142.114C369.99 142.194 370.36 142.264 370.73 142.334C371.74 142.524 372.76 142.684 373.79 142.814C373.87 142.814 373.95 142.844 374.03 142.854C374.27 142.884 374.5 142.894 374.74 142.914C375.03 142.944 375.32 142.984 375.61 143.004C375.77 143.014 375.92 143.014 376.08 143.024C376.56 143.054 377.04 143.084 377.52 143.094C377.93 143.114 378.33 143.124 378.73 143.134C379.18 143.134 379.63 143.134 380.08 143.134C380.5 143.134 380.93 143.124 381.35 143.104C381.77 143.084 382.18 143.054 382.6 143.024C383.04 142.994 383.49 142.964 383.93 142.924C384.31 142.884 384.69 142.834 385.06 142.794C385.53 142.734 386 142.674 386.46 142.604C386.8 142.554 387.14 142.484 387.48 142.424C387.97 142.334 388.47 142.244 388.96 142.144C389.26 142.084 389.55 142.004 389.84 141.944C390.36 141.824 390.88 141.704 391.4 141.564C391.65 141.494 391.89 141.424 392.13 141.354C392.68 141.194 393.24 141.034 393.78 140.854C393.97 140.794 394.16 140.724 394.34 140.654C394.93 140.454 395.53 140.244 396.11 140.014C396.23 139.964 396.35 139.914 396.47 139.864C397.11 139.604 397.75 139.344 398.38 139.054C398.42 139.034 398.45 139.024 398.48 139.004C414.58 131.684 425.78 115.434 425.73 96.6137C425.73 89.2637 430.05 82.6037 436.76 79.6037L439.22 78.5037C445.78 75.5737 453.56 76.5837 458.86 81.4337C467.11 88.9737 478.09 93.5837 490.12 93.5837C502.15 93.5837 512.21 89.3537 520.33 82.3737C526.43 77.1237 534.98 75.7937 542.32 79.0837C549.71 82.3937 554.35 89.7137 554.53 97.8137C554.55 98.6737 554.59 99.5437 554.66 100.424C556.4 122.944 574.62 141.214 597.14 143.004C625.68 145.264 649.42 121.524 647.14 92.9837L647.19 92.9737Z" fill="#2D4162"/>
<path d="M81.2143 49.9862C82.7491 31.1162 68.6961 14.5749 49.8261 13.04C30.9561 11.5052 14.4147 25.5582 12.8799 44.4282C11.3451 63.2982 25.3981 79.8396 44.2681 81.3744C63.1381 82.9092 79.6794 68.8562 81.2143 49.9862Z" fill="white"/>
<path d="M67.2798 32.2238L62.2998 34.7138L61.1898 32.4838L66.1698 29.9938L67.2798 32.2238Z" fill="#FD9711"/>
<path d="M66.1698 52.1338L61.1898 49.6438L62.2998 47.4138L67.2798 49.9038L66.1698 52.1338Z" fill="#FD9711"/>
<path d="M62.9899 39.8237H68.0499V42.3137H62.9899V39.8237Z" fill="#FD9711"/>
<path d="M27.4599 29.9938L32.4399 32.4838L31.3299 34.7138L26.3499 32.2238L27.4599 29.9938Z" fill="#FD9711"/>
<path d="M27.4599 52.1338L26.3499 49.9038L31.3299 47.4138L32.4399 49.6438L27.4599 52.1338Z" fill="#FD9711"/>
<path d="M25.5798 39.8237H30.6398V42.3137H25.5798V39.8237Z" fill="#FD9711"/>
<path d="M43.0798 67.3638H50.5498V69.8538H43.0798V67.3638Z" fill="#FD9711"/>
<path d="M60.5098 41.0638C60.5098 33.5138 54.3698 27.3738 46.8198 27.3738C39.2698 27.3738 33.1298 33.5138 33.1298 41.0638C33.1298 46.2138 36.0298 50.9038 40.5998 53.2438V57.2438H38.1098V59.7338H40.5998V64.8738H53.0398V59.7338H55.5298V57.2438H53.0398V53.2438C57.5998 50.9038 60.5098 46.2138 60.5098 41.0638ZM50.5498 62.3838H43.0798V59.7338H50.5498V62.3838ZM45.5698 43.5538C45.5698 42.8638 46.1298 42.3138 46.8098 42.3138C47.4898 42.3138 48.0498 42.8738 48.0498 43.5538C48.0498 44.2338 47.4898 44.7938 46.8098 44.7938C46.1298 44.7938 45.5698 44.2338 45.5698 43.5538ZM48.0598 57.2438V47.0738C49.5098 46.5638 50.5498 45.1738 50.5498 43.5538C50.5498 41.4938 48.8798 39.8238 46.8198 39.8238C44.7598 39.8238 43.0898 41.4938 43.0898 43.5538C43.0898 45.1738 44.1298 46.5638 45.5798 47.0738V57.2438H43.0898V51.6438L42.3498 51.3138C38.2698 49.5238 35.6298 45.4938 35.6298 41.0638C35.6298 34.8838 40.6498 29.8638 46.8298 29.8638C53.0098 29.8638 58.0298 34.8838 58.0298 41.0638C58.0298 45.4938 55.3898 49.5238 51.3098 51.3138L50.5698 51.6438V57.2438H48.0798H48.0598Z" fill="#FD9711"/>
<path d="M157.83 35.2538V28.6138" stroke="#303030" stroke-width="2" stroke-miterlimit="10" stroke-linecap="round"/>
<path d="M379.4 35.2538V28.6138" stroke="#303030" stroke-width="2" stroke-miterlimit="10" stroke-linecap="round"/>
<path d="M600.98 35.2538V28.6138" stroke="#303030" stroke-width="2" stroke-miterlimit="10" stroke-linecap="round"/>
<path d="M47.0498 108.704V115.344" stroke="#303030" stroke-width="2" stroke-miterlimit="10" stroke-linecap="round"/>
<path d="M268.62 108.704V115.344" stroke="#303030" stroke-width="2" stroke-miterlimit="10" stroke-linecap="round"/>
<path d="M490.19 108.704V115.344" stroke="#303030" stroke-width="2" stroke-miterlimit="10" stroke-linecap="round"/>
<path d="M157.83 131.044C176.762 131.044 192.11 115.696 192.11 96.7638C192.11 77.8314 176.762 62.4838 157.83 62.4838C138.897 62.4838 123.55 77.8314 123.55 96.7638C123.55 115.696 138.897 131.044 157.83 131.044Z" fill="white"/>
<path d="M157.82 89.8238C154.36 89.8238 151.55 92.6338 151.55 96.0938C151.55 99.5538 154.36 102.364 157.82 102.364C161.28 102.364 164.09 99.5538 164.09 96.0938C164.09 92.6338 161.28 89.8238 157.82 89.8238ZM157.82 99.8538C155.75 99.8538 154.06 98.1638 154.06 96.0938C154.06 94.0238 155.75 92.3338 157.82 92.3338C159.89 92.3338 161.58 94.0238 161.58 96.0938C161.58 98.1638 159.89 99.8538 157.82 99.8538Z" fill="#FD9711"/>
<path d="M157.82 97.8638L156.05 96.0938L157.82 94.3238L159.59 96.0938L157.82 97.8638Z" fill="#FD9711"/>
<path d="M169.04 104.194C169.18 101.674 169.07 99.1638 168.69 96.6638C167.74 90.3938 165.16 84.4138 161.02 78.9038L157.83 74.6438L154.64 78.9038C150.51 84.4138 147.93 90.3938 146.97 96.6638C146.59 99.1538 146.47 101.674 146.62 104.194C145.16 105.244 143.95 106.614 143.07 108.184C142.06 110.004 141.53 112.064 141.53 114.144V117.504L144.13 115.594C145.43 114.734 146.91 114.154 148.45 113.894C148.92 115.374 149.28 116.224 149.75 117.514C150.58 116.964 152.57 114.504 156.58 114.024V117.504H159.09V114.024C163.11 114.504 165.1 116.964 165.92 117.514C166.4 116.214 166.75 115.374 167.22 113.894C168.76 114.154 170.24 114.734 171.54 115.594L174.14 117.504V114.144C174.14 110.204 172.25 106.504 169.05 104.194H169.04ZM144.14 112.694C144.45 110.604 145.42 108.694 146.91 107.214C147.11 108.634 147.39 110.044 147.75 111.464C146.5 111.704 145.28 112.114 144.14 112.694ZM164.73 113.414C162.99 112.324 161.06 111.684 159.09 111.494V104.954H156.58V111.494C154.61 111.684 152.67 112.324 150.94 113.414C147.2 102.004 149.2 90.3438 156.65 80.4138L157.84 78.8338L159.03 80.4138C166.48 90.3438 168.48 102.004 164.74 113.414H164.73ZM167.91 111.464C168.27 110.044 168.55 108.634 168.75 107.214C170.24 108.684 171.22 110.604 171.52 112.694C170.38 112.124 169.16 111.704 167.91 111.464Z" fill="#FD9711"/>
<path d="M136.42 84.8038H144.03V87.3138H136.42V84.8038Z" fill="#FD9711"/>
<path d="M171.62 84.8038H179.23V87.3138H171.62V84.8038Z" fill="#FD9711"/>
<path d="M139.03 75.9138L145.85 79.0938L144.79 81.3638L137.97 78.1838L139.03 75.9138Z" fill="#FD9711"/>
<path d="M176.62 96.2038L169.8 93.0238L170.86 90.7538L177.68 93.9338L176.62 96.2038Z" fill="#FD9711"/>
<path d="M137.97 93.9338L144.79 90.7538L145.85 93.0238L139.03 96.2038L137.97 93.9338Z" fill="#FD9711"/>
<path d="M176.62 75.9138L177.68 78.1838L170.86 81.3638L169.8 79.0938L176.62 75.9138Z" fill="#FD9711"/>
<path d="M302.461 52.7553C305.527 34.0729 292.867 16.4423 274.185 13.3762C255.502 10.3102 237.872 22.9697 234.806 41.6521C231.74 60.3345 244.399 77.9651 263.082 81.0312C281.764 84.0973 299.395 71.4377 302.461 52.7553Z" fill="white"/>
<path d="M290.16 65.2237H287.68V47.0537L290.16 49.5337V35.3837H276.01L280.46 39.8337L276.18 44.1137L266.58 36.9737L250.32 48.5337V25.3737H247.84V67.7037H290.17V65.2237H290.16ZM265.28 47.0337V65.2237H257.84V52.3237L265.28 47.0337ZM267.76 47.1537L275.28 52.7537V65.2337H267.76V47.1637V47.1537ZM277.76 53.0437L285.2 45.6037V65.2237H277.76V53.0437ZM266.54 40.0437L276.41 47.3837L283.96 39.8337L281.99 37.8637H287.68V43.5537L285.71 41.5837L276.63 50.6637L266.49 43.1237L250.31 54.6237V51.5737L266.53 40.0437H266.54ZM250.32 57.6737L255.36 54.0937V65.2337H250.32V57.6837V57.6737Z" fill="#FD9711"/>
<path d="M524.032 52.7601C527.098 34.0777 514.438 16.4471 495.756 13.381C477.074 10.315 459.443 22.9745 456.377 41.6569C453.311 60.3393 465.97 77.9699 484.653 81.036C503.335 84.102 520.966 71.4425 524.032 52.7601Z" fill="white"/>
<path d="M487.61 35.3837C488.36 34.6837 488.82 33.6837 488.82 32.5837C488.82 31.1237 488 29.8537 486.8 29.2037L489.58 23.4537H475.25L478.03 29.2037C476.83 29.8537 476.01 31.1237 476.01 32.5837C476.01 33.6837 476.48 34.6837 477.23 35.3837C470.32 40.6737 468.33 49.0537 468.33 57.7637V64.5937H491.38V67.1537H512.04V41.5437H492.95C491.57 39.1137 489.78 37.0537 487.6 35.3837H487.61ZM479.86 33.8637C479.15 33.8637 478.58 33.2937 478.58 32.5837C478.58 31.8737 479.15 31.3037 479.86 31.3037H484.98C485.69 31.3037 486.26 31.8737 486.26 32.5837C486.26 33.2937 485.69 33.8637 484.98 33.8637H479.86ZM485.5 26.0137L484.18 28.7437H480.66L479.34 26.0137H485.5ZM470.9 62.0337V57.7637C470.9 47.3337 473.95 40.3537 480.22 36.4337H484.62C487.62 38.3037 489.84 40.8137 491.38 44.0837V62.0437H470.89L470.9 62.0337ZM509.48 64.5937H493.94V59.4737H509.48V64.5937ZM493.94 56.9137V51.7937H509.48V56.9137H493.94ZM509.48 44.1137V49.2337H493.94V44.1137H509.48Z" fill="#FD9711"/>
<path d="M482.42 47.9438C483.13 47.9438 483.7 48.5138 483.7 49.2238H486.26C486.26 47.5538 485.19 46.1338 483.7 45.6038V44.1038H481.14V45.6038C479.65 46.1338 478.58 47.5538 478.58 49.2238C478.58 51.3438 480.3 53.0638 482.42 53.0638C483.13 53.0638 483.7 53.6338 483.7 54.3438C483.7 55.0538 483.13 55.6238 482.42 55.6238C481.71 55.6238 481.14 55.0538 481.14 54.3438H478.58C478.58 56.0138 479.65 57.4338 481.14 57.9638V59.4638H483.7V57.9638C485.19 57.4338 486.26 56.0138 486.26 54.3438C486.26 52.2238 484.54 50.5038 482.42 50.5038C481.71 50.5038 481.14 49.9338 481.14 49.2238C481.14 48.5138 481.71 47.9438 482.42 47.9438Z" fill="#FD9711"/>
<path d="M379.4 131.044C398.332 131.044 413.68 115.696 413.68 96.7638C413.68 77.8314 398.332 62.4838 379.4 62.4838C360.467 62.4838 345.12 77.8314 345.12 96.7638C345.12 115.696 360.467 131.044 379.4 131.044Z" fill="white"/>
<path d="M393.43 84.0337L395.61 81.8537L397.58 83.8237L399.55 81.8537L393.65 75.9537L391.68 77.9237L393.65 79.8937L391.28 82.2637C388.88 80.5337 386.16 79.3337 383.26 78.7537V75.4637H386.04V72.6837H372.13V75.4637H374.91V78.7537C372.02 79.3337 369.29 80.5337 366.89 82.2637L364.52 79.8937L366.49 77.9237L364.52 75.9537L358.62 81.8537L360.59 83.8237L362.56 81.8537L364.74 84.0337C360.64 87.9237 358.22 93.2837 358.22 99.1937C358.22 110.754 367.58 120.154 379.08 120.154C390.58 120.154 399.94 110.754 399.94 99.1937C399.94 93.5737 397.72 88.1237 393.42 84.0337H393.43ZM377.7 75.4537H380.48V78.3737C380.02 78.3437 379.56 78.3237 379.09 78.3237C378.62 78.3237 378.16 78.3437 377.7 78.3737V75.4537ZM379.09 117.364C369.12 117.364 361.01 109.214 361.01 99.1837C361.01 89.1537 369.12 81.1037 379.09 81.1037C389.06 81.1037 397.17 89.2137 397.17 99.1837C397.17 109.154 389.06 117.364 379.09 117.364Z" fill="#FD9711"/>
<path d="M380.48 95.2637V83.8937H377.7V95.2637C376.08 95.8337 374.92 97.3837 374.92 99.1937C374.92 101.494 376.79 103.364 379.09 103.364C381.39 103.364 383.26 101.494 383.26 99.1937C383.26 97.3837 382.1 95.8337 380.48 95.2637ZM379.09 100.584C378.32 100.584 377.7 99.9637 377.7 99.1937C377.7 98.4237 378.32 97.8037 379.09 97.8037C379.86 97.8037 380.48 98.4237 380.48 99.1937C380.48 99.9637 379.86 100.584 379.09 100.584Z" fill="#FD9711"/>
<path d="M377.7 111.714H380.48V114.494H377.7V111.714Z" fill="#FD9711"/>
<path d="M363.79 97.8037H366.57V100.584H363.79V97.8037Z" fill="#FD9711"/>
<path d="M391.61 97.8037H394.39V100.584H391.61V97.8037Z" fill="#FD9711"/>
<path d="M369.26 110.994L367.29 109.024L369.26 107.054L371.23 109.024L369.26 110.994Z" fill="#FD9711"/>
<path d="M388.93 91.3237L386.96 89.3537L388.93 87.3837L390.9 89.3537L388.93 91.3237Z" fill="#FD9711"/>
<path d="M388.93 110.994L386.96 109.024L388.93 107.054L390.9 109.024L388.93 110.994Z" fill="#FD9711"/>
<path d="M369.26 91.3237L367.29 89.3537L369.26 87.3837L371.23 89.3537L369.26 91.3237Z" fill="#FD9711"/>
<path d="M600.97 131.044C619.902 131.044 635.25 115.696 635.25 96.7638C635.25 77.8314 619.902 62.4838 600.97 62.4838C582.037 62.4838 566.69 77.8314 566.69 96.7638C566.69 115.696 582.037 131.044 600.97 131.044Z" fill="white"/>
<path d="M595.32 96.5237L600.96 93.5537L606.6 96.5237L605.52 90.2437L610.09 85.7937L603.78 84.8737L600.96 79.1537L598.14 84.8737L591.83 85.7937L596.4 90.2437L595.32 96.5237ZM599.84 87.2137L600.96 84.9437L602.08 87.2137L604.59 87.5737L602.78 89.3437L603.21 91.8437L600.97 90.6637L598.73 91.8437L599.16 89.3437L597.35 87.5737L599.86 87.2137H599.84Z" fill="#FD9711"/>
<path d="M585.52 80.7637C581.99 80.7637 579.12 83.6337 579.12 87.1637C579.12 90.6937 581.99 93.5637 585.52 93.5637H587.34C588.68 98.2537 592.41 101.954 597.13 103.284V108.934H592.36L589.8 116.704H586.88V119.264H615.05V116.704H612.13L609.57 108.934H604.8V103.284C609.48 101.954 613.18 98.2537 614.51 93.5737H616.41C619.94 93.5737 622.81 90.7037 622.81 87.1737C622.81 83.6437 619.94 80.7737 616.41 80.7737H615.04V78.1237H617.69V75.5637H584.23V78.1237H586.79V80.7737H585.51L585.52 80.7637ZM585.52 91.0037C583.4 91.0037 581.68 89.2837 581.68 87.1637C581.68 85.0437 583.4 83.3237 585.52 83.3237H586.8V89.7237C586.8 90.1537 586.82 90.5837 586.86 91.0037H585.52ZM609.44 116.694H592.49L594.21 111.484H607.72L609.44 116.694ZM602.25 108.924H599.69V103.744C600.11 103.784 600.54 103.804 600.97 103.804C601.4 103.804 601.83 103.784 602.25 103.744V108.924ZM616.42 83.3137C618.54 83.3137 620.26 85.0337 620.26 87.1537C620.26 89.2737 618.54 90.9937 616.42 90.9937H615C615.04 90.5737 615.06 90.1437 615.06 89.7137V83.3137H616.43H616.42ZM612.49 78.1037V89.7137C612.49 96.0637 607.32 101.234 600.97 101.234C594.62 101.234 589.36 96.0637 589.36 89.7137V78.1037H612.49Z" fill="#FD9711"/>
</g>
<defs>
<clipPath id="clip0_70_2366">
<rect width="646.68" height="142.33" fill="white" transform="translate(0.65979 0.813721)"/>
</clipPath>
</defs>
</svg>
