<svg width="147" height="149" viewBox="0 0 147 149" fill="none" xmlns="http://www.w3.org/2000/svg">
<g clip-path="url(#clip0_70_255)">
<path d="M34.0007 125.793C32.8745 126.678 31.8307 127.451 30.8583 128.287C30.5946 128.513 30.4188 128.942 30.3858 129.296C30.3144 130.02 30.3639 130.76 30.3639 131.441C36.2421 133.963 37.0497 138.447 36.1982 141.746C35.2807 145.308 31.6219 148.097 27.8917 148.135C23.9143 148.172 20.3434 145.442 19.3051 141.542C18.915 140.083 18.9865 138.619 19.404 137.176C19.8215 135.727 20.5247 134.386 21.7278 133.453C22.887 132.552 24.2219 131.86 25.6503 130.964C25.6503 130.047 25.6833 128.92 25.6393 127.794C25.5954 126.608 26.0788 125.734 27.0347 125.015C28.5949 123.846 30.1112 122.628 31.6384 121.427C31.8197 121.282 31.9625 121.089 32.1383 120.901C22.7551 117.672 17.6735 111.288 16.8219 101.568C15.0365 103.092 13.2895 104.567 11.581 106.074C11.3557 106.273 11.2129 106.664 11.2074 106.97C11.1909 112.726 11.2074 118.482 11.2184 124.237C11.2184 124.28 11.2623 124.323 11.3392 124.463C13.5862 125.187 15.476 126.496 16.5692 128.695C17.4757 130.513 17.7559 132.407 17.2614 134.424C16.3495 138.147 12.6138 141.059 8.66382 141.033C4.65343 141.011 1.06056 137.996 0.176078 133.93C-0.66995 130.036 1.67036 126.378 6.39493 124.366C6.39493 123.894 6.39493 123.358 6.39493 122.827C6.39493 117.216 6.42789 111.61 6.37295 105.999C6.35647 104.599 6.78498 103.585 7.8947 102.673C10.1306 100.839 12.2677 98.8917 14.4597 96.9982C14.8277 96.6817 15.2453 96.4189 15.8386 95.9897C5.69723 91.8754 1.19241 84.4246 0.719953 74.3561C1.30778 64.2822 5.91148 56.8958 16.0089 52.9263C15.5199 52.5562 15.1574 52.304 14.8277 52.0197C12.5698 50.0618 10.3394 48.061 8.04853 46.1406C7.09263 45.3414 6.63665 44.4616 6.64764 43.2118C6.69159 37.5526 6.66961 31.8988 6.66961 26.2396C6.66961 25.7032 6.66961 25.1668 6.66961 24.5499C4.08209 23.6487 2.01646 22.1897 0.956181 19.647C0.225521 17.9037 0.176078 16.1335 0.593598 14.3097C1.30228 11.2146 4.87318 7.60451 9.60324 7.89417C13.1357 8.10874 16.8164 11.0912 17.5306 14.5618C18.2778 18.1934 16.9043 22.3667 11.4436 24.5445C11.4436 24.9415 11.4436 25.4189 11.4436 25.8963C11.4436 31.0137 11.4601 36.1311 11.4216 41.2485C11.4162 42.1711 11.6799 42.8148 12.416 43.3995C13.9323 44.6065 15.3826 45.9046 17.0637 47.3368C17.1131 46.6824 17.168 46.2318 17.179 45.7759C17.3603 39.8485 19.7995 34.9563 24.3043 31.0298C25.9689 29.5815 27.8697 28.4818 29.9464 27.6718C30.3529 27.5163 30.7484 27.3446 31.3582 27.1032C30.0178 26.0411 28.8861 24.9951 27.6115 24.169C26.1667 23.241 25.6558 22.0287 25.7986 20.4141C25.87 19.588 25.8096 18.7512 25.8096 17.8608C23.1781 16.804 21.0521 15.2645 19.9314 12.6414C19.2282 10.9839 19.1403 9.28885 19.5578 7.58841C20.4203 4.06416 24.1835 0.990498 28.3697 1.03878C32.3196 1.08705 35.9455 4.17144 36.7805 7.86198C37.665 11.7671 35.6158 15.2967 31.0231 17.6194C30.9792 17.7052 30.9187 17.791 30.9023 17.8822C30.5891 19.3788 31.0286 20.5321 32.424 21.3582C33.1876 21.8088 33.8359 22.4471 34.7094 23.1337C34.8742 22.5115 35.0005 22.0126 35.1324 21.5191C37.0881 14.3151 41.5161 9.22985 48.7622 6.72478C57.7554 3.61357 67.7923 7.06272 72.9619 14.8998C73.286 15.3933 73.6047 15.8975 73.9233 16.391C79.2577 8.41449 86.5148 4.32164 96.4254 6.02208C103.77 7.28266 111.401 13.2261 113.253 23.1016C114.357 22.2326 115.417 21.4226 116.439 20.575C116.637 20.4088 116.769 20.0762 116.785 19.8133C116.829 19.0355 116.802 18.2524 116.802 17.3995C114.203 16.3213 112.181 14.7388 111.236 12.0836C110.599 10.2973 110.572 8.5325 111.192 6.74624C112.516 2.89477 116.181 0.523816 120.433 0.861758C123.707 1.1246 127.377 3.90324 128.129 8.12483C128.838 12.0889 126.531 15.5756 121.581 17.7267C121.581 18.762 121.537 19.8831 121.592 20.9988C121.647 22.0877 121.196 22.887 120.356 23.5468C118.982 24.6142 117.62 25.6924 116.137 26.8618C125.553 30.488 130.107 37.2737 130.431 47.0203C130.772 46.7575 131.08 46.5483 131.354 46.3015C132.623 45.1751 133.87 44.0325 135.15 42.9168C135.59 42.5359 135.832 42.139 135.826 41.5328C135.804 35.9219 135.81 30.3163 135.804 24.7054C135.804 24.566 135.749 24.4211 135.722 24.2978C130.766 22.1253 128.767 18.7941 129.739 14.3741C130.569 10.6084 134.299 7.65278 138.227 7.64205C142.309 7.63133 145.956 10.6621 146.835 14.7871C147.66 18.66 145.341 22.2647 140.606 24.3246V25.8748C140.606 31.534 140.578 37.1932 140.628 42.847C140.639 44.1398 140.205 45.0732 139.199 45.9153C136.606 48.0932 134.079 50.3515 131.426 52.6688C131.75 52.8673 131.964 53.0389 132.211 53.1355C140.056 56.3325 144.671 62.0829 146.066 70.215C147.182 76.6895 145.896 82.7242 141.869 88.0883C139.397 91.3819 136.161 93.7314 132.305 95.2763C132.03 95.3836 131.761 95.5123 131.349 95.6893C133.283 97.3844 135.134 99.0151 136.991 100.64C137.776 101.332 138.54 102.051 139.364 102.7C140.309 103.446 140.644 104.369 140.639 105.538C140.606 111.245 140.622 116.953 140.622 122.66C140.622 123.148 140.622 123.631 140.622 124.168C143.056 124.972 144.979 126.287 146.066 128.582C146.868 130.272 146.863 132.042 146.511 133.78C145.759 137.492 142.056 140.518 138.084 140.55C134.013 140.582 130.47 137.589 129.536 134.081C128.426 129.897 130.448 126.469 135.491 123.899C135.513 123.599 135.562 123.261 135.562 122.923C135.568 117.661 135.557 112.393 135.595 107.131C135.601 106.267 135.348 105.677 134.65 105.125C133.134 103.918 131.7 102.625 130.146 101.295C129.129 110.999 124.273 117.618 114.522 120.681C115.197 121.228 115.752 121.695 116.324 122.14C117.543 123.095 118.746 124.066 119.999 124.972C120.85 125.589 121.196 126.394 121.196 127.381C121.196 128.411 121.196 129.446 121.196 130.54C121.751 130.814 122.284 131.061 122.806 131.329C127.602 133.812 128.888 138.957 126.668 142.867C124.828 146.102 121.773 147.657 118.466 147.416C113.829 147.083 111.17 143.607 110.55 140.936C109.594 136.822 111.561 133.308 114.972 131.479C115.406 131.248 115.868 131.055 116.417 130.798C116.417 130.036 116.461 129.253 116.395 128.475C116.373 128.18 116.175 127.821 115.939 127.622C114.961 126.796 113.934 126.018 112.852 125.165C110.533 135.057 104.479 141.167 94.173 142.449C85.6853 143.505 78.093 139.504 73.5277 131.881C73.33 132.117 73.1267 132.3 72.9894 132.525C69.5613 138.168 64.5291 141.58 57.8762 142.411C48.8556 143.538 40.2415 139.482 36.1268 131.919C35.6103 130.969 35.2038 129.956 34.8467 128.936C34.5061 127.965 34.3028 126.952 33.9952 125.782L34.0007 125.793ZM55.0305 10.7104C54.0307 10.7962 53.0088 10.8015 52.0255 10.9786C43.6806 12.4966 37.8682 20.5697 38.6648 27.9937C38.8132 29.3508 37.8023 30.4612 36.4399 30.6597C35.3466 30.8152 34.2534 30.9761 33.1876 31.2497C26.7216 32.9019 21.8761 38.7327 21.4531 45.2502C21.2773 47.9001 21.6784 50.4212 22.7716 52.8619C23.6231 54.7608 22.854 55.9946 20.8268 56.354C15.7507 57.2444 11.5425 59.5564 8.66931 63.8262C5.99389 67.7957 5.027 72.1729 5.74667 76.8987C6.62566 82.6813 9.51534 87.1818 14.6574 90.2447C16.6077 91.4087 18.7612 92.0632 20.9477 92.6586C22.8101 93.1628 23.3649 94.2571 22.7222 96.0166C21.7882 98.5699 21.596 101.15 22.0519 103.843C23.2331 110.811 29.408 116.39 36.6047 116.883C38.6429 117.023 39.5328 118.181 39.2746 120.134C39.0988 121.443 38.934 122.794 39.0933 124.093C40.1262 132.557 47.636 138.254 55.2118 138.216C62.2877 138.179 68.7098 133.507 70.5996 127.091C71.0501 125.552 71.1874 123.916 71.3797 122.317C71.5555 120.874 72.5554 119.994 74.0332 120.145C75.3187 120.273 76.0384 121.105 76.1702 122.58C76.2746 123.701 76.2911 124.844 76.5438 125.938C78.2578 133.399 85.4765 139.321 94.4971 138.045C104.078 136.688 109.561 128.137 108.325 120.456C108.248 119.973 108.22 119.474 108.237 118.986C108.281 117.672 108.979 116.889 110.313 116.674C110.907 116.577 111.522 116.626 112.121 116.529C123.053 114.818 127.844 103.467 124.317 96.0005C123.647 94.5897 124.344 93.2111 125.85 92.7176C126.322 92.562 126.827 92.4977 127.316 92.3797C131.942 91.2317 135.694 88.85 138.271 84.8698C140.941 80.7502 141.836 76.2496 140.952 71.4648C139.732 64.8723 136.057 60.1572 129.536 57.7808C128.228 57.3034 126.827 57.0728 125.465 56.7402C124.267 56.4452 123.713 55.8712 123.751 54.6804C123.767 54.0635 123.982 53.4305 124.218 52.8512C124.949 51.0596 125.531 49.2196 125.509 47.2832C125.438 41.0876 122.603 36.3671 117.241 33.1218C115.39 32.0007 113.319 31.3945 111.127 31.2068C108.989 31.0191 108.22 30.134 108.264 28.0312C108.27 27.6396 108.325 27.2427 108.286 26.8511C108.154 25.5369 108.121 24.1958 107.825 22.9084C106.166 15.6507 99.3096 10.4797 91.5965 10.7747C86.5588 10.9678 82.4715 12.974 79.3565 16.804C77.0986 19.5827 75.9395 22.769 75.9175 26.3415C75.9065 27.8918 74.9671 28.8412 73.5552 28.8573C72.1378 28.8734 71.1984 27.9293 71.116 26.4059C71.0886 25.8641 71.138 25.317 71.0666 24.7859C69.9514 16.2891 62.7656 10.705 55.047 10.7264L55.0305 10.7104ZM27.9137 13.3442C30.0727 13.3656 31.8856 11.6705 31.9241 9.59461C31.9625 7.55623 30.1386 5.71632 28.0455 5.67877C25.9689 5.64122 24.1066 7.42212 24.0626 9.49269C24.0187 11.6384 25.7052 13.3227 27.9082 13.3495L27.9137 13.3442ZM8.81764 12.5985C6.65313 12.5824 4.86768 14.2722 4.84571 16.3588C4.82373 18.3918 6.65313 20.2586 8.71326 20.2907C10.7075 20.3229 12.6962 18.424 12.7291 16.4554C12.7621 14.417 10.9382 12.62 8.81764 12.5985ZM142.144 16.4125C142.127 14.2882 140.413 12.62 138.227 12.6039C136.101 12.5878 134.255 14.3633 134.271 16.4017C134.288 18.4079 136.172 20.2532 138.227 20.2854C140.271 20.3122 142.155 18.4455 142.144 16.4125ZM142.149 132.316C142.171 130.283 140.325 128.421 138.265 128.395C136.249 128.373 134.293 130.251 134.266 132.235C134.238 134.274 136.068 136.071 138.177 136.087C140.325 136.103 142.127 134.386 142.144 132.31L142.149 132.316ZM119.076 135.347C116.9 135.325 115.109 136.999 115.071 139.091C115.033 141.129 116.851 142.974 118.944 143.012C121.004 143.049 122.894 141.242 122.932 139.193C122.971 137.036 121.301 135.363 119.081 135.347H119.076ZM8.81215 136.092C10.9382 136.076 12.7566 134.29 12.7291 132.246C12.7017 130.256 10.724 128.362 8.72974 128.411C6.62017 128.464 4.8512 130.251 4.8567 132.327C4.8567 134.402 6.65313 136.108 8.81764 136.092H8.81215ZM118.993 13.3495C121.136 13.3495 122.954 11.574 122.932 9.49805C122.91 7.44358 121.004 5.62513 118.933 5.67877C116.878 5.72705 115.104 7.48113 115.076 9.48732C115.044 11.574 116.845 13.3495 118.993 13.3442V13.3495ZM31.9296 139.177C31.9461 137.101 30.1276 135.336 27.9796 135.341C25.881 135.352 24.1285 137.015 24.0681 139.059C24.0132 141.108 25.8261 142.964 27.9302 143.012C29.9958 143.055 31.9076 141.22 31.9241 139.177H31.9296Z" fill="#FD9711"/>
<path d="M37.0714 60.5272V53.865C36.6099 53.8274 36.1814 53.7577 35.7529 53.7523C33.8905 53.7362 32.0227 53.7148 30.1603 53.7416C28.5727 53.763 27.441 52.0251 28.1771 50.4158C28.6001 49.4932 29.3967 49.1552 30.3746 49.1445C32.2369 49.1284 34.0993 49.123 35.9672 49.1016C36.3078 49.1016 36.6429 49.0533 37.1043 49.0211C37.0274 46.1513 37.7911 43.6141 39.8622 41.5864C41.9333 39.5641 44.4879 38.6898 47.4874 38.856C47.5478 38.4591 47.6412 38.1372 47.6412 37.8154C47.6687 35.895 47.6687 33.98 47.6852 32.0597C47.7072 30.268 49.6025 29.4419 51.0583 30.0856C52.0032 30.4987 52.3878 31.2336 52.3878 32.2045C52.3878 33.8298 52.3878 35.4498 52.3878 37.0751C52.3878 37.6008 52.3878 38.1319 52.3878 38.7488H59.3318C59.3318 38.089 59.3318 37.4667 59.3318 36.8445C59.3318 35.3211 59.2769 33.7923 59.3483 32.2689C59.4362 30.3592 61.1447 29.3347 62.8532 30.1178C63.7817 30.5416 64.1333 31.3033 64.1278 32.2742C64.1168 33.7976 64.1168 35.3264 64.1168 36.8498C64.1168 37.4399 64.1168 38.0246 64.1168 38.5878C65.2815 38.899 68.9732 38.9526 71.0938 38.6737C71.0938 37.9871 71.0938 37.2629 71.0938 36.5441C71.0938 35.1172 71.0608 33.6904 71.0938 32.2635C71.1322 30.8313 72.0662 29.8872 73.4121 29.8443C74.7965 29.796 75.8403 30.7776 75.8843 32.2689C75.9282 33.8406 75.8898 35.4176 75.8898 36.9893C75.8898 37.5257 75.8898 38.0675 75.8898 38.5771C77.0654 38.899 80.7517 38.9526 82.8667 38.6737C82.8667 37.7886 82.8667 36.8713 82.8667 35.9487C82.8667 34.6184 82.8228 33.288 82.8777 31.9631C82.9272 30.7776 83.7842 29.9837 85.0038 29.855C86.075 29.737 87.1188 30.3646 87.4375 31.4267C87.6023 31.9792 87.6407 32.5853 87.6462 33.1647C87.6737 34.9778 87.6572 36.7962 87.6572 38.7809C88.8439 38.8024 89.9316 38.8239 91.0194 38.8346C92.1236 38.8453 93.2278 38.8346 94.5024 38.8346C94.5408 38.2177 94.5903 37.7027 94.5957 37.1824C94.6122 35.4605 94.6287 33.7386 94.6067 32.0167C94.5848 30.4397 96.4251 29.3615 98.0128 30.091C98.8808 30.488 99.2819 31.196 99.2983 32.0972C99.3258 33.3256 99.3148 34.554 99.3203 35.7824C99.3203 36.7104 99.3203 37.6437 99.3203 38.7273C99.8971 38.7756 100.375 38.8292 100.859 38.8507C105.891 39.0492 109.802 43.1688 109.852 47.8517C109.852 48.195 109.896 48.533 109.934 49.0158C110.379 49.0533 110.813 49.1177 111.247 49.123C113.011 49.1338 114.774 49.123 116.538 49.1338C117.504 49.1338 118.35 49.4234 118.79 50.3353C119.619 52.0411 118.389 53.7952 116.774 53.7362C115.164 53.6772 113.549 53.7362 111.939 53.7362C111.34 53.7362 110.736 53.7362 110.165 53.7362C109.808 54.8144 109.742 58.6122 110.055 60.5219C110.511 60.5219 111 60.5219 111.489 60.5219C113.203 60.5219 114.917 60.4629 116.625 60.5433C118.537 60.6345 119.537 62.1955 118.845 63.8477C118.455 64.7757 117.719 65.1887 116.713 65.1887C114.999 65.1887 113.285 65.1887 111.577 65.1887C111.077 65.1887 110.577 65.1887 109.978 65.1887V71.9368C110.505 71.9583 110.994 71.9958 111.483 72.0012C113.148 72.0065 114.807 71.9797 116.472 72.0119C118.07 72.0387 119.054 72.9238 119.081 74.2917C119.114 75.7185 118.103 76.6573 116.433 76.6895C114.823 76.7216 113.208 76.6895 111.599 76.6895C111.099 76.6895 110.599 76.6895 109.989 76.6895V83.5019C110.758 83.5019 111.494 83.5019 112.236 83.5019C113.747 83.5019 115.257 83.4697 116.768 83.5127C118.098 83.5502 118.949 84.3548 119.076 85.594C119.191 86.7043 118.488 87.7235 117.318 88.0186C116.79 88.1527 116.224 88.1634 115.675 88.1688C113.818 88.1848 111.956 88.1741 110.126 88.1741C109.791 89.4669 109.791 93.5329 110.126 94.9491C111.544 94.9491 112.994 94.9491 114.444 94.9491C115.301 94.9491 116.158 94.9222 117.01 94.992C118.219 95.0885 119.026 95.9629 119.087 97.1323C119.147 98.2641 118.394 99.2404 117.219 99.471C116.73 99.5676 116.219 99.5622 115.719 99.5676C113.862 99.5783 112.005 99.5676 109.995 99.5676C109.923 100.254 109.852 100.823 109.813 101.391C109.522 105.817 105.688 109.529 101.188 109.786C100.644 109.818 100.1 109.883 99.3862 109.942C99.3698 111.814 99.3643 113.622 99.3423 115.429C99.3368 115.966 99.3478 116.518 99.2434 117.039C99.0072 118.176 97.9799 118.905 96.8262 118.83C95.6231 118.75 94.7166 117.967 94.6672 116.776C94.5903 115.059 94.6287 113.332 94.6177 111.61C94.6177 111.084 94.6177 110.559 94.6177 109.937H87.7341C87.7122 110.5 87.6737 111.025 87.6737 111.546C87.6682 113.171 87.7396 114.796 87.6517 116.416C87.5528 118.278 85.9377 119.286 84.2731 118.616C83.3282 118.235 82.8887 117.521 82.8887 116.54C82.8887 114.914 82.8887 113.294 82.8887 111.669C82.8887 111.133 82.8887 110.591 82.8887 109.947H75.9117C75.9117 110.65 75.9117 111.32 75.9117 111.996C75.9117 113.471 75.9502 114.947 75.9007 116.422C75.8513 117.924 74.824 118.879 73.4231 118.83C72.0716 118.782 71.1542 117.859 71.1267 116.4C71.0883 114.287 71.1157 112.173 71.1157 109.877C68.7974 109.84 66.5615 109.829 64.1388 109.867C64.1388 110.489 64.1388 111.015 64.1388 111.535C64.1388 113.209 64.1662 114.882 64.1278 116.551C64.0948 117.87 63.3092 118.664 62.0127 118.814C60.8151 118.948 59.7603 118.213 59.4691 116.985C59.3702 116.561 59.3702 116.111 59.3647 115.671C59.3538 113.804 59.3647 111.943 59.3647 110.103C58.1781 109.781 54.0194 109.749 52.4152 110.055C52.4152 111.084 52.4152 112.152 52.4152 113.225C52.4152 114.308 52.3988 115.392 52.4097 116.47C52.4262 118.208 51.1572 118.777 50.0639 118.82C48.718 118.873 47.7731 117.94 47.7181 116.47C47.6577 114.85 47.6962 113.225 47.6962 111.605C47.6962 111.079 47.6962 110.548 47.6962 109.877C44.6142 109.937 41.9772 109.169 39.8732 107.094C37.8075 105.055 37.0769 102.513 37.1153 99.5676C35.5826 99.5676 34.1872 99.573 32.7918 99.5676C31.8853 99.5622 30.9734 99.589 30.0779 99.5032C28.7869 99.3798 27.9409 98.4358 27.9409 97.2449C27.9409 95.979 28.8309 95.0134 30.2043 94.9651C31.9128 94.9008 33.6323 94.9437 35.3409 94.9437C35.8847 94.9437 36.4231 94.9437 37.0549 94.9437V88.2331C36.5165 88.2063 36.0331 88.1634 35.5441 88.1634C33.8301 88.1527 32.1161 88.2278 30.4075 88.1366C28.4848 88.04 27.4794 86.479 28.1716 84.843C28.5617 83.915 29.2923 83.4912 30.2977 83.4858C31.8084 83.4858 33.3192 83.4858 34.83 83.4912C35.5331 83.4912 36.2363 83.4912 37.0439 83.4912V76.6787C36.2089 76.6787 35.4123 76.6787 34.6212 76.6787C33.1599 76.6787 31.6986 76.7324 30.2372 76.6626C28.8309 76.5983 27.8695 75.5147 27.9354 74.2327C28.0013 72.9667 28.9242 72.0441 30.2922 72.0012C31.8029 71.9529 33.3137 71.9958 34.8245 71.9958C35.5277 71.9958 36.2308 71.9958 37.0384 71.9958V65.1833C36.0056 65.1833 35.0112 65.1833 34.0169 65.1833C32.7094 65.1833 31.3964 65.2316 30.0889 65.1672C28.8638 65.1082 28.0837 64.2822 27.9519 63.0699C27.8365 62.0185 28.4793 61.0207 29.567 60.6989C30.034 60.5594 30.5559 60.5272 31.0503 60.5219C33.0115 60.5004 34.9728 60.5165 37.0879 60.5165L37.0714 60.5272ZM73.3407 105.254C73.9944 105.254 74.6482 105.254 75.3074 105.254C83.4161 105.254 91.5248 105.264 99.6335 105.254C103.248 105.254 105.122 103.408 105.149 99.8841C105.149 99.7392 105.149 99.589 105.149 99.4389C105.149 89.0163 105.155 78.5884 105.16 68.1658C105.16 61.7235 105.177 55.2811 105.155 48.8387C105.138 45.2877 103.292 43.5068 99.6554 43.4478C99.3533 43.4478 99.0511 43.4478 98.749 43.4478C95.4253 43.4478 92.1016 43.4531 88.7779 43.4531C75.2305 43.4531 61.6831 43.4478 48.1357 43.4531C47.3336 43.4531 46.5205 43.4907 45.7294 43.6194C43.8011 43.9252 42.3508 45.3359 42.0377 47.2134C41.9003 48.0341 41.8674 48.8763 41.8619 49.7077C41.8509 66.3313 41.8509 82.9494 41.8619 99.573C41.8619 100.206 41.9223 100.85 42.0377 101.477C42.3838 103.387 43.7627 104.739 45.7184 105.087C46.3557 105.2 47.0149 105.254 47.6687 105.254C56.2279 105.264 64.7925 105.259 73.3517 105.259L73.3407 105.254Z" fill="#FD9711"/>
<path d="M98.3699 74.4419C98.3699 79.9991 98.3424 85.5618 98.3809 91.119C98.3974 93.7957 97.3701 95.8878 95.0902 97.3683C93.7882 98.2158 92.3049 98.4679 90.7721 98.4733C83.3172 98.4787 75.8568 98.4787 68.4019 98.4787C64.5728 98.4787 60.7437 98.5055 56.9146 98.4626C55.8708 98.4518 54.783 98.3606 53.7887 98.071C50.7012 97.1752 48.8169 94.5145 48.7949 91.1137C48.7674 86.6346 48.7784 82.1609 48.7784 77.6818C48.7784 71.041 48.7729 64.4002 48.8004 57.7593C48.8004 56.8367 48.8938 55.8819 49.1355 54.9914C49.9156 52.1913 52.4317 50.212 55.4313 50.1047C58.2001 50.0081 60.9744 50.0564 63.7432 50.0564C72.8133 50.0564 81.8834 50.11 90.9534 50.0349C94.8649 50.0028 97.5129 52.7385 98.1007 55.2757C98.3424 56.3164 98.3589 57.4214 98.3644 58.4942C98.3919 63.8101 98.3754 69.1206 98.3754 74.4365H98.3644L98.3699 74.4419ZM73.5 93.8172C79.0926 93.8172 84.6851 93.7689 90.2722 93.844C92.4862 93.8708 93.8431 93.0501 93.6563 90.4646C93.6563 90.4163 93.6563 90.3681 93.6563 90.3144C93.6563 83.7219 93.6563 77.1347 93.6563 70.5421C93.6563 66.2615 93.6783 61.9863 93.6343 57.7057C93.6124 55.6566 92.7444 54.8841 90.6403 54.8841C79.3563 54.8841 68.0722 54.8841 56.7937 54.8841C54.3985 54.8841 53.5634 55.6673 53.5634 57.9364C53.5634 66.4439 53.5634 74.9515 53.5634 83.4644C53.5634 86.0231 53.5414 88.5818 53.5634 91.1351C53.5799 92.8731 54.4809 93.7367 56.2663 93.8065C56.5685 93.8172 56.8706 93.8172 57.1728 93.8172C62.6115 93.8172 68.0503 93.8172 73.4945 93.8172H73.5Z" fill="#FD9711"/>
<path d="M82.1855 85.2723H78.1532C77.384 83.663 76.6039 82.0323 75.8019 80.3641H64.6277C63.8696 81.9519 63.0895 83.5826 62.2984 85.2454H58.2605C61.5567 77.8805 64.787 70.6657 68.0338 63.408H72.3958C75.6371 70.6442 78.8783 77.8912 82.1855 85.2669V85.2723ZM70.05 67.9621C68.737 70.2526 66.4901 75.6436 66.4022 76.695H73.8461C72.5661 73.7447 71.3355 70.9231 70.05 67.9621Z" fill="#FD9711"/>
<path d="M88.9153 63.3381V85.2507H85.4653C85.1631 84.2637 85.0587 65.6876 85.3664 63.4025C85.9212 63.381 86.5036 63.3542 87.0914 63.3435C87.6408 63.3328 88.1901 63.3435 88.9153 63.3435V63.3381Z" fill="#FD9711"/>
</g>
<defs>
<clipPath id="clip0_70_255">
<rect width="147" height="147.3" fill="white" transform="translate(0 0.82959)"/>
</clipPath>
</defs>
</svg>
