<svg width="140" height="128" viewBox="0 0 140 128" fill="none" xmlns="http://www.w3.org/2000/svg">
<g clip-path="url(#clip0_70_2337)">
<path d="M85.1465 50.9819C84.4681 50.9819 83.8014 50.6896 83.357 50.1517C82.7956 49.4852 82.6552 48.5614 82.9827 47.7546L89.0061 33.1147C89.1465 32.7639 89.3687 32.4599 89.6611 32.2143L120.538 6.19692C121.521 5.3667 123.006 5.49533 123.837 6.47756L133.275 17.6797C133.673 18.1591 133.872 18.7671 133.813 19.3869C133.755 20.0066 133.462 20.5796 132.994 20.9771L102.117 46.9945C101.825 47.2401 101.486 47.4038 101.123 47.4857L85.6611 50.9235C85.4973 50.9585 85.3219 50.9819 85.1581 50.9819H85.1465ZM93.1114 35.43L89.0178 45.3926L99.5441 43.0539L128.187 18.9191L121.766 11.2952L93.1114 35.43Z" fill="white"/>
<path d="M131.474 21.5267C131.404 21.5267 131.345 21.5267 131.275 21.5267C130.655 21.4683 130.082 21.1759 129.684 20.7082L120.246 9.5061C119.415 8.52387 119.544 7.03883 120.527 6.20861L126.714 0.993437C127.193 0.595867 127.801 0.397083 128.421 0.455549C129.041 0.514015 129.614 0.806345 130.012 1.27407L139.451 12.4762C140.281 13.4584 140.152 14.9434 139.17 15.7737L132.994 20.9771C132.573 21.3279 132.035 21.5267 131.486 21.5267H131.474ZM125.334 8.26662L131.755 15.8906L134.351 13.704L127.93 6.07999L125.334 8.26662Z" fill="white"/>
<path d="M27.1465 127.444C26.8424 127.444 26.5267 127.385 26.2343 127.257C25.3688 126.894 24.8074 126.041 24.8074 125.105V101.497H18.515C8.30444 101.497 -0.0113525 93.1944 -0.0113525 82.9745V37.0319C-0.0113525 27.8527 6.83075 19.9715 15.9068 18.6969L99.3337 6.8634C102.983 6.33721 106.667 6.91018 109.965 8.50045L107.93 12.71C105.462 11.5173 102.714 11.0963 99.9886 11.4939L16.5734 23.3274C9.78982 24.2863 4.67871 30.1797 4.67871 37.0319V82.9745C4.67871 90.6102 10.8892 96.8193 18.5267 96.8193H27.1582C28.4448 96.8193 29.4974 97.8717 29.4974 99.1579V119.563L52.1641 97.4858C52.5968 97.0648 53.1816 96.8193 53.8015 96.8193H101.954C109.591 96.8193 115.802 90.6102 115.802 82.9745V39.3004H120.48V82.9745C120.48 93.1827 112.176 101.497 101.954 101.497H54.7372L28.784 126.777C28.3395 127.21 27.7547 127.444 27.1465 127.444Z" fill="white"/>
<path d="M60.2341 48.9824H27.1464V53.6596H60.2341V48.9824Z" fill="white"/>
<path d="M93.3102 68.475H27.1464V73.1523H93.3102V68.475Z" fill="white"/>
</g>
<defs>
<clipPath id="clip0_70_2337">
<rect width="140" height="127" fill="white" transform="translate(0.000244141 0.443848)"/>
</clipPath>
</defs>
</svg>
