<svg width="229" height="156" viewBox="0 0 229 156" fill="none" xmlns="http://www.w3.org/2000/svg">
<g clip-path="url(#clip0_70_206)">
<path d="M207.332 -5.90636e-05C208.565 0.601882 209.862 1.0976 211.022 1.81462C213.56 3.37258 215.002 5.67412 215.51 8.55104C216.308 13.0479 214.648 16.8277 210.804 19.2266C206.244 22.077 199.735 21.1121 196.371 16.4736C195.646 15.4734 194.975 14.296 194.767 13.1187C194.558 11.9679 194.032 11.9325 193.144 11.9325C189.327 11.9502 185.519 11.9414 181.702 11.9414C181.494 11.9414 181.294 11.9414 181.086 11.9414C176.843 11.8086 174.848 14.5527 174.631 18.2529C174.522 20.103 174.567 21.9708 174.622 23.8297C174.73 27.884 171.702 31.3097 167.713 32.2746C166.553 32.5578 165.32 32.6464 164.114 32.6818C161.73 32.7437 159.345 32.7083 156.97 32.6995C153.253 32.6818 151.086 35.3463 150.878 37.8956C150.751 39.4005 150.569 40.9054 150.542 42.4191C150.488 45.4111 150.533 48.3942 150.524 51.3862C150.524 53.1655 150.388 53.0681 152.328 53.0681C157.369 53.0681 162.401 53.0415 167.441 53.0769C169.49 53.0947 171.421 53.6081 173.198 54.6615C175.501 56.0247 176.788 58.043 177.051 60.6101C177.296 62.9736 177.36 65.3459 177.423 67.7271C177.523 71.5512 179.844 73.8174 183.806 73.8262C191.231 73.8351 198.647 73.8262 206.072 73.8262C207.658 73.8262 207.695 73.8262 208.148 72.3479C209.78 67.0632 214.757 64.3102 220.088 65.1069C223.932 65.6823 226.67 67.9661 228.22 71.507C228.447 72.0204 228.737 72.5161 228.991 73.0118V77.8008C228.311 79.1197 227.758 80.5361 226.915 81.7488C225.174 84.2451 222.599 85.4401 219.571 85.7765C216.434 86.1217 213.687 85.1746 211.276 83.2891C209.762 82.1117 208.864 80.4564 208.211 78.7125C207.459 76.7208 208.012 76.9775 205.727 76.9775C198.511 76.9598 191.285 76.9598 184.069 76.9775C177.74 76.9952 174.313 72.6577 174.232 67.435C174.205 65.7089 174.214 63.9827 174.232 62.2477C174.25 58.4325 171.385 56.2371 168.13 56.2283C162.745 56.2106 157.369 56.2106 151.984 56.2283C150.578 56.2283 150.551 56.2548 150.551 57.6712C150.533 61.2563 150.461 64.8502 150.56 68.4353C150.687 72.5515 147.287 75.9418 143.208 76.5792C141.286 76.8802 139.309 76.9067 137.351 76.951C136.435 76.9687 136.2 77.2874 136.209 78.1283C136.254 80.722 135.991 83.3422 136.281 85.9004C136.626 88.8393 133.616 91.5658 130.524 91.4064C126.309 91.1851 122.084 91.3533 117.859 91.3533C111.05 91.3533 104.233 91.3356 97.4241 91.3622C95.6743 91.3622 94.2872 90.7868 93.1449 89.4944C92.4014 88.6534 92.0025 87.7505 92.0116 86.6174C92.0388 79.2437 92.0116 71.861 92.0297 64.4873C92.0297 61.8139 94.0061 59.8842 96.7532 59.8488C99.9535 59.8045 103.154 59.8045 106.354 59.8488C107.36 59.8665 107.651 59.539 107.596 58.5918C107.333 53.3602 105.892 48.6067 101.857 44.8799C99.6815 42.8705 97.0433 41.6932 94.1693 41.1267C91.8666 40.6752 89.5003 40.3742 87.1522 40.3565C77.6872 40.268 68.2132 40.2769 58.7482 40.3477C55.6022 40.3742 52.7102 39.7015 50.0447 38.1612C46.9169 36.3554 45.0765 33.6024 44.2062 30.1766C43.5716 27.6892 43.8617 25.1752 43.8073 22.6612C43.771 20.9085 43.8073 20.8908 42.1391 20.3774C38.7393 19.324 36.3459 17.1553 35.267 13.8888C33.4538 8.40055 35.9107 2.49622 41.7855 0.584178C42.2026 0.42484 42.5834 0.194686 42.9823 -5.90636e-05C44.6142 -5.90636e-05 46.2551 -5.90636e-05 47.887 -5.90636e-05C48.576 0.345172 49.2651 0.690402 49.9631 1.02678C55.9468 3.85059 58.585 11.7909 52.9459 17.8988C51.8126 19.1204 50.3258 19.9525 48.6214 20.3508C47.0167 20.7226 47.0167 20.758 47.0076 22.2983C47.0076 23.9625 46.9804 25.6178 47.0167 27.282C47.1436 33.1509 50.4164 35.7092 55.3212 37.037C56.7899 37.4353 58.3946 37.453 59.9449 37.4619C66.6901 37.5062 73.4352 37.4885 80.1804 37.4708C81.3227 37.4708 82.465 37.3822 83.6074 37.3291C83.6799 36.2226 83.7252 35.1161 83.834 34.0096C83.9609 32.7703 83.8975 31.4336 84.3598 30.3183C85.6291 27.2909 87.7234 25.069 91.3226 24.7061C92.5918 24.5821 93.8701 24.3874 95.1485 24.3785C101.957 24.3431 108.775 24.3608 115.583 24.3608C117.233 24.3608 117.252 24.3608 117.777 22.9799C119.554 18.3503 126.29 16.2789 130.678 20.28C134.667 23.9182 133.679 30.4511 129.282 32.7969C126.2 34.4433 122.99 34.2397 120.207 32.071C118.965 31.1061 117.95 29.9111 117.496 28.4151C117.279 27.6981 117.007 27.4059 116.272 27.4856C115.937 27.521 115.592 27.4856 115.248 27.4856C107.959 27.4856 100.67 27.5564 93.3806 27.4591C89.2736 27.3971 87.0253 29.9642 86.7351 33.8503C86.6535 34.9656 86.7895 36.0898 86.8258 37.214C87.95 37.3026 89.0833 37.4088 90.2165 37.4708C95.5111 37.7363 100.307 39.3385 104.215 42.8882C107.315 45.6943 109.11 49.3237 109.981 53.3425C110.389 55.2014 110.561 57.1046 110.778 58.999C110.842 59.5921 111.068 59.8222 111.658 59.8045C112.138 59.7868 112.61 59.8045 113.09 59.8045C119.019 59.8045 124.949 59.9196 130.869 59.7603C133.888 59.6806 136.463 61.991 136.245 65.0981C136.064 67.612 136.245 70.1437 136.191 72.6754C136.172 73.5341 136.444 73.8705 137.342 73.8262C138.629 73.7642 139.935 73.9059 141.222 73.7908C145.429 73.4102 147.596 71.5955 147.614 67.4173C147.659 58.1757 147.614 48.943 147.641 39.7015C147.641 38.5241 147.741 37.3114 148.076 36.1872C149.11 32.7526 151.349 30.5573 155.102 29.8757C158.348 29.2826 161.603 29.6632 164.858 29.5924C166.335 29.557 167.641 29.2383 168.919 28.5567C170.497 27.7069 171.276 26.388 171.349 24.6972C171.439 22.8383 171.331 20.9705 171.412 19.1116C171.521 16.6507 172.101 14.3403 173.597 12.2512C174.549 10.9234 175.8 10.1267 177.26 9.58673C178.71 9.05561 180.225 8.77234 181.811 8.79005C185.628 8.83431 189.445 8.79005 193.252 8.8166C194.096 8.8166 194.449 8.67497 194.73 7.71009C195.845 3.89485 198.275 1.25693 202.4 0.354024C202.563 0.318615 202.681 0.115018 202.826 -0.00891113H207.323L207.332 -5.90636e-05ZM114.115 87.3433C119.427 87.3433 124.74 87.3433 130.053 87.3433C132.066 87.3433 132.12 87.2902 132.12 85.3339C132.12 78.8188 132.12 72.3125 132.12 65.7974C132.12 63.8499 132.066 63.8057 130.044 63.7968C119.418 63.7968 108.802 63.7968 98.1765 63.7968C96.1548 63.7968 96.1095 63.8499 96.1004 65.8062C96.1004 72.3213 96.1004 78.8276 96.1004 85.3427C96.1004 87.2902 96.1639 87.3433 98.1856 87.3433C103.498 87.3433 108.811 87.3433 114.124 87.3433H114.115Z" fill="#FD9711"/>
<path d="M57.497 128.452C63.1543 128.452 68.8115 128.382 74.4597 128.479C78.8658 128.55 80.8785 125.629 80.9963 122.017C81.0326 120.902 80.9057 119.786 80.8513 118.671C79.718 118.6 78.5757 118.441 77.4515 118.485C75.5657 118.556 73.8432 118.113 72.2113 117.255C69.6728 115.918 68.5395 113.59 67.9774 111.023C67.6148 109.367 67.5876 107.615 67.5785 105.906C67.5332 99.5238 67.5695 93.1415 67.5604 86.7592C67.5604 84.2629 67.8505 84.5993 65.2304 84.5904C60.3257 84.5727 55.4209 84.5904 50.5162 84.5904C46.3276 84.5904 42.9279 82.3685 41.7311 78.8011C41.3141 77.5707 41.0784 76.2518 41.024 74.9594C40.9152 72.3745 40.9877 69.772 40.9787 67.1784C40.9696 63.9651 38.549 61.3006 34.9497 61.3803C29.9815 61.4865 25.0042 61.398 20.027 61.4068C17.833 61.4068 15.775 60.9819 13.7895 59.9905C11.2873 58.7424 9.92735 56.7949 9.43779 54.1658C9.37432 53.8472 9.1386 53.5285 9.17487 53.2275C9.30179 52.0945 8.49491 51.82 7.65177 51.5722C5.09513 50.8198 3.00994 49.4388 1.62283 47.1727C-2.35718 40.6753 1.44151 33.213 7.97815 31.5045C13.7351 29.9908 19.8003 33.4077 21.133 39.3652C22.3751 44.9331 19.4467 50.0496 13.4813 51.82C12.348 52.1564 12.0941 52.4751 12.3571 53.5462C13.0733 56.5205 15.1313 58.1316 18.7668 58.2378C23.9435 58.3971 29.1293 58.3706 34.297 58.2555C40.607 58.1139 44.2062 62.7435 44.1971 67.9574C44.1971 70.2146 44.2243 72.4808 44.1971 74.7381C44.1155 80.3503 47.1073 81.4745 50.8154 81.6958C56.0374 82.0145 61.3048 81.7666 66.5541 81.7932C67.3791 81.7932 67.5967 81.4745 67.5967 80.7309C67.5785 76.6767 67.5513 72.6224 67.6148 68.5682C67.6239 67.7184 67.2159 67.3554 66.545 67.143C64.3419 66.4348 62.846 65.0008 61.9576 62.956C60.0084 58.4148 62.5559 53.5551 67.1615 52.2361C72.311 50.7666 77.8504 55.0511 77.3155 60.3534C76.9891 63.6553 75.3482 66.0807 72.039 67.1695C71.0327 67.4971 70.7607 67.9485 70.7607 68.9754C70.8061 82.2712 70.797 95.567 70.7789 108.863C70.7789 110.447 71.3047 111.864 72.1388 113.147C73.1088 114.634 74.5866 115.351 76.4361 115.351C81.6128 115.342 86.7895 115.351 91.9753 115.369C94.5229 115.378 96.7622 116.13 98.4304 118.122C99.7903 119.742 100.126 121.689 100.18 123.672C100.253 126.593 100.198 129.524 100.198 132.445C100.198 136.402 102.873 138.739 106.653 138.836C108.902 138.898 111.15 138.836 113.398 138.862C114.251 138.871 114.704 138.65 115.003 137.756C116.028 134.684 118.43 132.985 121.558 132.56C125.529 132.011 130.026 134.702 130.47 139.562C130.878 143.988 128.439 147.591 122.909 148.343C120.116 148.724 116.164 146.263 115.103 143.342C114.686 142.2 114.16 141.943 113.072 141.978C111.096 142.04 109.119 142.049 107.143 141.978C104.369 141.881 101.839 141.12 99.8356 139.093C98.0043 137.243 97.0977 135.021 97.0251 132.507C96.9345 129.382 96.9073 126.257 97.0251 123.132C97.1249 120.282 95.0669 118.299 92.2745 118.467C90.0352 118.6 87.7777 118.538 85.5294 118.476C84.5683 118.45 84.251 118.724 84.2329 119.707C84.2057 121.344 84.2148 123.053 83.7705 124.611C82.737 128.32 80.4977 130.931 76.2548 131.303C75.185 131.4 74.1152 131.613 73.0454 131.613C62.2114 131.639 51.3775 131.639 40.5435 131.613C39.1926 131.613 37.9869 131.79 37.044 132.843C35.9107 134.1 36.1464 135.109 37.7693 135.631C42.7737 137.243 45.2216 140.952 45.3938 145.316C45.6658 152.229 39.0839 157.523 32.0486 155.664C27.4793 154.46 24.8954 151.574 24.2155 147.113C23.2817 141.005 27.1892 137.074 31.3233 135.676C31.6406 135.569 31.9488 135.392 32.2752 135.357C32.9099 135.286 33.1365 135.056 33.2362 134.374C33.8165 130.595 36.3731 128.506 40.3622 128.497C46.0829 128.479 51.8126 128.497 57.5333 128.497L57.497 128.452Z" fill="#FD9711"/>
<path d="M190.17 119.494C189.699 117.989 189.318 116.599 188.203 115.528C186.507 113.891 184.377 113.306 182.11 113.298C173.525 113.253 164.939 113.28 156.354 113.28C151.177 113.28 146 113.271 140.823 113.28C139.092 113.28 137.478 112.82 136 111.988C133.172 110.385 132.047 107.756 131.721 104.764C131.567 103.321 131.648 101.843 131.703 100.382C131.739 99.4884 131.358 99.2051 130.506 99.2848C130.035 99.3291 129.554 99.2848 129.074 99.2848C116.064 99.2848 103.045 99.2848 90.0352 99.2848C88.5212 99.2848 87.0978 99.0192 85.7107 98.4527C84.3508 97.895 83.7977 96.9213 83.8431 95.4873C83.9247 92.9556 83.6074 93.3185 85.9645 93.3185C104.704 93.3097 123.435 93.3097 142.174 93.3185C144.658 93.3185 144.305 92.9202 144.368 95.6112C144.404 96.9656 143.842 97.8773 142.573 98.4261C140.996 99.1166 139.346 99.3202 137.641 99.2848C136.698 99.2671 135.755 99.3645 134.822 99.4087C134.74 100.382 134.622 101.356 134.595 102.33C134.541 104.056 134.776 105.747 135.592 107.314C136.535 109.119 138.076 110.102 140.152 110.111C145.193 110.137 150.234 110.199 155.275 110.075C158.248 110.005 160.959 107.827 160.787 104.658C160.696 103.065 160.723 101.462 160.805 99.8779C160.841 99.0104 160.569 98.6652 159.708 98.3553C157.296 97.479 155.538 95.8148 154.867 93.3716C153.552 88.5915 155.946 84.4841 160.76 83.3599C165.556 82.2357 169.49 85.7057 170.352 89.4413C171.14 92.8936 169.255 97.2046 164.975 98.4527C164.06 98.7183 163.969 99.0901 163.987 99.7982C164.005 100.993 163.951 102.197 164.005 103.383C164.105 105.765 163.543 107.951 161.984 110.04C162.627 110.075 163.126 110.137 163.634 110.137C169.218 110.137 174.803 110.173 180.397 110.129C182.727 110.111 184.957 110.5 187.115 111.306C190.533 112.572 192.346 115.139 192.99 118.529C193.144 119.317 193.343 119.547 194.15 119.751C198.266 120.822 200.904 123.424 202.074 127.426C202.989 130.559 202.264 133.445 200.478 136.083C197.432 140.589 190.515 141.969 185.41 138.393C180.315 134.817 179.762 127.833 183.452 123.309C184.703 121.778 186.371 120.769 188.248 120.096C188.81 119.892 189.39 119.742 190.17 119.503V119.494ZM114.314 95.3279C113.435 95.3279 112.564 95.3102 111.685 95.3456C111.558 95.3456 111.35 95.5935 111.35 95.7263C111.35 95.859 111.567 96.0892 111.694 96.0892C113.308 96.1158 114.931 96.1158 116.544 96.0892C116.662 96.0892 116.88 95.8413 116.88 95.7174C116.88 95.5846 116.662 95.3545 116.535 95.3545C115.792 95.3191 115.058 95.3368 114.314 95.3368V95.3279Z" fill="#FD9711"/>
<path d="M45.3123 116.9C40.3531 117.246 34.85 113.236 34.8681 106.853C34.8772 101.489 39.791 96.8151 45.6296 96.9391C51.2959 97.063 56.11 101.507 56.0646 107.119C56.0284 112.191 51.4591 117.308 45.3213 116.9H45.3123ZM42.1663 99.3291C40.6795 99.2583 39.782 100.108 38.9388 101.232C40.3169 101.327 41.3897 100.689 42.1573 99.3203L42.3205 99.0193L42.1663 99.3291V99.3291ZM48.7574 99.2671L48.431 99.0547L48.6667 99.3557C50.0448 101.746 49.6277 101.507 51.9486 101.135C51.0602 100.126 50.1898 99.2671 48.7574 99.2671V99.2671ZM48.295 114.873C50.0629 114.873 51.1236 113.705 52.3838 112.625C50.761 112.182 49.6187 112.439 48.975 113.944C48.8299 114.289 48.5307 114.581 48.3041 114.891L48.1318 115.192L48.295 114.882V114.873ZM49.8816 107.694C48.8571 107.694 47.9868 107.747 47.1255 107.677C46.1463 107.597 45.8562 107.96 45.8562 108.907C45.8562 110.925 45.8109 110.925 47.7601 110.89C49.0838 110.863 49.2107 110.784 49.5189 109.518C49.6459 109.013 49.7274 108.5 49.8906 107.685L49.8816 107.694ZM47.6876 106.136C49.6549 106.145 50.1264 105.384 49.2469 103.605C49.2197 103.543 49.1835 103.49 49.1472 103.428C48.8208 102.896 46.4455 102.657 46.0376 103.118C45.956 103.206 45.9016 103.348 45.9016 103.463C45.8834 104.127 45.8109 104.8 45.9197 105.446C45.965 105.703 46.373 105.986 46.6812 106.101C46.9714 106.216 47.3521 106.127 47.6876 106.127V106.136ZM43.0729 107.694C41.9185 107.688 41.3383 107.995 41.3323 108.615C41.3323 110.191 41.8309 110.872 43.0276 110.89C44.0732 110.908 44.6021 110.415 44.6142 109.412C44.6263 108.273 44.1125 107.7 43.0729 107.694V107.694ZM52.8734 107.703C51.3956 107.685 51.4047 107.685 51.1418 109.049C51.0964 109.305 50.9967 109.553 50.906 109.792C50.5978 110.545 50.8154 110.925 51.6857 110.881C52.0212 110.863 52.3657 110.899 52.7011 110.881C53.6168 110.819 54.8045 108.774 54.3693 107.986C54.2877 107.845 54.061 107.73 53.8888 107.712C53.5533 107.668 53.2088 107.703 52.8734 107.703V107.703ZM38.0141 106.119C38.9872 106.13 39.6067 105.623 39.8726 104.596C39.9542 104.277 40.063 103.968 40.0993 103.649C40.1174 103.472 40.0902 103.233 39.9814 103.109C39.6188 102.666 37.5245 102.888 37.2616 103.428C36.9443 104.074 36.6904 104.755 36.5182 105.446C36.4728 105.623 36.7811 106.004 37.0077 106.101C37.2979 106.216 37.6786 106.127 38.0141 106.127V106.119ZM44.6142 104.614C44.6263 103.481 44.176 102.911 43.2633 102.905C41.8672 102.896 41.3957 103.507 41.3232 105.171C41.2688 106.446 42.1754 106.101 42.8463 106.119C44.596 106.163 44.596 106.145 44.6142 104.614V104.614ZM50.761 103.091C50.906 103.941 51.0511 104.764 51.178 105.596C51.2868 106.313 51.867 106.145 52.2931 106.11C52.9912 106.057 53.6803 105.897 54.3693 105.765C54.4055 105.765 54.4055 105.517 54.3965 105.384C54.2061 103.463 53.4173 102.808 51.4047 102.914C51.2143 102.923 51.0239 103.012 50.761 103.091V103.091ZM36.355 107.774C36.5363 108.376 36.6723 108.801 36.7992 109.226C36.8989 109.536 36.908 109.916 37.1075 110.146C37.3704 110.456 37.7602 110.793 38.1319 110.846C38.7122 110.934 39.3196 110.793 39.918 110.748C39.8636 110.199 39.8001 109.651 39.7457 109.102C39.7457 109.04 39.7276 108.969 39.7366 108.907C39.918 107.739 39.2017 107.606 38.277 107.685C37.6877 107.739 37.0984 107.747 36.355 107.783V107.774ZM42.0032 114.723C40.9757 112.805 39.7971 112.052 38.4674 112.466C39.3468 113.714 40.5798 114.342 42.0032 114.723ZM46.2007 114.679C46.9986 113.873 47.6785 113.174 48.4945 112.351C45.8381 111.943 45.5933 112.2 46.2007 114.679ZM44.3241 114.873C44.8952 112.519 44.8136 111.572 42.4383 112.501L44.3241 114.873ZM45.9378 99.0547C45.9378 99.9753 45.8018 100.577 45.9922 101.064C46.1101 101.365 46.6994 101.533 47.1074 101.648C47.3068 101.701 47.7873 101.498 47.7873 101.436C47.751 101.082 47.7148 100.657 47.4972 100.391C47.1436 99.9665 46.654 99.6478 45.9469 99.0458L45.9378 99.0547ZM42.2842 101.507C44.8408 101.693 44.8771 101.648 44.2969 99.3734L42.2842 101.507Z" fill="#FD9711"/>
<path d="M41.4319 42.2952C43.1364 42.2952 44.8408 42.2775 46.5452 42.2952C48.0774 42.3129 48.2134 42.428 48.2315 43.8443C48.2587 46.1724 48.2587 48.5005 48.2315 50.8198C48.2134 51.9971 48.023 52.183 46.7809 52.1918C43.1726 52.2184 39.5553 52.1918 35.947 52.2095C35.2398 52.2095 34.7956 52.1122 34.8137 51.2535C34.859 48.5979 34.85 45.9334 34.8137 43.2778C34.8046 42.4634 35.1673 42.2687 35.9198 42.2864C37.7602 42.3218 39.6006 42.2952 41.441 42.2952H41.4319ZM36.7176 43.5168C38.1682 44.9331 39.4555 46.1813 40.7339 47.4471C41.3775 48.0845 41.9215 47.9163 42.4564 47.3232C43.5715 46.1016 44.6776 44.88 45.9287 43.5079H36.7266L36.7176 43.5168ZM46.4727 51.0145C45.5207 50.1204 44.8589 49.5628 44.2696 48.9343C43.635 48.2615 43.0638 47.9428 42.2207 48.7041C41.9668 48.9254 41.3231 48.952 40.9696 48.8103C39.5371 48.2527 39.5462 48.2084 38.4945 49.2352C37.9506 49.7575 37.4338 50.2975 36.7085 51.0233H46.4817L46.4727 51.0145ZM47.0076 44.1453C46.0738 45.0571 45.3122 45.8006 44.5507 46.5265C44.0883 46.978 44.0248 47.4383 44.4963 47.9074C45.2669 48.6687 46.0375 49.4211 46.9985 50.3594V44.1364L47.0076 44.1453ZM36.1283 44.6676V49.8106C39.7728 46.5973 39.4827 47.4914 36.5907 44.7826C36.5544 44.7472 36.4637 44.7472 36.1283 44.6764V44.6676Z" fill="#FD9711"/>
<path d="M162.21 79.0401C161.548 77.5972 160.905 76.1897 160.27 74.7822C159.481 73.0384 158.656 71.3122 157.931 69.5506C156.607 66.3373 157.831 64.0181 160.633 62.646C162.836 61.5661 166.29 62.947 167.224 65.5672C167.623 66.6826 167.777 67.8511 167.224 69.0107C165.71 72.2417 164.223 75.4727 162.709 78.7037C162.664 78.8011 162.509 78.8453 162.201 79.0489L162.21 79.0401ZM162.455 70.6129C164.123 70.6306 165.955 69.0195 166.009 67.4704C166.081 65.6292 164.314 63.8057 162.482 63.8411C160.451 63.8765 159.073 65.2485 159.073 67.2403C159.073 69.2762 160.397 70.5952 162.455 70.6129V70.6129Z" fill="#FD9711"/>
<path d="M110.389 116.077C113.48 116.183 117.941 118.476 119.4 123.123C119.69 124.044 119.781 125.053 119.808 126.027C119.817 126.39 119.382 126.762 119.155 127.133C118.784 126.894 118.312 126.717 118.058 126.381C117.85 126.098 117.859 125.637 117.823 125.257C117.478 121.512 114.224 118.388 110.452 118.06C110.117 118.033 109.763 118.06 109.455 117.945C108.847 117.724 108.63 117.201 108.847 116.661C108.956 116.396 109.409 116.228 109.736 116.104C109.972 116.015 110.271 116.086 110.389 116.086V116.077Z" fill="#FD9711"/>
<path d="M116.961 126.301C116.798 126.478 116.535 127.027 116.136 127.151C115.42 127.381 115.085 126.877 114.913 126.195C114.668 125.248 114.477 124.23 113.97 123.424C113.253 122.309 112.247 121.38 110.76 121.211C110.37 121.167 109.99 120.946 109.6 120.902C108.911 120.813 108.321 120.53 108.476 119.804C108.63 119.043 109.4 118.804 110.08 118.972C111.177 119.246 112.311 119.556 113.281 120.105C115.538 121.388 116.581 123.495 116.971 126.301H116.961Z" fill="#FD9711"/>
<path d="M109.174 122.052C111.957 122.079 113.761 123.991 113.707 126.204C113.698 126.673 113.725 127.151 113.072 127.24C112.465 127.328 112.011 127.116 111.767 126.558C111.694 126.381 111.712 126.177 111.685 125.983C111.522 124.779 110.833 124.115 109.582 124.026C109.446 124.018 109.301 124.026 109.183 123.991C108.621 123.779 108.213 123.362 108.43 122.796C108.575 122.424 109.047 122.176 109.174 122.052V122.052Z" fill="#FD9711"/>
<path d="M110.443 126.363C110.325 126.939 109.971 127.302 109.328 127.24C108.693 127.178 108.34 126.797 108.403 126.169C108.467 125.549 108.856 125.204 109.509 125.257C110.144 125.31 110.452 125.708 110.452 126.363H110.443Z" fill="#FD9711"/>
<path d="M130.479 52.8557C131.005 49.5892 132.9 46.8097 136.336 45.1101C137.668 44.4462 139.11 44.0567 140.633 44.278C140.95 44.3223 141.376 44.5967 141.485 44.8711C141.657 45.3137 141.521 45.7917 140.905 45.9333C140.515 46.0219 140.134 46.1812 139.745 46.2255C135.529 46.6681 132.755 50.0318 132.492 53.5196C132.474 53.7143 132.501 53.9179 132.464 54.1126C132.347 54.6969 131.984 55.1572 131.367 54.989C131.014 54.8916 130.715 54.4402 130.497 54.0772C130.379 53.8825 130.479 53.5638 130.479 52.8557V52.8557Z" fill="#FD9711"/>
<path d="M139.908 47.1019C140.515 47.1019 140.878 46.9956 141.041 47.1284C141.376 47.3851 141.766 47.7392 141.839 48.111C141.884 48.3589 141.458 48.7307 141.177 48.9874C141.059 49.0936 140.787 49.0316 140.588 49.0582C137.995 49.43 136.29 50.802 135.628 53.316C135.547 53.6347 135.42 53.9445 135.393 54.2632C135.347 54.8651 135.048 55.4582 134.477 55.2989C134.024 55.1661 133.534 54.5288 133.425 54.033C133.317 53.5108 133.58 52.8823 133.77 52.3334C134.74 49.5096 137.424 47.2258 139.899 47.1107L139.908 47.1019Z" fill="#FD9711"/>
<path d="M140.542 50.2443C140.696 50.2443 140.941 50.1735 141.095 50.2621C141.395 50.4391 141.83 50.6692 141.866 50.926C141.911 51.2092 141.63 51.5987 141.395 51.8554C141.231 52.0325 140.914 52.1741 140.669 52.1741C139.273 52.1741 138.82 53.0505 138.62 54.1835C138.593 54.3163 138.657 54.5022 138.584 54.573C138.276 54.8828 137.968 55.3431 137.605 55.3963C136.988 55.4848 136.698 55.0068 136.59 54.4048C136.281 52.7052 138.294 49.9788 140.542 50.2443Z" fill="#FD9711"/>
<path d="M141.032 55.4494C140.234 55.3786 139.899 54.9979 139.862 54.2898C139.817 53.4754 140.461 53.2541 141.005 53.1744C141.621 53.0859 141.911 53.5993 141.948 54.1924C141.993 54.8917 141.648 55.2901 141.041 55.4405L141.032 55.4494Z" fill="#FD9711"/>
<path d="M187.84 22.2629C189.599 23.9802 191.358 25.6975 193.116 27.4148C193.479 27.7689 193.452 28.0876 193.107 28.424C191.34 30.1324 189.581 31.8497 187.432 33.9388C187.396 32.6995 187.332 31.956 187.359 31.2035C187.378 30.5219 187.106 30.2564 186.408 30.2741C184.984 30.3006 183.561 30.2652 182.137 30.2918C181.476 30.3006 181.195 30.1059 181.131 29.4066C180.886 26.3614 180.859 26.3614 183.996 26.3614C184.812 26.3614 185.628 26.3349 186.435 26.3614C187.16 26.388 187.378 26.0516 187.359 25.4054C187.332 24.4228 187.359 23.4403 187.359 22.4665L187.858 22.2718L187.84 22.2629Z" fill="#FD9711"/>
<path d="M114.314 95.328C115.058 95.328 115.801 95.3103 116.535 95.3457C116.662 95.3457 116.88 95.5847 116.88 95.7086C116.88 95.8414 116.671 96.0804 116.544 96.0804C114.931 96.107 113.308 96.107 111.694 96.0804C111.567 96.0804 111.35 95.8414 111.35 95.7175C111.35 95.5847 111.558 95.3457 111.685 95.3368C112.555 95.3014 113.435 95.3191 114.314 95.3191V95.328Z" fill="#FD9711"/>
<path d="M49.8725 107.685C49.7093 108.509 49.6277 109.022 49.5008 109.518C49.1925 110.775 49.0747 110.863 47.7419 110.89C45.7927 110.925 45.8471 110.925 45.8381 108.907C45.8381 107.96 46.1282 107.597 47.1073 107.677C47.9686 107.747 48.8389 107.694 49.8634 107.694L49.8725 107.685Z" fill="#FD9711"/>
<path d="M47.6785 106.127C47.3431 106.127 46.9623 106.216 46.6722 106.101C46.3639 105.986 45.9559 105.703 45.9106 105.446C45.8018 104.8 45.8743 104.127 45.8925 103.463C45.8925 103.348 45.9559 103.206 46.0285 103.118C46.4364 102.649 48.8118 102.888 49.1381 103.428C49.1744 103.481 49.2016 103.543 49.2379 103.605C50.1082 105.375 49.6368 106.145 47.6785 106.136V106.127Z" fill="#FD9711"/>
<path d="M43.0639 107.694C44.1034 107.7 44.6172 108.273 44.6051 109.412C44.593 110.415 44.0642 110.908 43.0185 110.89C41.8218 110.872 41.3232 110.191 41.3232 108.615C41.3232 107.995 41.9034 107.688 43.0639 107.694V107.694Z" fill="#FD9711"/>
<path d="M52.8643 107.703C53.1997 107.703 53.5442 107.677 53.8797 107.712C54.0519 107.739 54.2786 107.845 54.3602 107.986C54.7954 108.765 53.6077 110.81 52.692 110.881C52.3566 110.908 52.0121 110.872 51.6766 110.881C50.8063 110.925 50.5887 110.545 50.8969 109.792C50.9967 109.553 51.0873 109.297 51.1327 109.049C51.3956 107.685 51.3865 107.685 52.8643 107.703V107.703Z" fill="#FD9711"/>
<path d="M38.005 106.119C37.6695 106.119 37.2887 106.207 36.9986 106.092C36.772 106.004 36.4637 105.614 36.5091 105.437C36.6813 104.747 36.9352 104.056 37.2525 103.419C37.5154 102.888 39.6097 102.666 39.9723 103.1C40.0811 103.233 40.1174 103.463 40.0902 103.64C40.0539 103.959 39.9451 104.277 39.8635 104.587C39.5976 105.614 38.9781 106.122 38.005 106.11V106.119Z" fill="#FD9711"/>
<path d="M44.6051 104.623C44.596 106.154 44.587 106.172 42.8372 106.127C42.1663 106.11 41.2597 106.455 41.3141 105.18C41.3866 103.516 41.8581 102.896 43.2542 102.914C44.1669 102.92 44.6172 103.49 44.6051 104.623V104.623Z" fill="#FD9711"/>
<path d="M50.761 103.1C51.033 103.02 51.2143 102.932 51.4047 102.923C53.4264 102.817 54.2061 103.472 54.3965 105.393C54.4055 105.526 54.3965 105.765 54.3693 105.773C53.6803 105.906 52.9912 106.066 52.2932 106.119C51.867 106.154 51.2959 106.313 51.178 105.605C51.0511 104.782 50.906 103.95 50.761 103.1V103.1Z" fill="#FD9711"/>
<path d="M36.355 107.783C37.0984 107.747 37.6968 107.738 38.277 107.685C39.2017 107.606 39.918 107.738 39.7366 108.907C39.7276 108.969 39.7366 109.04 39.7457 109.102C39.8001 109.651 39.8636 110.199 39.9179 110.748C39.3196 110.792 38.7122 110.934 38.1319 110.846C37.7602 110.792 37.3704 110.456 37.1075 110.146C36.908 109.916 36.8899 109.535 36.7992 109.226C36.6723 108.801 36.5363 108.376 36.355 107.774V107.783Z" fill="#FD9711"/>
<path d="M42.0031 114.732C40.5797 114.351 39.3468 113.722 38.4673 112.474C39.797 112.061 40.9756 112.814 42.0031 114.732Z" fill="#FD9711"/>
<path d="M48.295 114.882C48.5216 114.572 48.8208 114.28 48.9658 113.935C49.6095 112.439 50.7519 112.182 52.3747 112.616C51.1145 113.696 50.0538 114.864 48.2859 114.864H48.295V114.882Z" fill="#FD9711"/>
<path d="M46.2007 114.687C45.5842 112.209 45.8381 111.952 48.4944 112.359C47.6785 113.183 46.9985 113.882 46.2007 114.687Z" fill="#FD9711"/>
<path d="M48.7573 99.2671C50.1898 99.2671 51.0601 100.135 51.9486 101.135C49.6186 101.507 50.0447 101.746 48.6667 99.3556L48.7573 99.2671V99.2671Z" fill="#FD9711"/>
<path d="M44.324 114.873L42.4383 112.501C44.8136 111.58 44.8952 112.519 44.324 114.873Z" fill="#FD9711"/>
<path d="M45.9378 99.0547C46.645 99.6478 47.1346 99.9664 47.4881 100.4C47.7057 100.657 47.7511 101.082 47.7782 101.445C47.7782 101.507 47.2977 101.719 47.0983 101.657C46.6903 101.542 46.101 101.365 45.9832 101.073C45.7928 100.586 45.9288 99.9842 45.9288 99.0635L45.9378 99.0547Z" fill="#FD9711"/>
<path d="M42.1572 99.3202C41.3896 100.689 40.3168 101.327 38.9388 101.232C39.7819 100.108 40.6795 99.2582 42.1663 99.329L42.1572 99.3202Z" fill="#FD9711"/>
<path d="M42.2842 101.507L44.2968 99.3733C44.8771 101.639 44.8408 101.693 42.2842 101.507Z" fill="#FD9711"/>
<path d="M42.1663 99.3291L42.3204 99.0193L42.1572 99.3203L42.1663 99.3291Z" fill="#FD9711"/>
<path d="M48.6577 99.3644L48.4219 99.0635L48.7483 99.2759L48.6577 99.3644V99.3644Z" fill="#FD9711"/>
<path d="M48.2859 114.873L48.1227 115.183L48.295 114.882H48.2859V114.873Z" fill="#FD9711"/>
<path d="M36.7176 43.5256H45.9197C44.6686 44.8977 43.5625 46.1193 42.4474 47.3409C41.9125 47.9251 41.3685 48.1022 40.7248 47.4648C39.4556 46.199 38.1591 44.9508 36.7086 43.5345L36.7176 43.5256Z" fill="#FD9711"/>
<path d="M46.4818 51.0144H36.7086C37.4338 50.2886 37.9597 49.7574 38.4946 49.2263C39.5462 48.1995 39.5372 48.2437 40.9696 48.8014C41.3323 48.9431 41.9759 48.9253 42.2207 48.6952C43.0639 47.9428 43.635 48.2526 44.2697 48.9253C44.859 49.5538 45.5208 50.1115 46.4727 51.0056L46.4818 51.0144Z" fill="#FD9711"/>
<path d="M47.0076 44.1542V50.3772C46.0466 49.43 45.2669 48.6864 44.5053 47.9252C44.0339 47.456 44.0883 46.9957 44.5597 46.5442C45.3213 45.8095 46.0738 45.0659 47.0167 44.163L47.0076 44.1542Z" fill="#FD9711"/>
<path d="M36.1283 44.6675C36.4637 44.7472 36.5453 44.7384 36.5907 44.7738C39.4827 47.4825 39.7729 46.5884 36.1283 49.8017V44.6587V44.6675Z" fill="#FD9711"/>
<path d="M162.455 70.6129C160.397 70.5952 159.073 69.2763 159.073 67.2403C159.073 65.2486 160.451 63.8765 162.482 63.8411C164.314 63.8057 166.081 65.6292 166.009 67.4704C165.945 69.0195 164.123 70.6306 162.455 70.6129V70.6129ZM162.428 69.0372C163.652 69.0372 164.468 68.3025 164.404 67.2757C164.341 66.2754 163.434 65.4345 162.41 65.4168C161.34 65.4079 160.669 66.1869 160.687 67.4173C160.714 68.692 161.095 69.0461 162.428 69.0372V69.0372Z" fill="#FD9711"/>
<path d="M162.428 69.0373C161.095 69.0462 160.714 68.6921 160.687 67.4174C160.66 66.187 161.331 65.408 162.41 65.4168C163.434 65.4257 164.341 66.2755 164.404 67.2758C164.468 68.3026 163.652 69.0285 162.428 69.0373V69.0373Z" fill="#FD9711"/>
</g>
<defs>
<clipPath id="clip0_70_206">
<rect width="229" height="156" fill="white"/>
</clipPath>
</defs>
</svg>
