<svg width="158" height="155" viewBox="0 0 158 155" fill="none" xmlns="http://www.w3.org/2000/svg">
<g clip-path="url(#clip0_77_2669)">
<path d="M90.0403 133.331C91.1855 137.246 92.226 140.807 93.2805 144.369C94.179 147.382 96.2623 148.889 99.5304 148.889C101.213 148.889 102.896 148.868 104.579 148.909C106.646 148.964 107.666 149.827 107.687 151.472C107.708 153.164 106.583 154.129 104.46 154.129C93.3573 154.143 82.2541 154.129 71.151 154.129C65.362 154.129 59.573 154.129 53.7909 154.129C51.4167 154.129 50.3273 153.307 50.2924 151.54C50.2575 149.813 51.3888 148.916 53.7421 148.896C56.4306 148.875 59.126 148.943 61.8145 148.855C62.4151 148.834 63.3997 148.44 63.5394 148.012C65.0547 143.281 66.4304 138.51 67.9387 133.46C66.8633 133.412 66.0254 133.337 65.1944 133.337C46.5564 133.337 27.9115 133.337 9.27358 133.31C7.95377 133.31 6.55715 133.174 5.32812 132.739C1.85053 131.495 0.0279325 128.654 0.0209494 124.719C0 112.926 0 101.14 0 89.3473C0 73.5647 0 57.7753 0 41.9928C0 36.0454 3.33793 32.7829 9.47609 32.7353C11.4244 32.7217 13.3797 32.6877 15.3279 32.7489C17.2692 32.8101 18.4075 33.85 18.4075 35.4201C18.4075 36.997 17.2553 38.0369 15.3419 38.0777C13.1911 38.1253 11.0333 38.0641 8.88252 38.1117C6.4524 38.1661 5.48175 39.1244 5.48175 41.517C5.47476 69.2215 5.48175 96.9327 5.48175 124.637C5.48175 126.901 6.39654 127.886 8.68001 128.09C9.74843 128.185 10.8308 128.124 11.9062 128.124C57.1289 128.124 102.352 128.124 147.574 128.124C148.245 128.124 148.929 128.178 149.592 128.083C151.422 127.818 152.518 126.873 152.511 124.95C152.497 122.136 152.511 119.315 152.511 116.501C152.511 91.7398 152.511 66.9853 152.511 42.2239C152.511 38.8458 151.736 38.1117 148.217 38.0981C146.331 38.0981 144.446 38.1253 142.567 38.0845C140.863 38.0505 139.732 37.2621 139.599 35.522C139.481 33.9452 140.682 32.8101 142.567 32.7557C144.99 32.6877 147.421 32.6197 149.83 32.7693C154.704 33.0615 157.951 36.4872 157.979 41.3267C158.021 48.6606 157.986 56.0013 157.986 63.3353C157.986 83.5767 157.986 103.811 157.986 124.053C157.986 130.163 154.739 133.324 148.398 133.331C129.893 133.337 111.388 133.331 92.8824 133.331C92.0375 133.331 91.1925 133.331 90.0403 133.331ZM88.916 148.766C87.4147 143.723 86.032 138.965 84.5376 134.235C84.4049 133.82 83.56 133.385 83.0293 133.365C80.3477 133.276 77.6523 133.249 74.9707 133.378C74.3981 133.405 73.5322 134.044 73.3576 134.581C72.1775 138.122 71.144 141.704 70.0826 145.28C69.7544 146.374 69.496 147.489 69.1538 148.76H88.909L88.916 148.766Z" fill="#FD9711"/>
<path d="M103.664 70.0845C102.379 69.5136 101.444 69.1873 100.606 68.7115C99.0066 67.8007 97.5123 67.8687 96.1645 69.0854C94.8587 70.2612 94.7888 71.6886 95.4662 73.2179C96.8628 76.3649 96.2553 78.0506 92.9732 79.4304C90.9481 80.2868 88.8392 80.9937 86.7094 81.5646C83.8253 82.3395 82.0447 81.2655 81.3044 78.4312C80.8366 76.6368 79.831 75.4949 77.8618 75.4269C75.8925 75.359 74.8171 76.4465 74.1886 78.1797C73.225 80.8305 71.3395 81.8433 68.679 80.8577C66.1162 79.9129 63.6162 78.7371 61.2419 77.3981C58.9305 76.0931 58.6093 73.8229 60.1107 71.6682C61.5073 69.6631 61.5981 68.2086 60.404 66.856C59.133 65.4218 57.4641 65.2791 55.3063 66.4345C52.8063 67.7668 50.6555 67.257 49.4754 64.7149C48.3511 62.2884 47.3944 59.7531 46.7031 57.1771C45.9838 54.5059 47.4084 52.7318 50.1737 52.29C52.4153 51.9366 53.6792 50.7811 53.791 48.9663C53.9027 47.2059 52.7435 45.8805 50.5648 45.2756C47.8064 44.5007 46.6053 42.6723 47.583 40.0963C48.5327 37.595 49.7408 35.1617 51.1164 32.8575C52.5759 30.4242 54.615 30.0639 57.101 31.5661C58.728 32.5448 60.3062 32.6944 61.7378 31.4369C63.1623 30.1863 63.2042 28.6298 62.3942 26.9577C61.1163 24.3205 61.7727 22.4309 64.545 21.2279C66.6818 20.2967 68.9094 19.5218 71.165 18.9169C74.2585 18.0876 75.7948 19.0324 76.6677 22.0911C77.1006 23.6204 77.9525 24.8642 79.5866 24.9322C80.662 24.9798 81.8352 24.4224 82.8198 23.8855C83.3016 23.6204 83.5251 22.8183 83.7555 22.2134C84.6563 19.8005 86.5488 18.6246 88.923 19.4946C91.6115 20.4802 94.2511 21.6765 96.7371 23.0698C99.0695 24.3749 99.3418 26.5975 97.8195 28.7997C96.4578 30.764 96.381 32.3001 97.5821 33.6255C98.8041 34.9781 100.515 35.0869 102.708 33.9382C105.089 32.6876 107.324 33.1905 108.455 35.5831C109.6 38.0028 110.522 40.5517 111.241 43.1277C112.009 45.8669 110.675 47.6613 107.743 48.1711C106.088 48.4565 104.789 49.0547 104.342 50.7675C103.818 52.759 104.907 54.4447 107.1 55.07C110.403 56.0148 111.451 57.8364 110.166 60.9698C109.195 63.3215 108.036 65.6325 106.66 67.7871C106.032 68.7659 104.691 69.3165 103.657 70.0709L103.664 70.0845ZM88.7624 25.007C84.2513 32.8031 74.6914 31.6952 71.4303 24.3069L67.8829 25.5439C68.0156 26.2236 68.1133 26.7334 68.2111 27.2364C69.489 33.5372 63.4975 39.1379 57.1848 37.3027C55.1108 36.6978 54.3915 37.3231 53.8468 38.968C53.6862 39.4438 53.5116 39.9127 53.3231 40.4293C57.1987 42.2849 59.4333 45.1056 59.1749 49.3334C58.9166 53.5407 56.3119 56.0692 52.3175 57.4829C52.6667 58.4889 52.946 59.3453 53.2672 60.1949C53.379 60.4872 53.5954 60.7387 53.756 60.997C61.7238 58.0811 69.6426 65.0955 65.6134 73.8704C66.8005 74.4006 67.9876 74.9376 69.1399 75.4541C74.887 67.8891 81.0391 68.1474 86.6186 76.0998C87.2331 75.9231 87.8825 75.76 88.504 75.5425C88.9998 75.3726 89.4607 75.1279 89.9216 74.924C87.8406 65.6461 95.6548 60.8134 103.05 63.6478C103.616 62.4991 104.181 61.3436 104.796 60.0998C100.683 58.1762 98.427 55.2331 98.8251 50.8491C99.1882 46.8117 101.737 44.3987 105.703 43.019C105.222 41.7547 104.775 40.572 104.328 39.4098C94.9145 41.8431 90.0822 36.6298 92.3028 26.5907L88.7694 25.0206L88.7624 25.007Z" fill="#FD9711"/>
<path d="M126.003 71.0974C126.841 70.7711 127.246 70.574 127.672 70.4585C129.16 70.0575 130.368 70.4449 131.045 71.8315C131.737 73.252 131.22 74.4823 129.907 75.1892C126.611 76.9496 123.273 78.6556 119.879 80.2393C118.001 81.1161 116.318 80.1238 116.115 78.0575C115.766 74.5435 115.585 71.009 115.326 67.4814C115.2 65.789 115.913 64.6675 117.679 64.3956C119.293 64.1441 120.291 65.0821 120.675 67.0668C120.745 67.4406 120.871 67.8009 120.976 68.1679L121.625 68.2699C122.617 64.5927 123.929 60.9699 124.544 57.2316C128.35 33.9927 113.189 11.9569 89.6353 6.56011C76.8422 3.63062 64.8103 5.74448 53.7211 12.6706C53.6094 12.7386 53.4977 12.8201 53.3859 12.8949C50.858 14.5262 49.3916 14.533 48.3302 12.9289C47.2966 11.3656 47.9112 10.0606 50.46 8.3953C81.486 -11.8121 124.286 6.45136 129.935 42.2442C131.485 52.0931 130.151 61.5137 126.017 71.1042L126.003 71.0974Z" fill="#FD9711"/>
<path d="M31.85 29.4184C31.1168 29.7107 30.7187 29.901 30.2997 30.0301C28.7844 30.5127 27.6252 29.9689 26.9409 28.6571C26.2775 27.3725 26.6126 26.0947 27.8836 25.415C31.2285 23.607 34.6153 21.8534 38.0719 20.2493C39.9434 19.3793 41.6543 20.4056 41.8498 22.4243C42.2059 26.0063 42.4154 29.6019 42.6529 33.1907C42.7576 34.8016 41.9476 35.9231 40.3065 36.0862C38.7144 36.2493 37.618 35.4473 37.3457 33.7956C37.2619 33.2995 37.1083 32.8169 36.8918 31.9333C34.4687 37.1194 33.1907 42.1695 32.9463 47.4236C31.85 71.213 47.8483 90.6863 71.982 94.6082C83.4273 96.4706 94.1603 94.0712 103.972 87.9811C104.537 87.6277 105.068 87.2199 105.641 86.8868C107.198 85.976 108.895 86.2275 109.677 87.5801C110.557 89.0958 110.054 90.3873 108.657 91.3185C107.107 92.3516 105.529 93.3575 103.881 94.2411C72.1077 111.288 32.4924 91.7467 27.7998 56.7082C26.6406 48.0285 27.7858 39.6206 31.1028 31.4915C31.3402 30.9137 31.5218 30.3224 31.843 29.4252L31.85 29.4184Z" fill="#FD9711"/>
<path d="M78.7765 121.191C57.9878 121.191 37.199 121.191 16.4033 121.191C15.7958 121.191 15.1952 121.191 14.5877 121.191C11.9411 121.177 10.7121 120.314 10.747 118.506C10.7819 116.807 12.004 115.971 14.5109 115.971C39.5384 115.971 64.5729 115.971 89.6004 115.971C107.568 115.971 125.529 115.957 143.496 116.012C144.488 116.012 145.689 116.27 146.408 116.861C146.96 117.317 147.281 118.608 147.03 119.288C146.75 120.042 145.787 120.831 144.963 121.062C143.838 121.375 142.567 121.198 141.352 121.198C120.494 121.198 99.6351 121.198 78.7765 121.198V121.191Z" fill="#FD9711"/>
<path d="M78.979 61.7719C72.373 61.7855 67.1775 56.7285 67.0658 50.1694C66.9611 44.0386 72.4637 38.6758 78.9022 38.6418C85.4803 38.6078 90.8782 43.8143 90.8782 50.1966C90.8782 56.6809 85.6618 61.7583 78.986 61.7719H78.979ZM79.1606 43.991C75.6271 43.889 72.6663 46.5874 72.5196 50.0199C72.38 53.4184 75.1732 56.3479 78.7067 56.4974C82.296 56.647 85.3825 53.8398 85.4454 50.353C85.5152 46.9205 82.715 44.0861 79.1606 43.9842V43.991Z" fill="#FD9711"/>
</g>
<defs>
<clipPath id="clip0_77_2669">
<rect width="158" height="154.128" fill="white" transform="translate(0 0.000976562)"/>
</clipPath>
</defs>
</svg>
