<svg width="173" height="157" viewBox="0 0 173 157" fill="none" xmlns="http://www.w3.org/2000/svg">
<g clip-path="url(#clip0_70_22)">
<path d="M172.992 9.06817C172.946 9.43846 172.86 9.80874 172.86 10.1866C172.86 31.6328 172.86 53.0865 172.86 74.5327C172.86 74.903 172.946 75.2733 172.992 75.6511L172.767 75.5831L172.144 75.9005L172.642 76.3161L170.9 77.8577C168.209 77.1171 168.216 75.2808 168.216 73.3085C168.255 59.0791 168.232 44.8496 168.232 30.6126C168.232 29.3733 168.232 28.134 168.232 26.6755C167.33 26.6151 166.591 26.5244 165.852 26.5244C112.837 26.5244 59.8134 26.5244 6.798 26.5244C6.15242 26.5244 5.50684 26.5924 4.86904 26.6302L4.30901 27.3027C4.26235 28.0508 4.16901 28.799 4.16901 29.5471C4.16901 63.734 4.16901 97.921 4.16901 132.115V134.209C5.0946 134.299 5.95019 134.458 6.798 134.451C16.085 134.345 25.3643 134.088 34.6513 134.118C51.9342 134.186 69.2171 134.413 86.5 134.579L86.8111 135.206L87.2389 134.692C88.4211 134.987 89.0745 135.879 88.6623 136.869C88.3123 137.7 87.41 138.448 86.57 138.901C85.9711 139.219 85.0532 138.992 84.2832 138.992C57.0055 138.992 29.7278 138.992 2.45005 138.962C1.70336 138.962 0.591093 139.642 0.186633 138.312L0.754433 138.025L0.0855184 137.549C0.0621841 136.294 0.0077376 135.032 0.0077376 133.778C0.0077376 93.2736 0.0077376 52.7691 0.0077376 12.2647C0.0077376 11.0103 0.132187 9.74073 0.0155157 8.49386C-0.381166 4.15626 4.029 0.58945 8.24472 0.0755877C9.26365 -0.0528779 10.3137 0.0226901 11.3482 0.0226901C61.4546 0.0226901 111.561 0.0226901 161.667 0.0302469C162.951 0.0302469 164.273 -0.00753707 165.51 0.272064C169.585 1.20155 172.961 4.58699 173 9.06817H172.992ZM168.224 21.7863C168.224 17.3655 168.201 13.1111 168.232 8.85658C168.248 7.12608 167.361 5.92455 165.852 5.32C164.709 4.85904 163.394 4.60211 162.157 4.60211C111.6 4.56432 61.0423 4.57188 10.4848 4.57944C6.1602 4.57944 4.69014 5.99256 4.65125 10.1866C4.61236 14.033 4.64347 17.8718 4.64347 21.7863H168.224Z" fill="#FD9711"/>
<path d="M49.1885 62.4795L55.7377 65.5627L59.2922 63.2277L58.39 56.487C61.7501 54.1217 66.1136 52.958 71.4494 52.9958C72.2505 55.089 73.0905 57.2654 73.9695 59.5702L78.3252 59.9707C79.7719 58.1873 81.1953 56.4266 82.5876 54.7112C88.0322 56.3963 90.1634 57.6508 94.1302 61.4745C93.2047 63.5148 92.248 65.6156 91.2368 67.8449C92.0146 68.8802 92.8391 69.9834 93.7647 71.2228C96.1214 70.8827 98.3849 70.5578 100.749 70.2177C103.371 73.981 103.697 78.3261 104.428 82.7771C102.181 83.6764 99.956 84.5681 97.5293 85.5429C97.2104 86.7142 96.8604 88.0064 96.4559 89.5026C98.3537 90.9913 100.236 92.4649 102.258 94.0518C100.944 98.3894 98.5949 101.979 95.4059 105.168C93.2047 104.117 91.1435 103.128 88.8256 102.024C87.8611 102.772 86.78 103.611 85.4733 104.624L86.2822 111.463C82.5331 113.858 78.0763 114.478 73.3394 114.931C72.3905 112.611 71.5038 110.45 70.6249 108.289C69.396 107.994 68.1748 107.699 66.5803 107.322C65.1258 109.128 63.5546 111.062 61.9757 113.027C57.6277 111.909 53.9487 109.573 50.4019 106.392C51.3353 104.337 52.2609 102.311 53.3187 99.9915C52.712 99.0091 51.9964 97.868 51.1641 96.5305C48.6985 96.8554 46.3262 97.1652 43.7905 97.4977C41.6516 93.5833 40.5393 89.5782 40.5548 84.8099L47.4618 82.1197C47.5785 80.7897 47.6951 79.437 47.8351 77.8954C45.9451 76.5125 44.0239 75.107 42.1571 73.7316C43.7983 69.5376 45.9217 65.8801 49.2119 62.4569L49.1885 62.4795ZM91.4779 76.1044C89.6656 73.7467 87.69 71.1774 85.6133 68.4796L88.4678 62.3964C86.8655 61.5274 85.5666 60.8322 84.2832 60.1369C82.6498 62.1773 81.2653 63.9078 80.2153 65.2075C76.7307 64.739 73.7128 64.331 70.516 63.9002C69.7849 61.9052 68.9837 59.7289 68.1981 57.5752L63.7024 58.6483C63.8813 61.0286 64.0524 63.3183 64.208 65.4645C61.5557 67.3083 58.9733 69.1144 56.4066 70.9054C54.4776 69.9683 52.5409 69.0237 50.4641 68.0111C49.5385 69.4091 48.6441 70.7542 47.7651 72.0767L53.0387 76.0591C52.642 79.3312 52.292 82.2784 51.9108 85.422C49.7252 86.2759 47.4384 87.16 45.0895 88.082L46.5517 92.4045C48.9707 92.1249 51.2341 91.8604 53.1864 91.6337C55.2087 94.339 57.0833 96.8479 58.9656 99.3718L56.0721 105.327L60.2178 107.631C61.8668 105.652 63.3057 103.913 64.8847 102.024C66.4014 102.803 67.7548 103.505 68.8437 104.072C70.6249 103.853 72.2116 103.649 73.7206 103.46L76.5985 110.201C78.2396 109.694 79.6475 109.264 81.1875 108.788L80.2775 102.493C83.0698 100.445 85.5977 98.5935 88.1178 96.7496C90.1012 97.6942 92.0302 98.6086 94.208 99.6439C95.0636 98.3668 95.9348 97.0746 96.8759 95.6766C94.7292 94.1047 92.9091 92.7747 91.299 91.5959L93.0724 82.2783C94.8769 81.568 96.9615 80.7519 99.3027 79.8299C98.8749 78.2204 98.5015 76.845 98.0971 75.3261C95.6936 75.6057 93.6791 75.84 91.4857 76.0893L91.4779 76.1044Z" fill="#FD9711"/>
<path d="M137.656 89.1929C157.358 89.0039 172.806 104.458 172.697 123.161C172.588 142.03 157.747 157.015 137.547 157C118.569 156.985 103.215 142.657 102.873 123.032C102.562 105.017 118.343 88.9813 137.664 89.1929H137.656ZM137.641 93.6287C121.377 92.9108 106.972 107.359 107.322 123.214C107.672 139.113 120.755 152.897 137.952 152.632C155.274 152.368 168.333 139.121 168.232 122.526C168.139 106.861 154.13 92.805 137.641 93.6211V93.6287Z" fill="#FD9711"/>
<path d="M7.89473 65.1245C10.8115 66.0767 10.1737 68.3135 10.3993 70.2556C10.6093 72.0919 11.0371 73.9131 11.3793 75.8249C12.3282 76.1801 13.3549 76.3993 14.195 76.9131C16.964 78.6436 19.1963 78.0088 21.3741 75.8249C22.8053 74.3967 24.5165 73.233 26.1265 71.9407C31.019 75.1826 35.0558 79.1424 38.4315 83.9636C36.2536 86.6689 34.1224 89.3138 31.9445 92.0191C32.8935 94.3164 33.8346 96.591 34.7446 98.7825C38.1981 99.047 41.5194 99.3039 44.9106 99.5684C46.5051 105.281 46.4273 110.798 44.9573 116.7C41.6516 117.025 38.2526 117.357 34.8069 117.697C33.8113 119.979 32.8701 122.141 31.8434 124.498C32.7924 125.617 33.8424 126.72 34.7135 127.937C35.2813 128.73 35.8725 129.675 35.9347 130.589C35.9814 131.284 35.3747 132.244 34.7524 132.675C34.3246 132.977 33.0801 132.841 32.7146 132.448C30.6223 130.234 28.5766 127.959 26.7799 125.526C26.391 125.005 26.9355 123.644 27.3399 122.798C28.7244 119.866 30.3656 117.04 30.6767 114.085C34.0991 113.458 37.3503 112.861 40.9516 112.196C41.7294 109.619 41.5349 106.846 41.006 103.853C37.5603 103.589 34.2624 103.339 30.949 103.082C29.7278 98.9487 28.6155 95.1099 26.0799 91.8378C28.1177 89.3138 30.1789 86.7672 32.2012 84.2659C31.1486 82.2054 29.1444 80.0744 26.1888 77.8728C23.622 79.9056 21.0397 81.9535 18.6285 83.8654L6.70468 79.0063C6.36245 75.7645 6.0591 72.4168 5.63909 69.0918C5.39797 67.2253 5.94243 65.8877 7.91028 65.1321L7.89473 65.1245Z" fill="#FD9711"/>
<path d="M8.05034 90.7118C15.7584 94.4675 20.4408 100.097 20.2775 108.463C20.1141 116.571 15.7817 122.246 8.08923 125.382C7.7781 125.307 7.49031 125.314 7.30364 125.186C4.978 123.546 4.88466 122.345 6.99252 120.962C7.84033 120.402 8.79703 120.002 9.62929 119.428C17.8118 113.752 17.6952 101.798 8.89037 96.4172C8.56369 96.2207 8.19034 96.1073 7.86366 95.9109C4.76799 94.0972 4.76021 92.9939 8.05034 90.7118V90.7118Z" fill="#FD9711"/>
<path d="M4.32458 27.2951L4.88461 26.6226L4.32458 27.2951Z" fill="#FD9711"/>
<path d="M172.65 76.3086L172.152 75.8929L172.774 75.5756L172.658 76.3086H172.65Z" fill="#FD9711"/>
<path d="M132.461 15.907C130.952 16.0053 130.034 15.1967 130.003 13.7382C129.972 12.31 130.858 11.4032 132.305 11.3881C133.425 11.373 134.623 12.5972 134.67 13.8063C134.716 14.8718 133.713 15.8239 132.461 15.907Z" fill="#FD9711"/>
<path d="M158.805 13.6098C156.238 16.7988 155.398 16.7912 153.524 13.7534C155.663 10.5342 156.122 10.5115 158.805 13.6098Z" fill="#FD9711"/>
<path d="M141.709 13.5191C144.431 10.4661 145.077 10.5341 146.873 13.8742C144.524 16.7987 143.684 16.776 141.709 13.5191Z" fill="#FD9711"/>
<path d="M58.4522 83.7143C57.9622 78.0315 63.3135 70.2783 72.4528 70.3161C80.0831 70.3463 86.2822 75.6738 86.3444 83.82C86.4067 91.4826 80.7364 97.3769 72.1572 97.4223C64.2236 97.4676 58.1256 90.8025 58.46 83.7067L58.4522 83.7143ZM72.4839 74.8426C67.327 74.4874 63.0024 79.1348 63.0646 83.6462C63.1035 86.2004 63.8736 88.3844 65.6236 90.0771C67.0626 91.46 68.9682 92.3819 70.6638 93.5154C73.3939 92.6464 76.4896 92.7068 78.6675 90.4625C80.4798 88.6035 81.802 86.5329 81.7865 83.8578C81.7554 78.9837 77.493 74.8426 72.4761 74.8426H72.4839Z" fill="#FD9711"/>
<path d="M130.609 139.672C128.432 140.224 127.086 139.642 125.787 138.32C122.575 135.032 119.191 131.911 115.94 128.662C115.069 127.793 114.439 126.697 113.505 125.45C114.486 124.559 115.364 123.765 116.5 122.738C120.972 126.66 124.76 130.74 128.929 134.549C137.252 126.463 145.489 118.445 153.734 110.435C154.372 109.815 154.97 109.135 155.678 108.591C156.79 107.73 158.432 107.798 159.155 108.705C159.972 109.717 159.886 110.798 159.171 111.818C158.883 112.226 158.463 112.551 158.097 112.906C148.95 121.816 139.795 130.725 130.617 139.672H130.609Z" fill="#FD9711"/>
</g>
<defs>
<clipPath id="clip0_70_22">
<rect width="173" height="157" fill="white"/>
</clipPath>
</defs>
</svg>
