<svg width="100" height="148" viewBox="0 0 100 148" fill="none" xmlns="http://www.w3.org/2000/svg">
<g clip-path="url(#clip0_70_261)">
<path d="M4.61218 120.032C4.61218 122.74 4.48001 125.149 4.64001 127.53C4.97392 132.415 7.8261 135.108 12.64 135.152C18.7826 135.21 24.9252 135.167 31.0678 135.167C33.3844 135.167 35.7078 135.13 38.0244 135.167C40.2644 135.203 41.2174 135.9 41.3357 137.453C41.4609 139.152 40.327 140.211 38.0731 140.226C30.7687 140.269 23.4713 140.255 16.167 140.226C14.2052 140.226 12.1878 140.386 10.2817 140.001C3.9374 138.738 -0.194774 132.786 8.78097e-06 126.877C0.243487 119.633 0.055661 112.374 0.0487044 105.123C0.0417479 74.6434 0.055661 44.1714 8.78097e-06 13.6921C8.78097e-06 8.84332 1.60697 5.00347 5.41218 2.19435C7.2487 0.836974 9.25914 0.0312582 11.5478 0.0312582C29.7461 0.0385169 47.9444 -0.0268114 66.1426 0.0530343C72.9044 0.0820691 78.1426 5.91081 78.1844 13.2494C78.24 22.9252 78.1983 32.6011 78.1983 42.2769C78.1983 52.802 78.1983 63.3199 78.1913 73.845C78.1913 75.0354 78.1913 76.2331 78.1913 77.5542C82.8522 78.0986 86.1913 80.2907 87.6939 84.733C89.8922 84.733 92.0348 84.2903 93.92 84.8274C97.6835 85.8944 99.9235 89.3786 99.9583 93.5306C100.014 101.268 100.028 109.013 99.9583 116.751C99.9305 120.359 100.077 124.053 99.4296 127.567C97.7461 136.691 92.1183 142.44 83.8748 145.372C74.6783 148.646 65.4887 148.167 56.3339 144.879C50.1844 142.665 46.1009 138.055 42.567 132.699C36.7165 123.821 31.9583 114.305 27.4852 104.622C25.9339 101.261 24.4313 97.864 22.9844 94.4524C22.2817 92.8047 21.8226 91.128 22.1565 89.2044C22.8174 85.4081 24.5913 82.5482 28.2504 81.6771C32.0626 80.7625 35.36 82.1054 37.7113 85.4589C40.4313 89.3351 43.0748 93.2765 46.3304 97.0801C46.3304 95.8316 46.3304 94.5758 46.3304 93.3273C46.3304 81.5973 46.3304 69.8672 46.3304 58.1372C46.3304 57.5347 46.3096 56.925 46.3444 56.3225C46.6365 51.0962 50.3513 47.2056 54.9496 47.2999C59.4435 47.3943 63.36 51.51 63.4852 56.5185C63.6035 61.4762 63.5061 66.4339 63.5061 71.3915C63.5061 72.7126 63.5061 74.0265 63.5061 75.6016C65.4052 75.6016 67.1304 75.3403 68.7374 75.6742C70.247 75.9936 71.6383 76.9445 73.1826 77.6631V20.4863H5.07131C4.49392 23.0704 4.29914 109.079 4.87653 114.552C5.70436 114.632 6.58783 114.799 7.46436 114.799C13.1409 114.82 18.8244 114.806 24.5009 114.813C25.3148 114.813 26.1217 114.799 26.9357 114.835C28.167 114.893 28.8487 115.641 28.9948 116.867C29.1617 118.246 28.5913 119.284 27.2835 119.618C26.4 119.843 25.447 119.814 24.5287 119.814C18.6157 119.829 12.7096 119.814 6.79653 119.829C6.2261 119.829 5.65566 119.93 4.60523 120.032H4.61218ZM51.1235 80.7045H51.1374C51.1374 88.4495 51.1374 96.1873 51.1374 103.932C51.1374 104.774 51.207 105.645 51.0539 106.466C50.7339 108.179 48.9252 108.97 47.5618 107.968C46.9218 107.489 46.4139 106.778 45.9339 106.103C44.7583 104.455 43.6383 102.764 42.4904 101.094C39.6522 96.9712 36.8626 92.812 33.927 88.7689C33.2104 87.7817 32.1113 86.7219 31.0261 86.4751C27.9374 85.7928 25.9061 88.8778 27.3044 92.0643C29.9478 98.0963 32.6122 104.128 35.4644 110.059C39.047 117.506 42.9357 124.779 47.6731 131.523C50.8452 136.045 54.7965 139.377 59.9722 141.082C66.0313 143.086 72.167 143.848 78.4209 142.36C86.2609 140.494 92.2713 136.292 94.4626 127.734C95.1096 125.2 95.3809 122.5 95.4226 119.865C95.5548 112.004 95.4922 104.143 95.4852 96.2816C95.4852 95.0767 95.52 93.8427 95.2974 92.6741C94.8383 90.2569 93.44 89.2625 91.0331 89.4222C88.8904 89.5673 88.0487 90.6126 87.9513 93.3491C87.8957 95.0404 88 96.7389 87.8957 98.423C87.8122 99.7658 86.4209 101.123 85.3913 100.847C84.2713 100.55 83.1722 99.9981 83.1096 98.4883C83.0748 97.7624 83.0817 97.0365 83.0817 96.3107C83.0748 93.1677 83.1374 90.0174 83.047 86.8744C82.9844 84.5661 81.9757 83.3611 80.1252 82.9982C77.4261 82.4756 75.7078 83.8765 75.5826 86.9542C75.4574 89.8504 75.5965 92.7612 75.5131 95.6574C75.4644 97.4503 74.7131 98.1762 73.2452 98.1762C71.8261 98.1762 71.1026 97.3632 70.9913 95.9695C70.9009 94.7718 70.9218 93.5596 70.9148 92.3547C70.8939 89.698 70.9565 87.034 70.8591 84.3846C70.7617 81.8078 69.287 80.3706 66.887 80.3125C64.6957 80.2544 63.6174 81.4884 63.527 84.3556C63.4574 86.6493 63.527 88.9503 63.527 91.2514C63.527 91.9772 63.5757 92.7104 63.4644 93.4217C63.2557 94.7863 61.92 96.0203 60.8348 95.7445C59.6591 95.4469 58.72 94.7428 58.6991 93.2693C58.6922 92.5434 58.6991 91.8175 58.6991 91.0917C58.6991 80.2036 58.6991 69.3156 58.6783 58.4348C58.6783 57.3532 58.7061 56.2354 58.4557 55.1974C57.9409 53.0343 56.5913 52.2068 54.24 52.381C52.4313 52.5117 51.4713 53.4989 51.1861 55.6619C51.0609 56.6128 51.1165 57.5928 51.1165 58.5582C51.1165 65.9403 51.1165 73.3151 51.1165 80.6972L51.1235 80.7045ZM5.05044 15.2963C27.8609 15.3181 50.5113 15.3762 73.127 15.2745C73.6626 7.96502 71.0122 4.88733 64.5078 4.78571C64.2783 4.78571 64.0418 4.78571 63.8122 4.78571C52.2435 4.77845 40.6678 4.76393 29.0991 4.76393C23.6522 4.76393 18.2052 4.69134 12.7583 4.82926C6.90088 4.97443 3.99305 8.80703 5.05044 15.3036V15.2963Z" fill="#FD9711"/>
<path d="M14.7409 39.4247C14.7409 37.3705 14.8383 35.3163 14.72 33.2693C14.553 30.315 17.2383 27.9414 19.7565 27.8979C23.5757 27.8253 27.3948 27.8035 31.207 27.9269C34.5043 28.0285 36.4313 30.2207 36.48 33.7556C36.5357 37.5011 36.5357 41.2466 36.473 44.9849C36.4104 48.6795 34.4209 50.8208 30.9009 50.908C27.3183 51.0023 23.7287 50.8571 20.1391 50.937C17.3009 50.9951 14.3861 48.3311 14.713 45.2171C14.9148 43.3081 14.7478 41.3555 14.7478 39.4247H14.7409ZM19.4435 33.0225V45.4567C22.9078 46.1027 29.0783 46.0228 31.4435 45.355V33.0225H19.4435Z" fill="#FD9711"/>
<path d="M25.8018 56.0689C27.6522 56.0689 29.5026 56.0108 31.3461 56.0834C34.3513 56.1995 36.3618 58.1739 36.4452 61.2588C36.5565 65.3527 36.5565 69.4539 36.4591 73.5478C36.3826 76.7199 34.4835 78.6652 31.4365 78.7378C27.5131 78.8321 23.5826 78.8539 19.6591 78.7668C16.6818 78.7015 14.8939 76.9158 14.8035 73.8236C14.6783 69.6063 14.6783 65.389 14.7896 61.1717C14.8731 58.036 16.8278 56.1705 19.9096 56.0543C21.8713 55.9817 23.8331 56.0398 25.8018 56.0398V56.0616V56.0689ZM31.4991 61.1354C27.2278 61.1862 23.3531 61.0338 19.2696 61.2298C19.2696 63.6397 19.2487 65.6649 19.2696 67.69C19.2974 69.6862 19.3739 71.6896 19.4296 73.8381H31.4922V61.1354H31.4991Z" fill="#FD9711"/>
<path d="M58.6992 32.9716H46.3652C46.3235 34.3145 46.2609 35.5848 46.2539 36.8623C46.2331 39.7585 46.2957 42.662 46.2052 45.5582C46.1496 47.46 45.5026 48.0842 43.9931 48.1278C42.5461 48.1641 41.7044 47.4092 41.4748 45.7542C41.3913 45.159 41.447 44.5493 41.447 43.9468C41.447 40.6876 41.3913 37.4212 41.4609 34.1621C41.5444 30.1843 43.4574 28.0575 47.1792 27.9268C50.7618 27.8034 54.3583 27.7962 57.9409 27.9196C61.4052 28.0357 63.4087 30.2786 63.5131 33.9588C63.5896 36.7389 63.5409 39.519 63.5339 42.2918C63.5339 42.7709 63.5548 43.279 63.4296 43.729C63.0609 45.0283 62.1635 45.8776 60.8905 45.7324C59.687 45.6018 58.7548 44.8323 58.7339 43.3516C58.7131 41.8998 58.7131 40.4553 58.7131 39.0036C58.7131 37.0946 58.7131 35.1783 58.7131 32.9644L58.6992 32.9716Z" fill="#FD9711"/>
<path d="M39.2 7.50073C40.473 7.60961 41.44 8.82907 41.3357 10.2082C41.2244 11.6745 40.2157 12.5891 38.8383 12.4875C37.6209 12.3931 36.487 11.0575 36.5983 9.85255C36.7165 8.61131 38.0452 7.41363 39.193 7.50799L39.2 7.50073Z" fill="#FD9711"/>
<path d="M31.673 12.502C30.4348 12.5383 29.5234 11.631 29.4261 10.2808C29.3217 8.80006 30.2539 7.56608 31.5408 7.4935C32.7304 7.42091 34.0313 8.66941 34.1078 9.9542C34.1774 11.1954 32.9669 12.4657 31.673 12.502Z" fill="#FD9711"/>
<path d="M48.7792 10.1866C48.6678 11.544 47.4365 12.6473 46.1705 12.5094C44.7583 12.3642 43.9026 11.2101 44.1113 9.74384C44.2713 8.60422 45.4609 7.45734 46.4626 7.48638C47.6313 7.51541 48.8835 8.97441 48.7792 10.1866Z" fill="#FD9711"/>
</g>
<defs>
<clipPath id="clip0_70_261">
<rect width="100" height="147.584" fill="white" transform="translate(0 0.0170898)"/>
</clipPath>
</defs>
</svg>
