<svg width="129" height="112" viewBox="0 0 129 112" fill="none" xmlns="http://www.w3.org/2000/svg">
<g clip-path="url(#clip0_70_2344)">
<path d="M79.1582 99.4773H12.3175C5.5258 99.4773 0.000244141 93.9692 0.000244141 87.199V12.7221C0.000244141 5.95191 5.5258 0.443848 12.3175 0.443848H116.683C123.475 0.443848 129 5.95191 129 12.7221V86.42C129 87.4951 128.125 88.3677 127.046 88.3677C125.968 88.3677 125.092 87.4951 125.092 86.42V12.7221C125.092 8.09956 121.32 4.33922 116.683 4.33922H12.3175C7.68027 4.33922 3.90799 8.09956 3.90799 12.7221V87.199C3.90799 91.8215 7.68027 95.5819 12.3175 95.5819H79.1582C80.2367 95.5819 81.1121 96.4545 81.1121 97.5296C81.1121 98.6047 80.2367 99.4773 79.1582 99.4773Z" fill="white"/>
<path d="M118.879 24.1901H10.1213C9.04279 24.1901 8.16745 23.3175 8.16745 22.2424C8.16745 21.1672 9.04279 20.2947 10.1213 20.2947H118.879C119.958 20.2947 120.833 21.1672 120.833 22.2424C120.833 23.3175 119.958 24.1901 118.879 24.1901Z" fill="white"/>
<path d="M18.4512 13.7649C18.8064 12.2716 17.88 10.7741 16.382 10.42C14.8841 10.0659 13.3818 10.9894 13.0266 12.4826C12.6713 13.9758 13.5977 15.4734 15.0957 15.8275C16.5937 16.1816 18.096 15.2581 18.4512 13.7649Z" fill="white"/>
<path d="M28.7783 15.0886C29.8669 14.0034 29.8669 12.244 28.7783 11.1589C27.6897 10.0737 25.9247 10.0737 24.8361 11.1589C23.7475 12.244 23.7475 14.0034 24.8361 15.0886C25.9247 16.1737 27.6897 16.1737 28.7783 15.0886Z" fill="white"/>
<path d="M39.0283 15.6525C40.4295 15.0168 41.0485 13.3692 40.4108 11.9724C39.7731 10.5756 38.1202 9.95858 36.719 10.5943C35.3177 11.2299 34.6988 12.8776 35.3365 14.2744C35.9742 15.6711 37.627 16.2882 39.0283 15.6525Z" fill="white"/>
<path d="M113.836 111.444C113.335 111.444 112.835 111.254 112.455 110.873L94.7657 93.2395L89.7795 98.21C89.248 98.7397 88.4612 98.9189 87.7552 98.6722C87.0466 98.4255 86.5438 97.797 86.4579 97.0543L83.3655 70.0698C83.2978 69.4803 83.5036 68.8908 83.9256 68.4727C84.3477 68.052 84.9364 67.8468 85.5278 67.9143L112.598 70.9969C113.343 71.0826 113.974 71.5838 114.221 72.2901C114.469 72.9965 114.289 73.7808 113.757 74.3079L108.771 79.2784L126.46 96.9115C127.224 97.6724 127.224 98.9059 126.46 99.6668C125.697 100.428 124.459 100.428 123.696 99.6668L104.626 80.6574C104.259 80.2912 104.053 79.7978 104.053 79.281C104.053 78.7642 104.259 78.2682 104.626 77.9047L108.13 74.4118L87.526 72.0668L89.8784 92.6058L93.3824 89.113C93.7497 88.7468 94.2447 88.5416 94.7631 88.5416C95.2816 88.5416 95.7791 88.7468 96.1439 89.113L115.214 108.122C115.977 108.883 115.977 110.117 115.214 110.878C114.833 111.257 114.333 111.449 113.833 111.449L113.836 111.444Z" fill="white"/>
<path d="M32.2861 55.7945H17.6033C16.5248 55.7945 15.6495 54.922 15.6495 53.8468V39.2106C15.6495 38.1355 16.5248 37.2629 17.6033 37.2629H32.2861C33.3646 37.2629 34.2399 38.1355 34.2399 39.2106C34.2399 40.2858 33.3646 41.1583 32.2861 41.1583H19.5572V51.8992H30.3322V48.6998C30.3322 47.6246 31.2075 46.7521 32.2861 46.7521C33.3646 46.7521 34.2399 47.6246 34.2399 48.6998V53.8468C34.2399 54.922 33.3646 55.7945 32.2861 55.7945Z" fill="white"/>
<path d="M24.791 49.6502C24.2726 49.6502 23.7776 49.4451 23.4103 49.0789L21.5059 47.1806C20.7426 46.4197 20.7426 45.1861 21.5059 44.4252C22.2692 43.6643 23.5067 43.6643 24.27 44.4252L24.705 44.8589L32.5362 36.0554C33.2526 35.2503 34.4874 35.175 35.295 35.8892C36.1026 36.6033 36.1756 37.8343 35.4618 38.6393L26.2551 48.9906C25.8982 49.3931 25.3902 49.6295 24.8509 49.645C24.8301 49.645 24.8119 49.645 24.791 49.645V49.6502Z" fill="white"/>
<path d="M32.2861 83.2984H17.6033C16.5248 83.2984 15.6495 82.4259 15.6495 81.3507V66.7145C15.6495 65.6394 16.5248 64.7668 17.6033 64.7668H32.2861C33.3646 64.7668 34.2399 65.6394 34.2399 66.7145C34.2399 67.7897 33.3646 68.6622 32.2861 68.6622H19.5572V79.4031H30.3322V76.2037C30.3322 75.1285 31.2075 74.256 32.2861 74.256C33.3646 74.256 34.2399 75.1285 34.2399 76.2037V81.3507C34.2399 82.4259 33.3646 83.2984 32.2861 83.2984Z" fill="white"/>
<path d="M24.791 77.1541C24.2726 77.1541 23.7776 76.949 23.4103 76.5828L21.5059 74.6845C20.7426 73.9236 20.7426 72.69 21.5059 71.9291C22.2692 71.1682 23.5067 71.1682 24.27 71.9291L24.705 72.3628L32.5362 63.5593C33.2526 62.7542 34.4874 62.6815 35.295 63.3931C36.1026 64.1072 36.1756 65.3382 35.4618 66.1432L26.2551 76.4945C25.8982 76.897 25.3902 77.1334 24.8509 77.1489C24.8301 77.1489 24.8119 77.1489 24.791 77.1489V77.1541Z" fill="white"/>
<path d="M99.9917 41.1583H46.2888C45.2103 41.1583 44.335 40.2857 44.335 39.2106C44.335 38.1355 45.2103 37.2629 46.2888 37.2629H99.9917C101.07 37.2629 101.946 38.1355 101.946 39.2106C101.946 40.2857 101.07 41.1583 99.9917 41.1583Z" fill="white"/>
<path d="M59.0698 51.6317H46.2888C45.2103 51.6317 44.335 50.7591 44.335 49.684C44.335 48.6089 45.2103 47.7363 46.2888 47.7363H59.0698C60.1483 47.7363 61.0237 48.6089 61.0237 49.684C61.0237 50.7591 60.1483 51.6317 59.0698 51.6317Z" fill="white"/>
<path d="M74.3465 68.6622H46.2888C45.2103 68.6622 44.335 67.7897 44.335 66.7145C44.335 65.6394 45.2103 64.7668 46.2888 64.7668H74.3465C75.425 64.7668 76.3003 65.6394 76.3003 66.7145C76.3003 67.7897 75.425 68.6622 74.3465 68.6622Z" fill="white"/>
<path d="M59.0698 79.1356H46.2888C45.2103 79.1356 44.335 78.263 44.335 77.1879C44.335 76.1128 45.2103 75.2402 46.2888 75.2402H59.0698C60.1483 75.2402 61.0237 76.1128 61.0237 77.1879C61.0237 78.263 60.1483 79.1356 59.0698 79.1356Z" fill="white"/>
</g>
<defs>
<clipPath id="clip0_70_2344">
<rect width="129" height="111" fill="white" transform="translate(0.000244141 0.443848)"/>
</clipPath>
</defs>
</svg>
