<svg width="32" height="31" viewBox="0 0 32 31" fill="none" xmlns="http://www.w3.org/2000/svg">
<g clip-path="url(#clip0_81_67)">
<path d="M31.0657 9.03029C30.9931 7.43627 30.7267 6.3404 30.3452 5.39081C29.9515 4.38285 29.346 3.48042 28.5525 2.73023C27.7773 1.96836 26.8387 1.37636 25.8092 1.00138C24.8223 0.632117 23.6958 0.374345 22.0486 0.304065C20.3892 0.227832 19.8624 0.210205 15.6535 0.210205C11.4447 0.210205 10.9179 0.227832 9.2646 0.298113C7.61745 0.368393 6.48505 0.626394 5.50404 0.995423C4.46225 1.37636 3.52974 1.96241 2.75454 2.73023C1.96727 3.48042 1.35577 4.3888 0.968055 5.38509C0.586488 6.3404 0.320124 7.43032 0.247501 9.02434C0.168728 10.6303 0.150513 11.1401 0.150513 15.2131C0.150513 19.2862 0.168728 19.796 0.241351 21.396C0.313974 22.99 0.580574 24.0859 0.962141 25.0355C1.35577 26.0434 1.96727 26.9459 2.75454 27.696C3.52974 28.4579 4.4684 29.0499 5.49789 29.4249C6.48505 29.7942 7.6113 30.0519 9.25868 30.1222C10.9117 30.1927 11.4388 30.2101 15.6476 30.2101C19.8565 30.2101 20.3833 30.1927 22.0366 30.1222C23.6837 30.0519 24.8161 29.7942 25.7971 29.4249C27.8805 28.6454 29.5276 27.0514 30.3331 25.0355C30.7144 24.0802 30.981 22.99 31.0537 21.396C31.1263 19.796 31.1445 19.2862 31.1445 15.2131C31.1445 11.1401 31.1384 10.6303 31.0657 9.03029ZM28.2741 21.2788C28.2074 22.7439 27.9531 23.5351 27.7412 24.0625C27.2203 25.3695 26.1484 26.4067 24.7979 26.9108C24.2529 27.1159 23.4294 27.362 21.9214 27.4264C20.2863 27.4969 19.7959 27.5143 15.6597 27.5143C11.5235 27.5143 11.027 27.4969 9.39778 27.4264C7.88381 27.362 7.06627 27.1159 6.52124 26.9108C5.84918 26.6705 5.23744 26.2895 4.74091 25.7914C4.22616 25.3049 3.83253 24.7189 3.58414 24.0685C3.37219 23.541 3.11789 22.7439 3.05142 21.2847C2.97856 19.7024 2.96058 19.2276 2.96058 15.2248C2.96058 11.222 2.97856 10.7415 3.05142 9.16513C3.11789 7.7 3.37219 6.90883 3.58414 6.38138C3.83253 5.73077 4.22616 5.13899 4.74706 4.65825C5.24951 4.1601 5.8551 3.77917 6.52739 3.53903C7.07242 3.33391 7.89611 3.08781 9.40393 3.02325C11.039 2.95297 11.5296 2.93535 15.6656 2.93535C19.808 2.93535 20.2983 2.95297 21.9275 3.02325C23.4415 3.08781 24.259 3.33391 24.8041 3.53903C25.4761 3.77917 26.0879 4.1601 26.5844 4.65825C27.0991 5.14472 27.4928 5.73077 27.7412 6.38138C27.9531 6.90883 28.2074 7.70572 28.2741 9.16513C28.3467 10.7475 28.365 11.222 28.365 15.2248C28.365 19.2276 28.3467 19.6964 28.2741 21.2788Z" fill="white"/>
<path d="M15.6535 7.50659C11.2571 7.50659 7.69006 10.9583 7.69006 15.2132C7.69006 19.468 11.2571 22.9198 15.6535 22.9198C20.0502 22.9198 23.617 19.468 23.617 15.2132C23.617 10.9583 20.0502 7.50659 15.6535 7.50659ZM15.6535 20.2122C12.8014 20.2122 10.4878 17.9736 10.4878 15.2132C10.4878 12.4528 12.8014 10.2141 15.6535 10.2141C18.5059 10.2141 20.8192 12.4528 20.8192 15.2132C20.8192 17.9736 18.5059 20.2122 15.6535 20.2122V20.2122Z" fill="white"/>
<path d="M25.7912 7.20197C25.7912 8.19551 24.9588 9.0011 23.9319 9.0011C22.9052 9.0011 22.0728 8.19551 22.0728 7.20197C22.0728 6.2082 22.9052 5.40283 23.9319 5.40283C24.9588 5.40283 25.7912 6.2082 25.7912 7.20197V7.20197Z" fill="white"/>
</g>
<defs>
<clipPath id="clip0_81_67">
<rect width="31" height="30" fill="white" transform="translate(0.0960693 0.210205)"/>
</clipPath>
</defs>
</svg>
