<svg width="33" height="33" viewBox="0 0 33 33" fill="none" xmlns="http://www.w3.org/2000/svg">
<g clip-path="url(#clip0_81_71)">
<path d="M30.3358 1.97046C29.1627 0.79703 27.7492 0.210205 26.0966 0.210205H6.09646C4.44383 0.210205 3.0304 0.79703 1.85675 1.97046C0.683322 3.14411 0.0964966 4.55747 0.0964966 6.21017V26.2101C0.0964966 27.8626 0.683322 29.2762 1.85675 30.4498C3.0304 31.6235 4.44383 32.2103 6.09646 32.2103H26.0964C27.749 32.2103 29.1624 31.6235 30.3356 30.4498C31.5092 29.2762 32.0961 27.8627 32.0961 26.2101V6.21017C32.096 4.55747 31.5092 3.14389 30.3358 1.97046ZM24.5756 12.5228C24.5896 12.6478 24.5966 12.835 24.5966 13.0854C24.5966 14.2521 24.4263 15.4223 24.0862 16.5956C23.7461 17.7694 23.2252 18.8944 22.5235 19.9707C21.8225 21.047 20.9857 21.9986 20.0136 22.8249C19.0413 23.651 17.8748 24.311 16.5134 24.8037C15.1526 25.2971 13.694 25.5438 12.1386 25.5438C9.72212 25.5438 7.48603 24.8906 5.43039 23.5856C5.76372 23.627 6.11113 23.648 6.47204 23.648C8.48601 23.648 10.2985 23.023 11.9097 21.7726C10.9654 21.7591 10.1215 21.4677 9.37851 20.8977C8.63531 20.3283 8.1181 19.6062 7.82636 18.7311C8.18734 18.7866 8.45814 18.8141 8.63866 18.8141C8.94419 18.8141 9.29846 18.7586 9.70111 18.6478C8.68726 18.453 7.83322 17.95 7.13876 17.1375C6.44416 16.3249 6.09697 15.3979 6.09697 14.3563V14.3147C6.83287 14.6616 7.52733 14.8422 8.18019 14.8562C6.91628 14.0088 6.28436 12.7937 6.28436 11.2104C6.28436 10.4326 6.48561 9.69653 6.8884 9.00208C7.98551 10.3494 9.31911 11.4256 10.8883 12.2311C12.4577 13.0366 14.1384 13.4882 15.93 13.5853C15.8607 13.3215 15.8258 12.988 15.8258 12.5853C15.8258 11.3768 16.2529 10.3457 17.1072 9.49149C17.9612 8.6373 18.9925 8.21006 20.2007 8.21006C21.4788 8.21006 22.5415 8.66853 23.3886 9.58525C24.347 9.40472 25.278 9.05038 26.1804 8.52281C25.8333 9.59197 25.1871 10.4046 24.2431 10.9602C25.1456 10.8349 25.9856 10.599 26.7633 10.2518C26.18 11.1406 25.4506 11.8975 24.5756 12.5228Z" fill="white"/>
</g>
<defs>
<clipPath id="clip0_81_71">
<rect width="32" height="32" fill="white" transform="translate(0.0960693 0.210205)"/>
</clipPath>
</defs>
</svg>
