<svg width="24" height="24" viewBox="0 0 24 24" fill="none" xmlns="http://www.w3.org/2000/svg">
<g clip-path="url(#clip0_81_10)">
<path fill-rule="evenodd" clip-rule="evenodd" d="M14.8649 13.403C14.4107 13.5886 14.1205 14.2997 13.8261 14.663C13.6752 14.8491 13.4952 14.8781 13.2632 14.7848C11.5583 14.1056 10.2514 12.968 9.31066 11.3991C9.15129 11.1558 9.17988 10.9636 9.37207 10.7377C9.65613 10.403 10.0133 10.0228 10.0902 9.57187C10.2608 8.57437 8.95675 5.48016 7.23457 6.88219C2.27894 10.9205 15.5014 21.6309 17.8878 15.8381C18.5628 14.1961 15.6177 13.0945 14.8649 13.403ZM11.9999 21.9037C10.2472 21.9037 8.52269 21.4378 7.01285 20.5556C6.7705 20.4136 6.47754 20.3761 6.2066 20.4497L2.92582 21.3502L4.06863 18.8325C4.22426 18.4898 4.18441 18.0909 3.96457 17.7863C2.74207 16.0917 2.09566 14.0911 2.09566 12C2.09566 6.53859 6.53847 2.09578 11.9999 2.09578C17.4613 2.09578 21.9036 6.53859 21.9036 12C21.9036 17.4609 17.4608 21.9037 11.9999 21.9037V21.9037ZM11.9999 0C5.38301 0 -0.000118688 5.38312 -0.000118688 12C-0.000118688 14.3278 0.660819 16.5633 1.9166 18.5034L0.0936313 22.5183C-0.0746499 22.8891 -0.0132437 23.3231 0.250194 23.632C0.452694 23.8687 0.745662 24 1.04801 24C1.72394 24 5.40972 22.8417 6.34769 22.5844C8.0816 23.512 10.0264 24 11.9999 24C18.6163 24 23.9999 18.6164 23.9999 12C23.9999 5.38312 18.6163 0 11.9999 0Z" fill="white"/>
</g>
<defs>
<clipPath id="clip0_81_10">
<rect width="24" height="24" fill="white"/>
</clipPath>
</defs>
</svg>
